<?xml version="1.0" encoding="utf-8"?>
<!-- Generator: Adobe Illustrator 16.0.0, SVG Export Plug-In . SVG Version: 6.00 Build 0)  -->
<!DOCTYPE svg PUBLIC "-//W3C//DTD SVG 1.1//EN" "http://www.w3.org/Graphics/SVG/1.1/DTD/svg11.dtd">
<svg version="1.1" xmlns="http://www.w3.org/2000/svg" xmlns:xlink="http://www.w3.org/1999/xlink" x="0px" y="0px" width="640px" height="556px" viewBox="0 0 640 556" enable-background="new 0 0 640 556" xml:space="preserve">
<polygon fill="#908F86" points="640,0 345.868,0 347.516,10.411 347.033,11.553 348.197,12.989 349.598,13.295 350.621,13.073 351.445,12.461 377.473,30.377 377.579,30.909 376.905,32.177 377.375,32.377 378.209,30.859 398.499,43.795 399.227,42.655 397.817,41.773 397.511,42.209 397.191,41.987 397.981,40.587 398.699,40.611 399.355,40.165 399.661,40.659 400.131,40.741 400.285,40.295 400.203,39.883 400.471,39.835 402.649,43.951 410.283,48.337 410.129,49.065 414.879,51.769 416.797,51.817 417.775,50.465 415.967,32.121 419.271,29.171 419.767,38.943 420.307,39.307 419.789,39.601 419.919,40.661 420.635,41.237 428.267,41.933 428.845,41.287 429.489,41.675 429.877,42.403 429.725,45.027 431.289,46.673 430.613,44.087 432.939,42.195 435.021,42.405 435.281,42.017 435.563,33.369 435.841,41.839 436.936,42.239 437.993,41.981 438.102,36.219 438.431,35.817 438.499,31.689 440.075,31.759 440.297,30.253 441.169,30.241 441.183,31.333 442.475,31.333 442.431,27.371 443.547,27.371 443.489,33.369 443.985,33.357 443.887,27.021 445.149,26.315 451.709,26.655 451.521,31.499 449.755,31.675 449.499,41.729 451.909,41.857 453.027,28.849 454.181,27.403 453.919,26.887 453.415,27.369 452.745,26.825 453.213,15.417 453.919,14.769 454.307,13.723 453.965,12.309 454.825,13.593 454.825,30.069 475.72,30.569 475.846,30.179 482.688,29.779 482.739,29.519 483.363,29.519 483.354,29.791 485.903,29.673 489.573,21.043 490.065,21.489 486.447,31.051 486.659,31.451 486.85,31.451 490.029,22.611 490.501,22.871 490.642,22.755 497.957,27.543 497.835,27.727 498.153,27.963 498.249,27.809 498.463,27.985 498.911,30.183 499.325,30.749 499.325,31.375 500.335,32.917 498.065,35.785 498.523,36.069 499.348,34.825 499.896,35.785 499.827,36.749 503.921,39.619 503.131,40.761 503.495,41.019 504.331,39.725 504.461,39.817 504.661,39.759 505.319,38.819 505.401,38.793 506.644,39.479 506.825,40.219 508.39,41.313 507.319,43.089 508.896,44.263 508.68,44.583 508.797,44.675 508.743,44.723 508.463,44.547 508.333,44.783 508.605,44.923 507.757,46.207 507.885,46.311 507.871,46.359 508.107,46.501 508.191,46.431 508.355,46.393 509.001,45.419 509.237,45.595 508.06,47.863 508.189,47.981 508.257,47.921 508.505,48.087 508.493,48.145 508.686,48.299 510.229,46.253 510.474,46.419 509.841,47.381 509.899,47.697 510.058,47.851 510.093,47.791 510.247,47.897 511.043,46.731 511.409,46.953 511.633,46.647 511.409,46.481 511.646,46.095 511.93,46.293 512.201,45.897 512.117,45.803 512.211,45.685 512.469,45.855 512.105,46.409 513.327,47.241 514.221,46.007 514.537,46.231 516.352,43.535 516.655,43.701 515.865,44.889 516.726,45.477 517.523,44.349 517.447,44.269 517.663,43.939 518.64,44.599 518.367,45.035 519.485,45.727 519.661,45.421 519.941,45.575 519.107,47.283 519.233,47.531 520.352,48.281 520.848,47.763 521.009,47.715 522.315,48.483 522.411,48.329 522.797,48.529 522.983,48.469 525.113,50.003 525.325,49.979 525.701,49.577 526.726,50.141 526.571,50.401 526.619,50.461 526.427,50.745 526.341,50.685 525.85,51.461 526.141,51.603 526.201,51.779 526.457,51.923 526.469,52.027 526.541,52.145 526.775,52.205 526.976,52.145 527.159,51.967 527.277,52.037 526.913,52.567 526.815,53.485 529.385,55.177 524.587,62.589 525.237,63.001 529.224,57.145 529.039,57.027 529.976,55.603 533.375,57.215 532.854,58.027 533.151,58.215 532.903,58.581 533.717,59.123 533.943,58.807 534.766,59.313 536.047,58.795 531.885,65.183 532.308,65.441 533.241,64.087 533.631,64.323 536.795,59.499 537.18,59.629 537.239,59.851 538.827,60.943 538.381,62.097 538.64,62.721 547.801,68.921 559.479,68.531 559.867,69.823 560.102,70.009 567.213,69.231 567.995,68.293 575.415,67.669 576.403,66.679 577.545,66.315 578.169,66.551 591.591,63.513 591.651,63.797 593.432,63.619 593.808,63.853 593.394,69.863 605.184,75.447 605.245,76.493 606.083,76.951 606.969,76.223 610.667,77.967 619.335,71.531 623.781,73.581 621.51,76.155 620.841,75.531 615.465,81.189 630.203,88.163 630.766,87.305 635.507,89.727 634.201,92.207 634.461,92.417 635.037,91.537 635.346,91.665 634.955,92.417 635.167,92.711 635.943,93.149 635.731,93.667 636.483,94.137 636.801,93.749 637.529,94.033 637.917,93.985 640,86.758 "/>
<polygon fill="#908F86" points="640,127.883 631.589,126.733 630.601,128.343 628.061,127.381 628.449,125.357 625.803,124.321 625.075,125.931 623.781,125.367 622.475,120.801 619.023,120.297 617.857,122.123 616.095,121.909 615.731,123.099 612.999,122.767 612.897,119.603 595.391,126.683 595.341,127.307 594.153,127.307 592.001,128.765 591.001,128.649 588.969,129.987 588.335,131.141 587.903,130.649 585.439,132.517 584.357,130.999 584.617,130.777 584.315,130.459 581.801,132.245 583.575,134.565 582.693,135.235 582.759,135.415 581.981,136.227 581.757,136.029 581.059,136.687 581.105,136.841 579.307,138.183 578.565,137.819 578.259,137.889 577.123,139.207 577.371,139.819 576.767,139.573 575.897,141.533 575.101,140.701 574.665,141.017 575.395,141.993 575.241,142.345 573.983,141.759 573.115,143.559 573.325,143.665 573.089,144.087 572.899,144.007 572.503,144.783 573.479,145.333 573.761,145.981 574.207,146.229 574.231,146.357 573.607,146.487 573.455,146.747 571.925,145.851 571.057,145.887 570.553,146.431 570.691,146.899 570.563,147.183 570.609,147.771 570.481,148.053 570.501,148.865 569.739,148.983 569.421,149.373 569.239,150.253 567.371,151.713 566.889,151.629 566.703,151.383 566.691,150.161 564.705,150.197 564.723,149.689 564.671,149.597 559.777,149.609 559.713,154.045 556.243,154.081 555.549,153.599 555.795,139.485 555.667,139.367 552.125,139.331 551.855,139.509 551.785,146.999 527.463,139.143 527.251,139.343 527.205,142.167 527.451,142.519 529.369,143.105 529.355,149.703 524.863,152.065 524.263,151.443 524.137,140.553 523.317,140.529 523.465,150.927 521.854,150.963 521.665,151.103 521.583,159.925 521.051,160.101 520.511,160.021 520.467,158.845 520.265,158.561 519.809,151.609 517.479,151.727 517.525,146.643 517.297,146.643 516.031,154.559 514.513,154.689 514.127,154.419 514.055,147.469 513.419,147.445 513.419,147.561 513.597,147.785 513.529,154.925 513.949,154.913 514.891,159.191 514.385,161.509 513.997,161.483 512.837,165.827 512.837,162.333 511.495,162.383 511.519,163.029 512.235,163.017 512.287,166.041 512.027,166.099 512.005,166.537 509.321,166.339 508.535,165.845 508.593,155.427 507.135,155.167 507.157,153.651 506.475,153.651 506.463,155.217 504.817,155.393 504.713,162.379 504.311,162.933 503.793,163.049 503.383,162.697 503.277,162.125 500.239,161.665 500.575,146.433 485.459,139.859 485.271,147.125 460.359,136.543 459.801,137.719 460.309,137.955 459.647,145.883 460.565,147.633 468.909,151.021 471.673,154.469 467.241,154.939 467.577,159.043 467.303,159.291 464.377,151.901 462.623,151.407 462.659,150.853 461.613,150.829 461.507,157.815 461.153,158.271 453.003,159.167 451.343,158.073 451.097,155.581 450.661,154.851 449.663,154.663 448.169,155.781 439.197,153.099 433.197,155.171 431.615,154.665 432.179,154.405 432.041,154.111 432.351,153.945 432.249,153.747 433.921,152.829 433.711,152.463 433.439,152.417 432.469,152.911 432.383,152.687 434.319,151.287 434.001,150.687 431.827,151.569 431.651,151.383 432.627,150.807 432.745,150.587 432.497,150.221 430.465,151.221 430.217,150.915 427.062,152.511 426.595,152.347 426.521,152.569 425.261,151.679 425.389,151.383 421.965,149.303 422.431,148.457 440.107,138.683 439.991,138.517 417.245,146.499 415.373,145.783 415.303,145.079 418.183,140.355 406.903,135.145 405.121,137.311 402.753,138.277 390.041,130.913 389.484,131.005 389.359,131.265 389.359,131.525 389.475,131.747 385.607,134.933 382.707,135.241 382.643,135.065 380.995,134.461 380.759,134.545 374.893,129.005 378.654,125.135 378.643,124.791 378.434,124.497 378.139,124.399 377.747,124.517 377.167,125.059 371.829,121.297 371.709,121.011 371.863,120.849 370.889,120.271 370.107,121.049 370.663,121.733 367.936,124.533 367.751,124.335 367.682,124.395 365.859,122.593 365.577,122.865 358.809,117.263 358.625,116.711 358.988,115.933 355.896,112.955 353.887,113.635 353.119,113.531 352.383,112.839 353.507,108.851 356.289,106.013 358.396,105.565 358.541,105.929 362.503,106.353 364.003,105.495 364.105,105.093 364.447,104.917 364.801,104.281 367.715,102.307 369.171,102.355 373.585,109.281 375.421,110.223 376.701,110.095 378.831,108.847 378.561,107.781 382.23,102.697 387.491,101.687 388.459,101.945 388.275,104.111 388.395,104.427 388.581,104.463 388.581,104.769 388.323,104.979 388.169,114.889 386.839,116.055 386.371,117.985 387.675,119.077 390.641,119.227 393.098,117.499 396.355,111.101 396.015,110.267 393.723,109.477 392.814,108.443 390.029,108.087 389.465,105.217 389.177,104.997 389.348,104.303 389.652,104.243 389.689,103.407 390.439,102.445 391.273,102.703 392.135,102.597 396.239,98.903 399.885,101.125 408.089,100.467 411.035,90.223 410.009,87.991 409.527,87.577 409.493,87.281 409.247,87.071 408.941,87.011 408.497,87.177 408.453,87.319 407.135,87.955 406.465,89.023 406.217,89.117 404.397,91.881 402.783,92.755 380.9,79.291 380.93,79.105 380.673,78.659 380.165,78.565 379.736,78.825 379.675,78.967 372.457,78.709 363.932,68.633 364.223,68.409 364.355,68.057 364.329,67.751 364.131,67.467 363.823,67.327 363.48,67.337 361.381,63.879 352.991,58.411 340.005,29.969 337.137,28.969 335.715,26.063 320.823,29.719 317.905,29.175 309.521,32.081 307.921,33.773 304.663,34.749 301.053,38.241 300.077,42.745 300.911,43.863 300.417,45.109 293.955,51.243 290.873,51.373 290.707,51.679 290.861,52.455 290.719,52.985 290.497,53.231 290.661,53.645 288.829,64.147 289.321,64.617 288.311,72.117 287.923,72.327 288.251,72.525 286.959,82.007 281.513,85.063 280.173,86.957 280.607,87.605 282.817,87.781 283.607,90.877 280.505,91.925 280.573,92.231 282.041,92.115 282.289,93.209 282.973,94.041 282.961,94.981 281.949,95.523 283.171,97.193 283.925,97.157 284.231,98.029 283.387,99.557 283.701,100.711 289.383,104.389 291.827,103.485 292.767,103.565 293.333,103.093 295.697,103.003 297.603,104.675 299.719,111.703 298.601,111.655 298.683,111.821 300.647,112.383 303.013,114.747 305.907,115.217 307.035,114.631 307.919,115.347 308.831,120.991 307.809,121.733 307.729,122.849 310.325,129.493 317.125,136.127 317.465,136.079 317.947,136.633 318.169,137.751 317.711,138.787 318.909,137.609 319.861,137.819 321.121,139.067 321.182,139.535 321.625,139.325 328.449,145.041 326.805,164.555 328.755,165.109 336.105,180.385 336.493,179.445 337.057,179.185 337.469,179.185 338.221,179.679 338.646,185.429 340.221,185.981 340.879,185.767 341.184,186.003 341.066,189.529 343.264,190.049 343.697,189.753 343.895,189.753 344.495,190.317 344.329,193.797 344.381,193.925 346.543,195.995 346.823,195.291 347.566,195.019 351.404,201.123 351.117,202.943 350.691,203.261 351.279,204.577 352.068,204.509 352.857,205.273 354.491,204.453 356.447,206.359 355.236,207.569 356.027,208.509 355.697,208.909 355.791,209.613 356.137,209.969 356.759,209.875 357.033,209.593 357.451,210.017 356.413,211.077 356.441,211.229 356.559,211.265 357.207,210.595 358.711,212.079 359.98,210.797 360.993,211.821 360.641,212.467 360.711,213.313 362.051,214.807 361.852,214.795 361.557,214.535 361.4,214.547 360.943,215.043 360.967,215.381 361.167,215.559 361.461,215.641 361.757,215.455 363.559,217.145 363.936,216.829 364.98,217.767 364.9,217.875 365.066,218.061 366.089,218.357 366.831,218.121 367.016,217.955 367.889,218.825 367.159,219.627 369.771,222.299 369.499,222.661 369.511,223.343 369.887,223.685 370.509,223.663 372.146,222.017 378.721,227.921 382.823,227.713 383.604,226.981 382.365,225.735 385.398,222.207 389.305,222.115 392.27,224.699 392.161,224.897 392.891,225.533 393.609,224.769 395.257,226.461 396.573,226.541 397.515,225.731 397.867,226.119 398.231,225.705 398.619,225.859 399.797,225.189 400.207,224.539 400.207,223.787 400.725,223.505 401.143,218.155 402.107,216.969 402.261,216.333 404.967,215.147 406.553,215.171 406.801,215.381 407.165,215.475 407.477,215.407 409.735,216.521 411.395,218.723 415.939,218.887 426.661,211.783 426.487,211.559 426.757,211.265 428.899,211.523 429.193,211.431 429.533,209.715 431.171,209.973 431.181,209.845 431.379,209.857 431.367,210.023 431.833,210.681 431.773,210.869 431.997,211.351 432.681,210.779 433.443,210.791 433.597,209.709 434.263,209.121 434.319,208.417 434.155,208.031 434.825,207.545 434.579,207.195 434.743,206.127 434.495,205.713 434.897,203.395 436.377,203.475 436.777,204.053 438.639,203.441 449.871,204.627 450.245,207.095 449.717,207.105 449.573,207.177 449.555,210.131 449.363,210.235 449.293,213.021 448.163,212.995 447.601,213.301 447.812,213.617 447.441,213.969 447.193,214.759 447.485,215.749 447.171,215.971 448.191,216.665 449.609,216.511 450.151,216.097 451.635,216.203 451.587,219.319 451.339,219.635 447.289,219.741 447.289,219.977 441.561,220.153 441.539,220.399 441.157,220.331 441.087,220.097 438.829,219.685 438.361,220.017 438.325,220.393 438.759,221.095 438.713,221.485 438.409,221.745 438.341,221.965 438.425,222.165 437.027,222.139 437.107,219.353 436.697,219.305 436.697,219.575 431.015,219.647 430.051,221.023 428.087,222.063 427.711,222.087 427.533,221.945 427.441,221.545 427.781,221.109 429.275,220.531 430.027,219.735 430.027,219.347 428.275,219.063 427.699,219.359 427.239,219.347 425.087,220.275 425.003,220.501 426.169,220.619 426.511,220.877 426.605,221.253 426.405,221.605 426.193,221.699 426.169,221.475 425.277,221.735 425.395,222.593 419.291,224.333 419.383,224.709 418.915,224.709 418.695,225.025 418.049,223.965 416.133,224.411 415.017,225.587 414.603,225.317 414.073,225.517 414.133,225.893 409.781,229.489 409.557,229.527 409.205,229.785 409.139,230.093 407.327,231.281 406.871,232.313 406.187,232.409 405.573,233.219 405.837,233.761 404.823,234.629 404.812,234.205 403.999,233.101 403.719,233.063 403.685,233.545 403.531,233.535 403.219,240.423 402.819,240.787 397.125,240.469 396.737,240.079 395.797,237.163 395.375,236.809 393.787,236.693 391.715,238.255 389.848,238.643 388.232,237.959 388.081,238.077 387.93,239.489 387.047,240.995 385.575,241.359 384.271,240.771 382.925,239.163 376.045,238.729 375.657,239.045 372.893,238.917 372.518,238.525 371.339,238.513 370.081,239.785 368.105,239.749 367.646,240.063 367.48,241.335 365.516,243.135 364.511,243.135 363.973,242.809 362.631,240.759 362.984,240.573 362.675,240.007 362.007,239.971 361.991,240.171 360.734,240.145 359.309,237.571 358.943,237.621 358.484,238.045 358.137,238.033 357.311,237.223 357.264,236.809 357.957,235.105 367.717,237.825 367.801,237.659 367.801,237.471 367.673,237.307 367.505,237.247 367.573,234.693 368.089,234.143 368.159,232.191 364.727,227.995 364.943,227.323 359.57,221.111 359.923,220.547 359.232,220.039 358.999,220.169 357.789,219.557 357.764,219.557 357.057,218.829 356.73,219.135 355.896,218.101 356.673,217.349 356.177,216.783 355.969,216.933 355.475,216.337 353.957,216.173 353.934,215.717 351.721,215.679 351.734,216.445 350.807,216.397 350.499,216.055 349.203,217.135 349.461,217.677 347.791,222.971 348.803,224.655 348.591,225.643 348.865,226.217 349.146,226.345 349.473,228.051 347.699,229.711 347.123,229.111 346.877,227.851 345.827,226.935 345.018,226.829 344.759,226.651 344.449,226.005 343.123,225.545 342.654,225.699 342.443,225.631 340.48,213.001 341.145,212.579 341.521,211.275 344.295,210.425 339.133,201.743 339.661,201.403 339.909,200.685 338.379,197.769 338.343,196.449 332.283,191.135 325.417,189.325 324.029,189.653 321.629,193.429 319.783,193.571 315.809,191.303 315.457,190.807 315.681,188.913 317.105,188.291 316.833,187.771 315.785,187.679 315.139,187.937 310.305,194.053 302.697,194.749 292.113,213.303 280.333,212.609 279.401,211.645 279.333,211.201 277.839,210.387 277.709,210.079 267.217,210.701 257.513,218.297 229.053,221.097 228.615,220.627 209.695,218.087 207.105,215.511 188.513,215.677 187.773,216.677 173.931,218.243 169.061,215.279 168.109,213.131 168.249,211.893 168.547,211.469 169.731,211.479 169.813,211.361 169.721,211.069 169.463,210.843 168.327,210.751 168.189,210.855 168.189,211.035 167.975,211.211 167.637,210.989 167.975,210.693 163.659,206.131 163.869,205.483 162.789,204.115 163.035,204.973 161.461,205.653 158.183,204.995 157.713,204.219 154.385,202.923 152.577,200.805 152.539,200.653 152.963,199.877 152.883,199.667 152.963,199.511 153.033,199.559 153.563,198.643 153.503,198.489 153.727,198.087 154.077,197.995 154.245,197.685 153.669,197.391 151.813,200.449 128.453,204.693 125.607,203.237 124.573,200.295 120.117,199.683 118.797,197.189 110.789,197.333 108.659,195.135 101.181,196.251 99.533,194.499 96.709,194.393 95.733,193.241 93.287,192.993 92.253,192.075 54.575,185.947 51.269,188.255 50.331,188.183 49.153,186.985 15.531,186.317 0,200.05 0,318.914 52.259,353.587 52.609,354.565 52.881,354.705 52.671,354.905 52.683,355.241 81.475,374.011 82.309,373.855 82.367,374.797 83.943,375.689 85.231,378.177 85.985,377.991 86.313,378.885 106.297,396.659 107.203,396.635 109.461,397.973 109.767,398.623 115.345,401.841 182.5,393.567 640,182.692 "/>
<polygon fill="#BDBBAF" points="640,182.692 182.5,393.567 115.345,401.841 109.767,398.623 115.519,401.941 114.333,403.125 112.579,410.253 110.215,410.263 110.815,413.831 112.005,415.009 112.605,419.761 106.687,417.993 103.733,420.969 102.557,424.535 99.607,426.325 92.501,424.559 92.501,425.757 103.169,429.871 90.523,438.517 0,360.172 0,367.365 71.055,434.551 77.159,434.715 87.845,444.175 90.209,444.761 90.809,445.949 101.075,450.421 99.959,452.903 111.545,460.077 113.529,480.901 0,516.833 0,518.451 39.903,505.655 40.643,505.747 118.737,480.497 120.269,478.519 120.273,478.519 121.045,477.443 140.849,479.577 141.423,482.003 142.471,482.671 144.329,482.329 149.271,478.695 153.243,481.637 147.443,524.695 142.015,533.019 139.157,532.431 134.843,536.003 130.147,549.071 127.195,550.861 125.429,553.823 125.436,556 640,556 "/>
<g>
	<path fill="#B0AFA3" stroke="#5F5E58" stroke-miterlimit="10" d="M266.747,288.365l34.768,1.098l0.118,29.438l16.774,36.138 l-0.06,6.731l-1.476,3.158l-2.768,2.145l-16.054-0.752l-3.096,2.836l-1.61,25.357l-45.278-0.812l0.202-61.214l-5.738-9.492 l1.956,0.376l5.506,4.288l-26.044-37.94l0.488-2.888L266.747,288.365L266.747,288.365z"/>
	<path fill="#B0AFA3" stroke="#5F5E58" stroke-miterlimit="10" d="M293.339,394.507l1.668-25.485l3.754-3.003l15.69,0.883 l2.648-2.292l1.164-10.356l-16.832-35.972l0.084-28.83l42.858,0.934l2.746-2.582l9.958-1.22l7.212,3.618l13.874,0.346 l-2.562,106.811L293.339,394.507L293.339,394.507L293.339,394.507z"/>
	<path fill="#B0AFA3" stroke="#5F5E58" stroke-miterlimit="10" d="M443.399,401.025l-31.862-1.776l0.021-23.2l-6.544-9.308 l0.559-12.244l7.487-8.172l1.816-55.294l43.6,1.541l0.211-0.105l32.436,0.788l-2.092,109.024L443.399,401.025L443.399,401.025z"/>
	<path fill="#B0AFA3" stroke="#5F5E58" stroke-miterlimit="10" d="M411.539,399.251l-35.932-1.894l2.578-107.418l36.718,1.105 l-1.822,55.298l-7.486,8.17l-0.554,12.248l7.012,10.792L411.539,399.251L411.539,399.251z"/>
	<path fill="#B0AFA3" stroke="#5F5E58" stroke-miterlimit="10" d="M591.721,270.829l-0.84,84.462l-5.052,8.16l-0.752,29.548h-0.183 l-0.058,9.42l-95.802-0.147l2.092-109.021l36.45,0.854l0.048-2.024l0.55,0.04l0.349-26.438l63.191,1.068v4.078H591.721 L591.721,270.829z"/>
	<path fill="#B0AFA3" stroke="#5F5E58" stroke-miterlimit="10" d="M691.361,404.965l-23.076,1.234l-13.902-9.771l-3.322,4.418 l-1.646,0.906l-64.556,0.7l0.058-9.418h0.176l0.658-29.141l5.734-9.92l0.268-87.226l76.492,0.588l23.1-16.376l0.036,154.004 H691.361L691.361,404.965z"/>
	<path fill="#B0AFA3" stroke="#5F5E58" stroke-miterlimit="10" d="M443.399,401.025l-1.612,66.037l-102.696-2.104l1.692-69.354 L443.399,401.025L443.399,401.025z"/>
	<path fill="#B0AFA3" stroke="#5F5E58" stroke-miterlimit="10" d="M691.891,548.427l-1.63-0.31l-0.021-0.026l-0.424-0.191 l-0.07-0.131v-0.084l-0.024-0.031l-0.119-0.046l-0.175,0.065l-0.204-0.042l-0.033-0.038v-0.142l-0.013-0.024l-1.552-0.328 l-0.152-0.235l-1.124-0.381l-0.01-0.014l-1.706-0.372l-0.12-0.14l-1.577-0.184l-0.15-0.156l-1.022-0.128l-0.166-0.238l-0.424-0.098 l-0.012-0.015l-0.846-0.107l-0.04,0.016l-1.028-0.364l-0.022-0.027l-0.941-0.19l-0.164-0.144l-0.084-0.024l-0.088,0.057h-0.15 l-0.05,0.037l-1.928-0.504l-0.076,0.351l-0.143-0.046l0.078-0.353l-0.985-0.27l-0.154-0.389l-3.122-0.624l0.012-0.01l-3.5-1.064 l-0.144,0.089l-1.061-0.194l-0.054,0.33l-2.852-0.45l-0.546,1.014l-2.376-1.142l-0.051,0.116l-0.384-0.178l-0.023,0.05 l-0.482-0.223l-0.12,0.183l-0.446-0.218l-0.195,0.386l-1.322-0.672l0.624-1.282l-1.808-0.964l0.132-0.26l-1.012-0.505l-0.126,0.223 l-1.104-0.555l-0.036,0.022l-0.128,0.236l-2.189-1.059l0.014-0.038l-0.038-0.01l0.012-0.034l-0.067-0.042l-0.038,0.068 l-0.059-0.044h-0.01l-0.242-0.236h-0.025l-0.131-0.334v0.116l-0.638-0.192l0.021-0.13l-7.07-2.59l-1.006-1.378l-6.446-1.806 l-1.317-1.404l-0.116,0.012v-0.023l-0.376,0.563l-0.076,2.114l-5.22-1.136l-0.038-0.053h-0.013l-0.172-0.64l-0.279-0.273h-0.4 l-3.598,2.056l-5.687-1.11l-0.042,0.05v0.061l-0.128,0.189l-0.244,0.131l-0.504-0.097l-0.136-0.168l-0.044-0.216l-0.026-0.026 l-0.058,0.166l-6.344,0.166l-0.024,0.051l-0.072,0.062l-0.828,0.166l-0.046,0.038l-2.018,0.229l-0.656-0.377l-3.684-0.277 l-0.278,0.202l-1.744-0.298l-0.09,0.151l-3.622-0.036v-0.128l-2.576,0.164l-0.036,0.042l-0.14,0.021l-0.07,0.048l-4.8-0.508 l20.402-111.046l3.857,0.069l0.128-15.958l3.146-0.178l-0.156,0.024l0.298-0.04l-0.142,0.016l31.308-1.019l4.528-5.151 l12.031,9.144l24.948-0.613L691.891,548.427L691.891,548.427z"/>
	<path fill="#B0AFA3" stroke="#5F5E58" stroke-miterlimit="10" d="M529.633,511.159l0.324-108.064l36.764-0.657l-0.17,0.046 l48.828,0.27l-0.136,15.958l-3.853-0.072l-4.197,63.44l-10.962,14.47l-5.24,33.139l-0.022-0.013l-3.588-0.142l-0.036-0.024 l-2.828-0.216l-0.012-0.012l-10.706-1.122l-0.054,0.354l-0.04,0.024l-7.896-2.448l-0.056-0.05l-2.324-0.227l-0.14-0.082 l0.042-2.352l-0.248-0.222l-0.936-0.061l-0.223,0.2l-0.552,1.258l-0.166,0.026l-1.284-0.552l-0.28-0.376l-0.111,0.023l-7.562-3.926 l-0.964-1.518l-1.194-0.643l-0.035-0.06l-2.091-1.013l-0.976,0.015v0.454l-0.984-0.324l0.011,0.012l-0.101-0.026l-0.012,0.082 l-0.098-0.05l-0.011-0.104l-0.609-0.181l0.012-0.119l-0.11-0.021l0.017-0.07l-1.061-0.378l-0.01,0.04l-2.388-0.868l-0.046,0.036 l-0.095-0.048l0.015-0.044l-0.015-0.014l-1.151-0.349l-0.046,0.11l-3.988-0.614l-0.058,0.13l-0.906-0.079l0.038-0.469l-0.166-0.144 l-1.072-0.29l-4.072,1.412L529.633,511.159L529.633,511.159z"/>
	<path fill="#B0AFA3" stroke="#5F5E58" stroke-miterlimit="10" d="M439.777,524.033l3.64-123.008l86.556,2.073l-0.164,111.637 l-2.783,0.939l-0.034-0.012l-3.164,1.19l-0.636,0.766l-0.128,0.042l-0.347-0.068l-0.248,0.148l0.097,0.53l-0.061,0.058l-1.588,0.33 l-0.094-0.504l-0.034-0.026v-0.072h-0.214l-0.01,0.013l-5.517,0.746l-0.084-0.11l-2.611-0.672l-0.454,0.472l-0.288,1.308 l-0.114,0.072l-1.408,0.05l-0.084,0.103l-0.166,0.04l-0.01-0.01l-0.414-0.137l-1.32,0.336l-0.281,0.261l-1.36,0.048l-0.048-0.024 l-1.656,0.311l-0.063-0.042l-0.072,0.023l-0.092,0.154l-0.456,0.048l-0.256,0.23l-0.345,0.077l-0.034-0.01l-0.062,0.01 l-0.068,0.097l-1.634,0.382l-0.094-0.11l-3.57,0.977l-0.058-0.019l-2.468,0.376l-0.084,0.084l-0.057,0.771l0.101-0.024v0.26 l-0.12,0.034l-0.044,0.19l-1.637,0.355l-0.012,0.187l-1.002,0.324l-0.402,0.644l-0.117,0.038l0.182,0.624l-0.06,0.118l0.01,0.038 l-0.962,0.323l-0.258-0.788l-0.271,0.152h-0.284l-2.328,1.054h-1.241l-0.221,0.106l-0.266,0.382l-1.614,0.666l-0.298-0.1 l-0.748,0.3l-0.044,0.064l-0.108,0.033l-0.012,0.036l-2.815,0.632l-0.013-0.14h-0.118v-0.048l-0.672,0.122l-0.132,0.244 l-0.618,0.102l-0.038,0.414l-0.418,0.096l-0.126-0.096l-0.098-0.254l0.078-0.146l-0.046-0.324l-1.895-0.057l-0.01,0.034 l-0.024,0.024h-0.069l-0.013,0.012l-0.783-0.012l-0.013,0.012l-0.096-0.012l-0.044,0.027h-0.026l-0.014-0.027l-0.978-0.024 l-0.2,0.96l-0.064,0.044l-1.008-0.182l-0.164-0.606l-0.064-0.038l-0.117,0.215l-5.128,0.456l-0.152-0.101l0.026-0.868l-1.889,0.462 l-0.094,0.21l0.01,0.307l-0.069,0.109l-10.584,0.757l-0.078,0.081l-0.092,0.578l0.046,0.062l-0.013,0.202l-0.613-0.019 l-0.013,0.064l-0.815-0.164l-0.223-0.479l-0.542-0.418l-1.065,0.072l-0.132-0.086l-5.992,0.266v0.166l-0.13-0.012v-0.674 l-1.223-0.012v0.573l-0.044,0.051l-3.392-0.272l-0.09-0.376l-0.524-0.3l-0.626-0.061L439.777,524.033L439.777,524.033z"/>
	<path fill="#B0AFA3" stroke="#5F5E58" stroke-miterlimit="10" d="M314.615,464.489l127.18,2.573l-2.228,63.406l-0.166-0.046 l-0.091-0.112l-0.126-0.062l-0.082,0.012l-0.035,0.05l-0.059,0.022l-0.044,0.05l-3.678-0.446l-0.012,0.202l-0.881-0.014 l-0.096-0.308l-0.386-0.024l0.038,0.444l-2.624-0.303l-0.038,0.87l-2.021-0.258l0.263,0.309l0.069,0.021l0.011,0.188l-3.696-0.388 l-0.11-0.96l-8.288,1.103l-0.021-0.024l-2.952,0.848l0.012,0.471h0.13v0.34l-0.224,0.012v-0.166h-0.128v-0.422h-0.128v-0.248 l-0.456,0.472l-0.024,0.068l-0.766-0.012l-0.07-0.528l-4.823,2.26l-0.395,1.29l-0.12,0.132l-4.91,1.504l0.026,0.271l-0.054,0.04 h-0.376l0.016,0.439l-4.458,2.114l-0.128-0.01l-0.216,0.222l-0.038,0.152l0.026,0.107l0.388,0.038l-0.024,0.765l-0.342-0.015 l-0.012-0.094l-0.304-0.012l-0.013,0.063h-0.132l-0.02-0.069l-0.366-0.026l-0.012-0.052h-0.055v-0.042l-1.432,0.288l-0.492,0.354 l-0.036-0.042h-0.024l-0.023,0.028l-0.07-0.016l-0.033,0.029l-0.041,0.013l-0.01,0.033h-0.199l-0.015-0.044l-0.044,0.013v-0.026 h-0.283v0.152l-0.654,0.256l-0.74-0.185l-0.021,0.038h-0.187l-0.106-0.084v-0.025l-0.104-0.04l-0.334,0.02l-0.348,0.4l-0.334,1.154 l-2.064,0.968l-0.042-0.013l-0.08,0.106l-1.046,0.232l-0.044-0.013l-0.108-0.096l-0.072-0.014l-3.797,2.16l-0.305,0.588l-1,0.216 l-2.152,1.628l-1.535,0.324l-0.324,0.407l-2.545,0.61l-0.705,0.744v0.32l-7.24,1.974l-0.188,0.194l-0.024,1.365l-2.83,0.261 l-0.097,0.088l-0.01,0.294l-1.151-0.026l-0.015,0.33h-0.047v0.187l-1.931-0.061l-0.048-0.036l-2.752-0.153v0.105l-1.906-0.107 v-0.122l-0.044-0.011l-0.015-0.168l-1.451-0.08l-0.12-0.124l-0.183-0.607l-0.047-0.017l-0.141,0.814l-0.012,0.012h-0.026 l-0.026-0.021l-0.021-0.064l-0.094,0.013l0.586-2.954l-0.072-0.036h-0.576l-0.54,2.834l-0.304-0.046l0.292-1.271l-0.146,0.15 l-0.293,0.102l-1.06-0.094l-0.015-0.014l-2.389-0.652l-0.097,0.448l-0.494-0.08l0.036-0.246l-0.012-0.012l-0.18-0.028l-0.103,0.554 l-1.574-0.315l0.013-0.034l-0.013-0.014l0.08-0.429l-1.147-0.869v-0.013l-0.262-0.156l-0.095,0.106l-4.704-1.436l0.105-0.46 l-5.245-1.007l-0.108,0.154l-1.15,0.456l-0.062-0.026l-0.13-0.172l-3.584-1.518l-0.062-0.108l-0.312-0.172l-0.036-0.05 l-4.624-2.608l-0.155-0.394l-12.106-8.234l-0.522-1.504l0.106-0.306l0.224-0.222l1.046,0.222l0.038,0.062l-0.012,0.066 l-0.048,0.038l-0.754-0.141l-0.328,0.095l-0.138,0.319l0.316,0.952l2.506,2.044l0.234,0.013l1.368-1.561l0.328-0.023l0.23,0.168 l0.102,0.277l3.778,2.424h0.034l12.95,8.67l1.74-1.964l0.146-0.754l-7.933-6.854l-0.186,0.271l-0.166-0.142l0.344-0.446 l-0.359-0.628l-2.648-1.846l0.034,0.058l-2.042-1.112l-0.035-0.046v-0.012l-5.611-3.422l-0.062-0.158l-0.884-0.73l-0.554-0.023 l-0.484-0.311l-0.012-0.037l-0.402-0.229l-0.004,0.058l-0.67-0.441l-0.024-0.048l-0.496-0.332l-0.11-0.536l-2.974-1.88l-0.79-1.479 l-0.218-0.109l-0.128,0.025l-0.612,1.232l2.152-12.244l1.908-1.269l-1.19-1.812L314.615,464.489L314.615,464.489z"/>
	<path fill="#B0AFA3" stroke="#5F5E58" stroke-miterlimit="10" d="M305.759,524.389l-3.122-5.844l1.222-1.764l-1.016-2.229 l-1.342-0.813h-0.72l-0.122-0.544l-0.084-0.047l-0.024-0.048l-0.392-0.266v-0.038l-0.024-0.032l-0.012-0.098l-0.048-0.05 l-0.128-0.024l-0.178,0.11l-0.254-0.024l-0.332,0.67l-0.106,0.015l-0.158-0.097l-0.01-0.155l0.024-0.036l0.012-0.267l-0.036-0.042 l-0.06-0.027l-0.202,0.088l-0.176-0.076l-0.06-0.36l-2.676-2.68l0.128-0.378l-2.968-3.316v-0.052l-0.082-0.094l-0.14-0.024 l-5.792-5.562h-0.026l-1.412-1.889l-0.66-0.228l-0.012-0.024l-0.188-0.138l-0.058-0.56l-0.728-0.467h-0.068l-0.156,0.072 l-0.024,0.036l-0.084,0.034l-0.01-0.022l-0.486-0.361l-0.022-0.064l-0.048-0.044l-0.07-0.023l-0.432-0.418l-0.022-0.104 l-0.472-0.306l-0.072-0.21l-1.006-0.648l-0.084-0.13l-0.068-0.024l-0.166-0.202l-0.292-0.062l-0.068-0.058l-0.024-0.118 l-0.038-0.048l-0.012-0.059l-0.414-0.306l-0.204,0.028l-0.474-0.48l-0.296-0.044l-0.036-0.06l0.012-0.024l-0.024-0.042v-0.022 l-0.108-0.13l-0.37-0.086l-0.12,0.048l-0.012,0.026h-0.162l-0.038-0.026l-0.096-0.228l-0.486-0.145l-0.122-0.105h-0.024 l-0.18-0.116l-0.022-0.042l-0.862-0.322l-0.026-0.052l-2.016-0.855l-0.026-0.036l-0.902-0.309l-0.06-0.098l-0.214-0.13 l-0.072-0.122l-0.274-0.082l-0.072,0.044l-0.06-0.012l-0.168-0.17l-0.384-0.095l-0.048-0.062l-0.096,0.014l-0.024-0.014h-0.012 l-0.048-0.024h-0.07l-0.022-0.012h-0.038l-0.07-0.063l-0.01-0.03l-0.29-0.143l-0.022-0.035l-0.16-0.074h-0.25l-0.12-0.061h-0.092 l-0.05-0.036h-0.012l-0.024-0.025v-0.026l-0.026-0.044l-0.068-0.023l-0.06,0.046h-0.024l-0.084-0.061v-0.025l-0.206-0.168 l-0.106-0.011l-0.19-0.191l-0.584-0.192v-0.084l-0.242-0.13h-0.048l-1.626-0.792l-0.036,0.036l0.012,0.034l-0.024,0.012 l-0.108-0.054l-0.012-0.038l0.012-0.022l-0.024-0.038h-0.022l-0.026-0.016h0.162l-0.106-0.048l-0.128-0.176l-0.46-0.108 l-0.094,0.164l-2.402-1.21l-0.01-0.024l-0.686-0.405l-0.036-0.053l-8.45-3.968l-0.108-0.178l0.012-0.024l-0.134-0.529h-0.022 l-0.01-0.103h-0.108l-0.01,0.103l-0.012,0.014l-0.036,0.196l-0.734,0.334l-0.862-0.28l0.05,0.11l-2.53-0.784l-0.022-0.036 l-4.246-0.854l-0.012-0.01l-3.51-0.16l-0.012-0.012l-1.538,0.084l-0.05,0.028h-0.152l-0.05,0.025l-1.738-0.025l-0.144,0.191 l-1.946-0.062l-0.022-0.015h-0.13l-0.026-0.012h-0.06l-0.01,0.012l-0.048,0.179l-0.708-0.068l-0.012-0.07h-0.258l-0.048,0.068 l-0.882-0.076l0.012-1.08l-1.198-0.044l-0.062-0.46h-0.198l0.024-0.848l-0.388-0.036l-0.01,0.012l-0.012,0.834l-0.048-0.012 l-0.098,0.024l-0.036,0.046l-0.92-0.059v-0.023l-0.142-0.013v0.036l-0.08-0.012v-0.012l-0.224,0.012v0.012l-0.092,0.013v-0.024 l-0.452,0.07l-0.036,0.134l-0.094,0.046h-0.154l-0.24,0.452l-0.036,0.01l-0.038,0.052v0.269l-2.972-0.561l0.048-0.262l-0.192-0.023 l-0.348-0.311l-0.222-0.012l-0.084-0.046l-0.022-0.046l-2.464-0.851l0.026-0.062l-0.014-0.074l-1.968-1.396v-0.062l-0.562-0.418 l1.188-81.802l118.33,1.972l-1.694,69.358l-24.482-0.473l-1.184,46.494l1.188,1.812l-1.904,1.271l-2.804,13.722l-0.072,0.068 l-0.012,0.048l0.024,0.106l0.204,0.144h0.038l0.024,0.026l1.89,0.254v0.023l-1.264-0.075l-0.008,0.016l-0.792-0.242l-0.18-0.198 h-0.012L305.759,524.389L305.759,524.389z"/>
	<path fill="#B0AFA3" stroke="#5F5E58" stroke-miterlimit="10" d="M97.881,371.445l34.248,20.208l7.962-10.305l27.572,11.971 l-0.122-7.628l-5.09-0.215l0.01-8.466l5.14-0.607l0.216-35.946l-6.376-0.246l-18.336-14.004l25.228-3.656l0.154-29.738 l-19.288-0.649l-0.752-7.108l75.976,1.791l-0.49,2.887l26.038,37.94l-5.672-4.35l-1.788-0.318l5.736,9.49l-0.202,61.218 l-25.592-0.06l-1.19,81.804l-3.634-2.974l-0.014-0.16l0.106-0.118l0.422-0.112l0.046,0.024l0.048,0.082l1.578-0.446l-0.024-0.05 l0.012-0.08l-0.024-0.038l-0.972,0.05l-0.012-0.025v-0.036l-0.034-0.04l-0.084-0.026l-0.048,0.026l-0.06,0.086l-0.832,0.196 l-0.118-0.042l-0.024-0.024l-0.306,0.024v-0.021l-0.214-0.023l-0.024-0.026l-0.994-0.158l-0.06-0.054l-0.19-0.04l-0.162,0.04 l-0.202-0.103l-0.048,0.017l-0.19-0.064l-0.06-0.069l-0.048-0.013l-0.048,0.013l-0.072-0.097v-0.012l-3.04-1.51l-0.076,0.012 l-0.06-0.08v-0.028l-2.474-0.819l-0.098,0.04l-0.08-0.028l-0.012-0.022v-0.01l-2.132-0.448l-0.012,0.026l-0.074,0.059l-0.096-0.013 l-0.036-0.023l-0.188,0.598l0.072,0.048l0.014,0.206l-0.058,0.106v0.107l0.072,0.106h0.06l0.048,0.084l2.68,1.388l0.024,0.038 l0.388,0.202l0.024,0.04l7.254,4.174l0.022,0.052l4.302,2.746l0.014-0.012l0.966,0.416l0.122,0.204l-0.154,0.502l-8.192-1.124 l0.012-0.012l-4.238-2.101l-0.01-0.036l-10.516-7.262l-0.06-0.306l0.106-0.225l1.86-0.54l0.154-0.208l-1.594-0.458l-0.13-0.13 l-0.012-0.296l-0.106-0.014l-0.31,0.17h-0.106l-0.034-0.036l-0.06-0.012l-0.024-0.072l-10.114-7.521l-0.154-0.025l-0.252-0.238 l-0.01-0.028l-0.062-0.056l-0.038-0.012l-0.034-0.036v-0.058l0.232-0.099l0.014-0.04l-0.014-0.118l0.396-1.161l-0.024-0.047 l-0.07-0.037l-0.332,0.411l-0.06,0.024l-0.01,0.118l-0.356,0.6l-0.15,0.094l-3.488-1.151l-0.024-0.046l-0.192-0.132l-0.166,0.035 l-0.036,0.04l-0.144,0.038h0.07l-2.544-0.025l-0.482-0.232l-0.16-0.191l-1.762-0.66l-0.024-0.028l-11.792-1.44l-0.048-0.04 l-2.774-0.529l-0.108,0.04l-1.36-0.437l-0.022,0.305l-0.24-0.095l-0.144-0.218l0.012-0.012l-0.074-0.084l-0.072-0.519l-0.118-0.086 l0.312-3.616l0.038-0.062l-0.012-0.224l2.082-3.71l0.012-0.511l-0.048-0.067l-0.576-0.086l-0.404,0.56l0.012,0.096l-0.602,1 l0.048,0.21l-1.106,1.324l0.026,0.198l-1.73,2.566l0.118,0.174l-0.708,1.914l-0.376-0.156l0.036-0.108l-0.07-0.046h-0.048 l-0.306-0.178l-0.07,0.021l-4.816-1.449l-0.01-0.038l-0.518-0.276l-0.07,0.048l-0.27-0.084l-0.06-0.122v-0.08l0.178-0.325v-0.08 l-0.142-0.166l-0.036-0.3l2.712-3.883l-0.176-0.248l-0.11-0.592l-0.79-0.313l-0.742-1.994l-0.26-0.222h-0.142l-0.198,0.13 l-0.308-0.106l-0.636-0.744l-0.66-0.153l-0.068-0.08l0.072-0.79l-0.06-0.118l-0.246-0.128l-0.07-0.152l0.046-0.21l0.06-0.08h0.084 l-0.026-0.288l-0.532-0.844v-0.456l0.104-0.212l-0.284-0.928l-1.122-0.796l-0.494-2.338l-0.352-0.028l-0.896-1.216l-0.598-0.236 l-0.178-0.528l-0.624-0.239l-0.918-1.372l-0.282,0.021l-0.06,0.108l0.252,1.069l-0.082,0.082l-0.352-0.012l-0.05,0.059l0.072,0.46 l-0.058,0.107l-0.166,0.059l-0.154-0.034l-0.092-0.12l0.012-0.475l0.176-0.283l0.012-0.398l-0.842-0.848v-0.178l-0.13-0.187 l0.012-0.186l0.21-0.181l-0.048-0.248l-0.162-0.197l-0.14-0.047l-0.284-0.426h-0.178l-0.13,0.179l-0.166,0.06l-0.492-0.272 l0.06-0.151l0.152-0.064l-0.152-0.31l0.06-0.07l-0.026-0.35l-0.186-0.19l-0.176,0.057l-0.282-0.221l0.06-0.562l-0.082-0.062 l-0.292,0.028l-0.202-0.246l0.084-0.768l-0.15-0.471l-0.248-0.188l0.036-0.082l-0.202-0.354l0.038-0.479l-0.188-0.272l-0.2-0.078 l-0.32-1l-0.624-0.354l-0.186-0.26v-0.738l-27.826-25.004l-0.072-0.318l-0.528-0.516l-3.486-0.738l-0.376-0.576l-0.532-0.186 l-0.364-0.4l-0.294-1.16l-10.162-8.374l-1.102-2.535l-1.348-0.587L97.881,371.445L97.881,371.445z"/>
	<path fill="#B0AFA3" stroke="#5F5E58" stroke-miterlimit="10" d="M148.441,285.039l-36.918-0.855l1.006-41.668l-13.628,0.802 l-0.124-8.14l-6.608,1.092l0.242-7.236l-8.434-11.022l2.354-23.414l4.844,1.034l0.154,0.186l16.108,3.654l0.542-0.328l6.174,1.534 l0.128,0.166v0.166l9.04,3.92l0.152,0.282l2.858,1.152l0.12,0.316l0.118,0.106l18.252-1.75l0.25-0.68l0.768-0.312l2.534,1.086 l0.542-0.062l0.104-0.092l-0.024-0.152l-0.19-0.24l0.084-0.128l0.144-0.07l0.646,0.128l0.07-0.034l0.01-0.07l0.776-0.524 l0.072-0.118l-0.19-0.59l-0.094-0.06l-0.186,0.012l-0.14-0.092l-0.048-0.154l-0.092-0.07l-0.06-0.154l0.072-0.21l1.232-0.36 l0.19-0.414l-0.014-0.096l0.06-0.132h0.062l0.092-0.116l0.202-0.014l0.092,0.048l0.356,0.95l0.834,0.506l0.316,0.026l0.038,0.034 l0.022,0.138l1.388,0.708l0.272,0.012l0.19,0.306l2.426,0.966l0.236,0.35l2.376,1.084l1.71-0.19l0.878-0.612l0.074-0.644 l0.036-0.026l0.096,0.046l0.228,0.502l-0.128,0.434l4.4,4.718l-0.718,0.564l0.424,3.306l7.602,5.416l0.21,0.014l1.302,1.034 l0.162-0.072l0.636,0.246l0.092,0.552l2.032,0.412l0.142-0.28l0.514-0.128l0.248,0.208l2.176,0.208l1.818-1.19l0.542-1.22 l10.908-4.784l0.024-0.174l0.128-0.06l0.286,0.038l0.166,0.256l0.092,0.06l0.118,0.012l0.13-0.118l3.34,0.318l0.198-0.096 l1.74,0.012l-1.706,70.992L148.441,285.039L148.441,285.039z"/>
	<path fill="#B0AFA3" stroke="#5F5E58" stroke-miterlimit="10" d="M338.913,209.905l-15.748,7.704l-1.771,72.214l-121.208-3.597 l1.706-70.994l2.216,0.434l0.104-0.024l0.036-0.048l0.096-0.048l2.228,0.194l2.438,2.392l1.202,0.278v0.024l0.868,0.24l0.012-0.06 l2.806,0.346l0.436-0.146l0.25,0.096l0.034-0.026l0.482,0.118l-0.034,0.2l2.882,0.666l0.34-0.156l0.258,0.06l0.048-0.166 l0.282,0.06l-0.024,0.106l0.822,0.44l0.356,0.484l4.166,0.372l0.06-0.022l0.036-0.038l1.36-0.036l0.014-0.026l3.27,0.29l0.18,0.296 l0.198,0.104l0.036,0.048l2.164,0.298l0.036-0.012l0.07,0.012l0.116-0.072l0.672,0.192l0.208-0.118l0.54,0.25h0.06l0.224,0.11 l0.434,0.01l0.258,0.142l0.026-0.026l0.166,0.026l0.024-0.026l0.13,0.026l0.012-0.036l0.142,0.024l0.012-0.05l0.246,0.038 l0.014-0.038l0.386,0.062l0.082,0.068l0.048-0.024l0.388,0.074l0.08,0.06l2.824,0.092l0.062,0.036l1.152,0.072l0.012-0.082 l0.996,0.062l0.024,0.024l0.39,0.084l0.036-0.106l2.408,0.022l0.026-0.104h0.14v0.09l0.248-0.01l0.036-0.048l0.248,0.01l0.05-0.104 l3.082-0.016l0.118-0.094l0.412-0.048l0.036-0.21l3.418-1.536l0.15,0.07l2.48-0.884l0.024-0.128l0.8-0.222l0.01-0.06l8.856-4.824 v-0.048l0.576-0.83l0.21-0.06l0.084-0.128l0.012-0.156l2.822-1.834l6.84-0.518l0.024-0.108l0.536-0.132l0.012-0.038l2.244-0.292 l0.176-0.436l0.414,0.152l-0.118,0.352l0.366,0.154l0.034,0.06l-0.034,0.082l0.034,0.07l0.636,0.192l1.692,1.798l13.066,0.43 l9.476-14.646l-0.284-0.94l0.974-2.496l5.508-1.056l1.204,0.356l1.58-0.226l3.458-6.302l1.678-0.192l0.106,0.122l0.014,0.046 l-0.014,0.07l-0.058,0.082l-1.072,0.37l-0.364,0.422l-0.144,0.824l0.08,0.012l-0.022,0.176l-0.062,0.014l0.048,0.718l0.726,0.798 l2.142,0.75l1.07,1.572l1.618,0.072l1.141-0.524l1.746-3.506l1.911-0.574l5.304,1.5l2.769,2.408l0.071,0.2l0.068,0.068l0.014,0.082 l3.23,2.838l0.632,0.048v0.046l-0.329,0.096l-0.356,0.966l1.161,2.226l0.568,0.06l0.229,0.224l0.248,0.722l-0.118,0.048 l-0.048,0.128h-0.012l-0.095,0.062l-0.024,0.166l-0.403,0.242l0.038,0.484l0.05-0.022l0.022-0.026h0.014l0.01-0.01l0.014,0.024 l-0.014,0.296l1.61,3.052h0.014l0.418,0.946l0.038,0.024l0.01,0.038l0.061,0.07l0.021,0.084l-0.035,0.13l0.025,0.048l0.466-0.222 l0.263,0.552l-0.424,0.2l0.06,0.048h0.274l0.213,0.12h0.412l0.146-0.072l-0.051-0.094l0.521-0.284l0.198,0.376l-0.034,0.584 L338.913,209.905L338.913,209.905z"/>
	<path fill="#B0AFA3" stroke="#5F5E58" stroke-miterlimit="10" d="M415.387,244.261l-0.508,46.771l-36.716-1.11l-0.021,0.614 l-31.319-2.54l-2.45,2.386l-22.973-0.568l1.776-72.206l20.044-9.796l-0.025,0.566l0.262,0.416v0.128l0.096,0.108v0.048l0.492,1.062 l-0.036,0.326l-0.78,0.224l-0.035,0.06l-1.379,0.206l-0.084,0.098h-0.107l-0.01,0.012l-0.18,0.058l-0.039,0.036l-0.045,0.31 l0.045,0.06l-0.134,0.626l-0.506,0.518l-0.206,0.06l-0.031-0.022l0.123,9.564l1.353-0.116l0.166,0.412l-1.246,0.422l0.502,1.506 l0.069-0.012l0.039,0.012l0.074,0.152l-0.039,0.084l-0.05,0.024l0.933,1.412l1.324-0.084l0.383,0.284l0.396,0.796l1.184,0.132 l0.996,0.834l0.096,1.348l0.931,0.856l1.821-1.832l-0.631-2.516l-0.236-0.014l-0.08-0.048l-0.13-0.224l-0.015-0.186l0.25-0.644 l-0.104-0.352l-0.096,0.048l-0.059-0.162l0.059-0.036l-0.715-1.328l-0.047,0.024l-0.119-0.178l0.091-0.034l-0.08-0.424 l-0.058-0.012l-0.028-0.424l0.084-0.01l0.792-1.838l-0.129-0.348l-0.285-0.026l0.178-1.034l0.764,0.07l0.291-1.176l-0.192-0.048 l-0.356-0.504l1.532-1.236l0.284,0.328h1.138l-0.034-0.338l0.078-0.012l-0.008-0.118l1.975-0.036l0.037,0.752l1.094-0.022 l0.623,0.776l0.481-0.446l0.521,0.622l-0.873,0.734l1.119,1.318l0.459-0.364l0.066,0.07l0.08-0.07l1.943,2.4l0.074,0.502 l0.73,0.612l0.061-0.094l-0.015-0.034l0.233-0.118l2.402,2.906l-0.211,0.166l0.045,0.06l0.131-0.06l0.869,1.022l0.473-0.376 l0.82,1.07l-0.031-0.006l-0.023,0.234l-0.354,0.272l0.01,0.122l3.744,4.516l-0.049,1.81l-0.551,0.664l-0.049,2.58l0.176,0.094 l0.053,0.14l-0.015,0.162l-0.084,0.14l-0.612,0.012l-1.754-0.874l-0.012,0.024l-0.082-0.024v-0.024l-2.396-0.134v0.036h-0.197 v-0.026l-4.538-1.79l-0.06,0.176l0.067,0.026l-0.026,0.068l-0.149-0.036l0.058-0.246l-0.22-0.014l-0.06,0.036l-0.328,1.194 l0.027,0.084l-0.012,0.048l-0.06,0.048l-0.058,0.13h-0.015l-0.134,0.262l0.154,0.578l1.109,0.792l0.714-0.492l0.19-0.012 l0.082,0.048l1.316,2.404l0.104-0.072l1.248,0.024l0.012-0.186l0.656,0.024l0.32,0.564v0.024l-0.068,0.05v0.068l-0.387,0.214 l1.141,2.01l1.376,0.616l0.832-0.224l1.763-1.726l0.071-1.27l0.252-0.272h2.231l1.23-1.19l1.026,0.026l0.292,0.328l2.951,0.082 l0.061-0.07v-0.128l0.068-0.062l0.072,0.026l0.105-0.07l6.84,0.422l1.686,1.876l1.559,0.336l1.334-0.59l0.964-1.868l-0.012-0.494 l0.042-0.06l0.036-0.012l1.036,0.6l1.457,0.074l2.824-2.006l1.267-0.008l0.804,0.708l0.67,2.258l0.683,0.672l5.199,0.306 l0.904-0.566l0.336-3.62l-0.12-0.094l-0.046-0.468l0.046-0.012l-0.034-0.234h-0.054l-0.034-0.308l0.21-0.06l0.013-0.138h0.046 l-0.024-0.06h0.046v-0.038l-0.078-0.08l-0.012-0.068l-0.14-0.07l0.038-0.07l0.021-0.882l0.106-0.012l0.027-0.53h0.152l0.022-0.552 l0.035-0.012l0.952,1.094l-0.042,0.648l1.242-0.952l0.072-0.238l-0.234-0.524v-0.048l0.13-0.106l0.128-0.268l0.322-0.268 l0.76-0.144l0.792-1.56l1.292-0.702l-0.021-0.11l0.056-0.118l0.296-0.224l0.126-0.01l0.061,0.034l4.025-3.22l0.23-0.024 l0.164-0.134l0.036-0.224l-0.104-0.048l0.068-0.236l0.048,0.038l0.056-0.168l0.046-0.05l0.042-0.01l0.022-0.024l0.234-0.012 l0.104,0.074l0.074,0.128v0.048l0.766-0.684L415.387,244.261L415.387,244.261z"/>
	<path fill="#B0AFA3" stroke="#5F5E58" stroke-miterlimit="10" d="M460.405,217.503l-2.028,16.726l14.088,10.738l56.218,7.724 l-0.518,39.434l-0.55-0.034l-0.052,2.021l-68.879-1.643l-0.208,0.106l-43.6-1.542l0.766-65.846l0.729-0.614v-0.036l0.742-0.206 l0.01-0.012l0.76-0.036l0.112,0.306l1.03,0.372l0.088-0.06l0.105,0.038v0.022l0.256,0.272h0.034l0.015-0.024l-0.059-0.4 l-0.027-0.036l0.027-0.096l-0.054-0.096h-0.026l-0.044-0.226l0.013-0.036l0.359-0.134l0.034-0.036h0.072l0.025-0.024l5.646-1.59 l-0.208-0.858l0.916-0.236l0.088,0.498l0.096,0.072l0.292,0.012l0.218-0.19l0.416-1.302l1.148-0.588l-0.012-0.388l0.458-0.092 l0.033,0.752l0.284,0.096l2.114-0.99l1.226,0.098l0.038,0.024l4.475,0.084l0.136,0.214h0.286l-0.054,2.74l0.622,0.084v-0.14 l0.023-0.026l0.024-0.386h0.199l-0.012-0.048h0.022v-0.2l-0.034-0.022l0.058-0.542h-0.036l0.036-0.154h0.034l-0.021-0.28 l0.235-0.012l-0.176-0.084l-0.016-0.098l0.04-0.144l0.128-0.14l0.012-0.036l0.034-0.034l0.012-0.048l0.29-0.252l1.006-0.148 l0.036,0.038l7.366,0.156l-0.04-0.294h2.754v-0.35h0.328v0.338l0.764-0.024l0.389-0.274l0.151-0.314l0.042-2.586L460.405,217.503 L460.405,217.503z"/>
	<path fill="#B0AFA3" stroke="#5F5E58" stroke-miterlimit="10" d="M380.291,180.139l16.362-16.596l-47.116-46.76l3.338-3.248 l0.292,0.238l0.972,0.024l1.84-0.848l2.871,2.672l0.035,0.364l-0.107,0.234l-0.039,0.024l-0.105,0.204l-0.094,0.07l-0.053,0.348 l0.279,0.514l1.102,0.758l0.008,0.024l3.254,3.382l0.458-0.474l0.038-0.012l1.998,1.996l0.273-0.272l0.008-0.036l0.029-0.024 l0.012,0.012h0.023l1.624,1.646l0.166-0.186l0.024,0.022l0.014-0.022l0.256,0.248l0.014,0.048l2.834-2.908l-0.174-0.2l-0.025,0.01 l-0.446-0.456l0.624-0.636l0.964,0.538l-0.168,0.154l-0.286-0.284l-0.142,0.144l0.132,0.14l0.01-0.012l0.062,0.048l0.042-0.036 l0.01,0.012l0.022-0.012l5.646,4.1l-0.012,0.06l0.366-0.364l0.447,0.3l0.258,0.428l-0.012,0.048l-3.352,3.422l3.486,3.2l0.14,0.392 l2.319,2.056l0.174-0.084l1.793,0.672l0.035,0.152l4.194-1.032l2.544-2.494l-0.117-0.21v-0.288l0.14-0.212l0.212-0.128l0.283,0.01 l10.427,7l4.605,0.362l0.036-0.026l1.024-0.012l0.428,0.568l-0.023,0.036l0.132,0.118l1.534-0.432l0.006-0.19l0.328-0.06 l0.058,0.024l0.682,1.586l0.2,0.142l2.718-0.962l1.15,1.166l1.03,0.216l2.184-0.602l0.128,0.06l0.106,0.142l-0.057,0.47l-4.55,2.8 h-0.235l-0.173,0.096l0.013,0.048l-0.124,0.128l-0.162,0.036l-0.596,0.664l0.779,0.364l0.034-0.058l4.88,1.954l23.416-8.162 l0.012-0.012l0.064-0.012l0.13,0.108l0.019,0.094l-0.118,0.19l-0.053-0.06l-16.43,8.94l-0.078,0.234l-0.342,0.178l-0.024,0.062 l-0.233,0.128l-0.026,0.07l-0.846,0.468l-0.188,0.388l0.013,0.082l3.494,2.036v0.094l-0.143,0.27l1.094,0.558l0.059-0.012 l0.554,0.152l2.256-1.18l0.036-0.068l-0.416-1.254l0.059-0.058l0.052-0.012l0.784,1.174l0.54-0.368l0.071,0.14l-0.04,0.094 l0.061,0.142l0.038-0.01l0.021,0.01l0.286-0.166l-0.12-0.222l0.376-0.2l0.176,0.33l1.29-0.694l0.219,0.354l-0.024,0.128 l-0.06,0.036v0.07l-1.011,0.542l0.141,0.258l2.25-0.942l0.065,0.012l0.095,0.2l-0.059,0.068l0.13,0.214l0.08-0.012l0.094,0.152 l-0.021,0.154l-2.076,1.2l0.152,0.26l0.988-0.542l0.271,0.094l0.182,0.386l-0.054,0.024l-0.012,0.106l-1.206,0.646l0.06,0.038 l0.188,0.366l-0.366,0.21l-0.152-0.272l-0.315,0.188l0.126,0.246l-0.044,0.024l0.01,0.048l-0.612,0.338l1.712,0.48l4.584-1.636 l5.097,1.046l0.132,0.2l5.624,1.156l0.696-1.054l0.357-0.144l0.508,0.072l0.08,0.094l0.072,0.024l0.536-0.73l0.308,0.198 l-0.55,0.79l0.132,2.956l0.248,0.494l2.172,0.9l8.254-1.18l0.246-1.186l-0.363-0.038l0.224-6.364l0.021-0.036l0.038-0.022 l0.658,0.046l-1.903,66.738l-8.774-0.952l-0.014-0.4h-1.469l-1.222,0.602l-0.884-0.108l-0.932-0.708l0.31-0.232l-0.218-0.422 l-0.022-0.85l0.562-0.836l-0.225-0.316l0.99-0.364l0.708,0.084l0.09-2.834l0.078-0.092l0.106-0.012l-0.036-2.294h-0.082v-0.062 l-0.059,0.014v-0.154h0.166l0.059-0.54l0.926,0.014l-0.034-0.588l-0.067-0.108l-0.061-1.292l-0.02-0.012l-0.088-0.354l-0.419-0.29 l-7.89-0.194l-0.036,0.026l-1.176-0.084l-0.526-0.49l-0.226-0.066l-0.046-0.072l-2.893,0.168l-0.016-0.012l-0.126-0.238 l-0.186-0.144l-0.41,0.034l-0.034,0.026l-0.6,0.01l-0.038-0.068l-0.416-0.098l-0.21,0.058l-0.097,0.104l-0.104,0.55l-0.042,0.01 l-0.176,1.036l-0.026,0.026l0.048,0.846l0.212,0.27l-0.17,1.084l0.334,0.424l-0.12,0.082l-0.072-0.07l-0.548,0.426l0.187,0.528 l-0.08,0.506l-0.678,0.614l-0.154,1.082l-0.798-0.118l-0.466,0.424l-0.263-0.352l0.013-0.154l-0.519-0.696l-0.2-0.036l-0.025,0.14 l-1.796-0.272l0.014,0.026l-0.326,1.546l-0.07,0.05l-0.953-0.134l-0.013-0.04l-1.069-0.106l-2.893,1.896l-0.208,0.87l-5.132,2.646 v0.024l-0.068,0.012v-0.012l-2.231,1.658l-5.132-0.026l-3.952-2.97v0.036l-0.853-0.142l-0.071-0.048v-0.036l-2.223,0.164v0.038 l-0.584,0.176l-0.016-0.036l-1.312,0.71l0.015,0.022l-0.059,0.038l-0.033-0.014l-0.391,1.166l-0.899,0.71l-0.047,0.178h0.036 l-0.012,0.07h-0.023l-0.011,3.96l-0.368,0.376l-0.023,0.306l-0.229,0.254l0.179,0.186l-0.296,0.32l-0.051,0.788l-0.506,0.842 l-1.448,0.466l-0.329,0.316l-0.322-0.316v0.01l-0.042-0.01l-0.28,0.27l0.01,0.012l-0.048,0.048l-0.012-0.012l-0.446,0.398 l-1.224,0.048v-0.012l-1.944-1.694l-0.716,0.716l-0.718-0.706l0.058-0.068l-2.906-2.872l-0.252-0.024l-0.252,0.254l-2.098,0.012 l-0.34-0.376l-0.012,0.07l-0.141,0.138l-0.224,0.018l-0.164-0.096l-0.032-0.068l-3.584,3.544l0.064,0.304l1.107,1.164l0.021,0.174 l-0.352,0.468l-4.518-0.024l-0.416-0.286l-0.026-0.062l-0.094-0.06l-0.022-0.06l-2.293-2.048v-0.026l-0.194-0.108l-0.101,0.014 l-0.021-0.07l-0.166-0.096l-0.049,0.048l-0.053,0.01l-2.765-2.688l-0.476,0.504l-0.012,0.168l-0.156,0.012l-0.543,0.542v0.21 l-0.197-0.012l-0.471,0.292l-0.562-0.094l-0.317-0.398l-0.041-0.366l0.349-0.528l-1-0.986l-1.364,1.35h-0.061l-0.067-0.048 l-0.015-0.084l1.32-1.426l-1.472-1.468l0.862-0.894l-0.87-0.846l-0.362,0.272l-0.818,0.176l-1.045-0.46l0.151-0.14l-1.012-1.012 l-0.446,0.446l-1.456-1.47h-0.04l-0.35-0.352l-0.1-0.036l-0.236,0.236h-0.09l-0.379-0.28l-0.037-0.398l0.07-0.152l0.352-0.262 h0.107l0.282,0.284l0.284,0.012l0.023-0.024l-1.224-1.228l-0.168-1.172l0.351-0.56l-1.015-0.976l-1.272,1.27l-1.465-1.468 l-0.586,0.612l-0.146,0.046l-0.084-0.084l-0.016-0.096l1.041-1.06l-0.416-0.39l-0.291,0.26l-0.28,0.086l-0.472-0.11l-0.334-0.454 l0.067-0.558l0.088-0.106v-0.036l0.224-0.214l-0.823-0.918l1.198-1.224l-1.914-1.894l-1.646,0.826l-0.904-0.944l-0.023,0.026 l-0.458,0.036l-0.272-0.516L380.291,180.139L380.291,180.139z"/>
	<path fill="#B0AFA3" stroke="#5F5E58" stroke-miterlimit="10" d="M350.896,203.297l0.668-1.752l-3.957-6.928l-0.723-0.084 l-0.748,0.358l-0.05,0.28l0.269,0.36l0.01,0.06l0.074,0.092v0.024l-0.024,0.024l-0.05,0.012l-0.066-0.036l-0.527-1.054l0.012-0.062 l-1.038-0.562v-0.036l-0.052-0.048l-0.008,0.024l-0.181-0.12l-0.062,0.012l-0.022-0.038l0.013-0.024l0.071-0.036h0.026l0.068-0.038 h0.033l0.038,0.038h0.022l0.084-0.068l0.021-3.656l-0.584-0.784l-0.622-0.11l-0.1,0.062l0.1,0.072l-0.016,0.074l-0.652,0.278 l-1.69-0.338l-0.014-0.074l0.024-0.046l0.159-0.084l0.109-2.716l-0.365-0.824l-0.529-0.272l-0.023,0.012l-0.072,0.19l-0.334,0.222 l-1.535-0.446l-0.012-0.036l0.012-0.048h0.599l0.12-0.06l0.12-4.154l-1.952-2.178l-0.25-0.096l-1.132,0.278v0.118l0.036,0.082 l-0.133,0.456l0.049,0.26l-0.061,0.108l-0.048,0.026h-0.036l-0.023-0.012l-0.096-1.056l0.071-0.144l-0.01-0.096l0.407-1.01 l-0.762-0.67l-0.016,0.006h-0.05l-0.358,0.194l-0.012-0.022l0.096-0.086h0.024l0.048-0.036l0.025-0.06l0.049-0.024h0.023v-0.036 l0.036-0.048v-0.022l-0.42-0.526h-0.015l-0.129,0.156l-0.104,0.048l-0.078,0.132l-0.13,0.072l-0.025-0.024l0.258-0.274v-0.01 l0.109-0.17l-0.518-1.726l0.06-0.022l-4.888-9.356l-2.227-1.022l-0.071-0.234l0.071-0.336l0.049-0.062l1.804-0.646l0.368-17.762 l-4.824-4.964l-0.186-0.06l-0.633,0.348l-0.373-0.024l-1.353-1.258l-0.013-0.074l-0.25-0.144l-0.084-0.144v-0.026l-0.047-0.06 h-0.013l-0.012-0.084l-0.048-0.06l-0.094-0.01l-0.072-0.048l-0.012-0.036l0.012-0.094l-0.07-0.024l-0.012-0.06l-0.676-0.568h-0.07 l-0.023,0.022h-0.195l-0.07-0.038l14.319-13.912l10.443-2.61l4.35-4.424l47.118,46.762l-45.448,40.33L350.896,203.297 L350.896,203.297z"/>
	<path fill="#B0AFA3" stroke="#5F5E58" stroke-miterlimit="10" d="M460.703,207.553l1.609-56.782l-0.657-0.048l0.958,0.062 l-0.074,0.998l1.598,0.418l1.646,4.766l-0.034,0.106l0.822,1.36l0.2,0.092l0.294,0.496l0.344,0.178l0.126-0.306l-0.364-4.092 l1.632-0.166l0.013-0.01l1.6-0.154l-0.012-0.13l0.47-0.048l0.658,1.352l0.062,0.026l0.132,0.202l-0.164-1.704l-0.096-0.094h-0.025 l-0.244-0.24v-0.01l-0.296-0.376l-0.011,0.01l-0.046-0.068l-0.012-0.084l-1.842-2.376l-1.48-0.612l-0.06-0.074l-2.462-1.056 l-0.013-0.024l-4.542-2.124l-0.004-9.184l-0.025-0.048l-0.562-0.214l0.236-0.574l0.067-0.024l24.923,10.444l0.216-7.446 l0.182-0.092l15.326,6.572l-0.408,15.126l0.408,0.094l0.065-0.068l2.692,0.422l-0.03,0.482l-0.033,0.038v0.116l0.056,0.076 l1.1,0.156l0.376-7.794l0.612,0.024l0.012-0.024l1.576-0.348l0.834,0.336l0.1,0.19l0.637,0.034l-0.183,5.844h-0.128l-0.038,0.026 l0.208,5.244l1.345,0.18l0.031-0.13l3.03-0.308l0.166-0.306l-0.012-0.048l0.198-0.166l0.17-1.914l0.038-0.048v-0.026h-0.026v-0.438 h0.19l0.023-0.372l0.078-0.046l0.25-1.284l0.189-0.214l0.566-0.036l0.122-0.884h0.046v-0.092l0.178,0.012l0.013-0.038l-0.024-0.048 l0.024-0.06l-0.152-0.012l0.012-0.528l0.106,0.01l0.023-0.034l-0.178-1.108h-0.012l-0.122-0.288h-0.048l0.014-0.07l-0.014-0.048 l-0.104-0.116l-0.302-1.464l-0.014-0.01l-0.012-0.142l-0.021-0.024v-0.024l-0.042-0.036l0.158-1.036l0.47-0.448l0.754-0.014 l0.074-0.036l0.038,0.024l0.34-0.084l0.19-0.706l0.113-0.11l0.044-0.012l0.748-2.05l0.645-0.146l0.012-0.024l0.59-0.3l0.876,0.096 l0.259,0.224l1.012,8.482l0.611,0.084l0.095-0.096l0.062-0.226l0.132-0.06l0.082-0.104l0.046-0.41l-0.025-0.024l-0.044-0.104 l0.094-2.57l-0.024-0.048l0.024-1.252l0.012-0.024l-0.06-3.3l-0.044-0.016l0.07-1.032l0.275-0.226l0.572,0.01l0.034,0.024 l0.764,0.046l0.124,0.122l0.024,0.07l0.021,0.01h0.014l0.013-0.01l-0.013-0.294l0.166-0.118v-0.568l-0.084-0.024l-0.01-0.294h0.082 v-0.038h-0.048v-0.128l-0.21-0.012l0.012-9.032l0.849-0.012v3.106h0.08v0.104h0.04v-0.036h0.021v0.104h-0.021v-0.036l-0.04,0.012 v0.722h0.04v-0.022h0.021v0.092h-0.021v-0.022h-0.04v0.714h0.008v-0.024h0.036v0.092h-0.026v-0.018h-0.034v0.716h0.034v-0.024 h0.026v0.096h-0.026v-0.026h-0.034v0.716h0.034v-0.012h0.026v0.082h-0.026v-0.026h-0.034v0.716h0.034v-0.022h0.026l-0.015,0.092 h-0.021l0.01-0.026h-0.034v0.716h0.024v-0.01h0.036v0.08h-0.026v-0.02h-0.034l-0.012,1.128l0.065,0.012v0.198l-0.084,0.012 l0.026,1.83l0.094,0.13l0.836,0.206l4.086-2.348l-0.075-1.116l0.094-0.07l0.054-5.188l-1.042-0.316l-0.025,0.024l-0.929-0.234 l0.015-0.048l-0.07-0.034l0.01-0.026l-0.094-0.036l0.021-0.08l-0.09-0.142l0.057-2.962l0.14-0.14l2.518,0.716l-1.306,112.844 l-57.979-8.29l-12.326-10.174L460.703,207.553L460.703,207.553z"/>
	<path fill="#B0AFA3" stroke="#5F5E58" stroke-miterlimit="10" d="M592.063,128.969l-0.351,137.792l-63.191-1.07l1.476-125.842 l21.854,7.034l0.079-7.516l0.072-0.086l3.688,0.062l0.046,0.024l0.082,0.132l-0.038,2.824l0.023,0.012v0.118l-0.023,0.012 l-0.01,0.646l0.033,0.012l-0.012,0.13h-0.021l-0.024,0.87h0.024v0.128h-0.024l-0.038,1.8h0.038v0.13h-0.038l-0.021,1.858h0.021 v0.13h-0.021l-0.013,0.858h0.034l-0.012,0.118h-0.022l-0.071,4.092l0.241,0.036v-0.024h0.116v0.082h0.977l0.012,0.07h0.844v-0.036 h0.042v-0.136h0.046v-0.118l0.176-0.038l0.015-0.34l0.83,0.012v0.482h0.132v0.024l0.082,0.012v0.178l0.08-0.012l0.023-0.062 l0.038-0.01l0.024-0.038l0.023-2.998l-0.023-0.012h-0.154l0.012-0.22l0.133-0.014l0.246-2.222l-0.036-0.022l0.092-0.708 l-0.082-0.104l0.012-0.624l0.082-0.118l-0.046-1.484l0.07-0.094l0.012-0.752l-0.07-0.094l0.032-0.684l0.066-0.06l-0.013-0.822 l-0.071-0.07l0.042-0.67l0.67,0.024l0.058,0.074l0.012,0.542l-0.084,0.104l-0.012,0.822l0.072,0.048v0.648l-0.084,0.092v0.802 l0.06,0.068v0.612l-0.063,0.092l-0.013,0.822l0.059,0.06l0.012,0.588l-0.082,0.128l-0.012,0.882l0.036,0.036l-0.061,1.528 l0.095,0.046l1.319-0.046l0.03-0.014l0.632,0.026l0.026-0.012l0.151,0.022l0.048-0.022l0.896,0.046l0.082-0.062l0.212,0.012 l0.038,0.026l0.012,0.024l0.729,0.024l0.044-0.024l0.12,0.036l0.052,0.048l0.036,0.096h0.458v0.328l1.558,0.014l0.024,1.938 l0.229-0.048l0.032-0.026l1.15,0.048l0.014-1.68l1.02,0.038l0.015,0.352l-0.082,0.012v0.092l0.27-0.022l0.219-0.19l-0.042-0.046 l0.264-1.414l0.14-0.084l0.45,0.048l0.176,0.234l0.202,0.108l0.042-0.024l0.042-0.058l0.012-0.28l-0.128,0.022l-0.023-0.038 l0.231-0.48l-0.08-0.048l-0.063,0.142l-0.13-0.05l0.025-0.092l-0.178-0.106l0.236-0.458l-0.044-0.038l0.126-0.27l-0.389-0.176 l-0.012,0.104h-0.034l0.034-0.74l-0.056-0.036l0.962-1.8l2.058,1.118l0.517-0.026l-0.022-0.01l-0.021-0.048l-0.055-0.024h-0.036 l-0.304-0.44l-0.082-0.038l-0.025-0.104l-0.646-0.314l1.284-3.456l1.094,0.54l0.164-0.334l-0.614-0.87l0.45-0.34l0.55,0.776 l0.234,0.108l0.932-2.012l0.425,0.21l0.01-0.06l-0.01-0.024l0.985-1.612l0.265-0.108l1.123,0.214l0.318-0.226l0.214-0.52 l2.433-1.828l0.02,0.012l0.236-0.144l-0.141-0.198l0.895-0.672l-1.788-2.364l2.598-1.87l0.284,0.4l-0.313,0.2l1.086,1.48 l2.397-1.822l0.305,0.39l0.478-0.622l-0.038-0.012l2.234-1.816l0.729,0.204l0.216,0.192L592.063,128.969L592.063,128.969z"/>
	<path fill="#B0AFA3" stroke="#5F5E58" stroke-miterlimit="10" d="M591.721,266.747l0.347-137.784l0.073-0.048l0.032-0.06 l0.061-0.036l0.229,0.12l0.044-0.012l0.108-0.156l0.1,0.012l0.034-0.038l0.048-0.01l0.046,0.01l0.046-0.01l0.051-0.448l0.042-0.036 v-0.012l0.848-0.71l0.021-0.102l0.143-0.048l0.01-0.036l4.402-2.21l0.012-0.038l1.208-0.418l0.096-0.118l0.834-0.392l0.059-0.072 l2.613-1.316l0.013-0.022l0.193-0.098h0.062l5.442-2.532l0.031-0.048l0.305-0.06l0.035-0.036l1.91-0.662l0.024-0.024l0.918-0.072 l0.504,0.3l0.108,2.642l0.315,0.384l0.12,0.012l0.271,0.214l0.206,0.022l0.153-0.06l0.198,0.11l0.178-0.118l0.564,0.072 l-0.013-0.012l-0.035,0.142l1.062,0.238l0.122-0.106l0.166-0.56l-0.014-0.048l0.136-0.448l1.574-0.218l0.664-0.912l3.646-0.356 l0.36,0.24l0.264,0.552l0.024,1.194l1.153,2.12l-0.09,0.122l-0.023,0.128l0.178,0.482l1.008,0.444l0.072-0.012l0.658-1.28 l2.728,1.258l-0.6,1.266l2.006,1.59l0.47-0.012l1.702-1.89l1.104-0.224l0.345,0.166l1.126-0.06l0.01-0.012l7.124,1.712l0.876,0.926 l0.474,2.614l1.42,1.094l5.452,0.782l0.044,0.048l0.036,0.012l0.524,1.02v0.082l-0.024,0.048l0.354,0.628l1.518,0.422l0.282-0.048 l0.355-0.296l0.212-0.724l0.084-0.048l0.101,0.012l0.458,1.242l0.8,0.06l1.394-0.562l0.141-0.41l0.044-0.034h0.065l0.299,0.454 l-0.013,0.048l0.236,0.222l0.012,0.07l1.5,0.708l0.101,0.246l0.281,0.036l0.166,0.204l0.381,0.166l0.438-0.024l1.128-1l0.008-0.238 l-1.262-2.718l0.038-0.062l3.556-0.614l2.282,0.778l0.804,0.872l0.679,0.206l0.058,0.084v0.092l0.036,0.038l0.932-0.792 l-0.34-0.436l1.024-0.932l0.313,0.316l0.188-0.144l0.146-0.52l0.454-0.216l0.07-0.146l0.214-0.118l0.191-0.334v-0.07l0.022-0.012 l0.026-0.038l0.336-0.166l0.033-0.06v-0.094h-0.033l-0.07-0.048l0.042-0.046l-0.218-0.142l0.144-0.222l0.143,0.092l0.075-0.104 l0.106,0.082l0.042-0.068l0.24,0.166l-0.022-0.174l0.246-0.086l0.082,0.298l0.048,0.022l2.055-1.876l0.084-0.314l0.14-0.072h0.196 l1.275-1.02l-0.203-0.602l-0.353,0.116l0.26,0.822l-2.212,0.708l-0.023-0.048l-0.752,0.234l-0.097-0.258l-0.021,0.012l-0.082-0.296 l0.05-0.012l-0.067-0.186l-0.038,0.012l-0.013-0.05l-0.317,0.094l-0.162-0.566l0.282-0.084l0.025-0.024l0.013-0.038l0.128-0.022 l0.016,0.01l0.31-0.082l-0.012-0.036v0.04l0.012-0.012l0.08,0.012v0.024l0.174-0.046v-0.024l-0.021-0.024l0.012-0.012l0.034-0.012 l0.04,0.012l0.012,0.012l0.009,0.024l0.119-0.038v-0.036l0.118-0.036l0.036,0.024l0.366-0.106v-0.08l0.058-0.024l0.053,0.06 l0.178-0.048v-0.012h-0.015l0.015-0.074l0.021-0.012h0.062l0.01,0.048h0.01l-0.01-0.024l0.022-0.024l0.111-0.024l0.04,0.024 l0.42-0.128l-0.023-0.086l0.012-0.01h0.05l0.022,0.01v0.012l0.023,0.036l0.024-0.012v-0.024l0.114-0.038v-0.024l0.033-0.022h0.046 l0.022,0.01l0.014-0.01h0.048l0.04-0.026h0.036l0.024,0.026l0.224-0.1l-0.012-0.026v-0.024l0.021-0.024h0.062l0.021,0.048 l0.172-0.048l-0.023-0.06l0.056-0.038h0.036l0.061,0.048l0.067-0.01l0.015-0.048l0.119-0.038l0.188,0.6l-0.038,0.01l0.1,0.296 l2.452-1.384l0.032,0.012l1.816-0.848l0.989,0.336l0.774,0.832l0.036,0.188l0.378-0.072l2.228-1.844l0.128-0.014l0.036-0.022 l0.322-0.572l0.106-0.038l0.048,0.012l0.046-0.012l0.494-0.952l0.076-0.012l0.023-0.022l0.012-0.038l-0.023-0.07v0.008l0.012-0.168 l0.116-0.12l0.654,0.038l0.012-0.014l0.616,0.872l2.766-0.612l0.024-0.06l2.63-0.528l-0.912,128.93l-24.382,16.718L591.721,266.747 L591.721,266.747z"/>
</g>
</svg>
