<?xml version="1.0" encoding="utf-8"?>
<!-- Generator: Adobe Illustrator 16.0.0, SVG Export Plug-In . SVG Version: 6.00 Build 0)  -->
<!DOCTYPE svg PUBLIC "-//W3C//DTD SVG 1.1//EN" "http://www.w3.org/Graphics/SVG/1.1/DTD/svg11.dtd">
<svg version="1.1" xmlns="http://www.w3.org/2000/svg" xmlns:xlink="http://www.w3.org/1999/xlink" x="0px" y="0px" width="640px" height="556px" viewBox="55.061 18.531 320 278" enable-background="new 55.061 18.531 320 278" xml:space="preserve">
    <g id="Layer_1">
      <polygon fill="#908f86" points="514.035,244.45 513.838,74.167 512.151,73.137 506.805,73.525 505.247,74.478 504.323,73.513  500.89,75.018 500.137,74.694 465.551,84.558 453.915,81.353 454.109,79.341 450.229,77.055 447.816,78.172 438.097,72.428  437.42,72.504 428.899,66.354 407.76,77.185 406.937,76.708 406.801,76.491 401.641,76.155 401.305,76.308 393.938,72.297  370.93,70.614 370.711,70.362 370.265,70.338 368.312,72.197 368.014,71.862 367.438,71.646 360.992,76.432 359.571,75.608  357.431,76.007 357.982,77.5 357.261,77.954 356.907,77.824 356.612,77.954 356.037,77.189 353.414,77.06 351.877,75.872  349.506,75.578 348.93,73.779 348.358,73.32 343.325,72.632 342.831,73.437 341.561,72.956 341.755,71.944 340.432,71.426  340.068,72.231 339.421,71.949 338.768,69.666 337.042,69.414 336.459,70.327 335.578,70.22 335.396,70.815 334.03,70.649  333.979,69.067 325.226,72.607 325.201,72.919 324.607,72.919 323.531,73.648 323.031,73.59 322.015,74.259 321.698,74.836  321.482,74.59 320.25,75.524 319.709,74.765 319.839,74.654 319.688,74.495 318.431,75.388 319.318,76.548 318.877,76.883  318.91,76.973 318.521,77.379 318.409,77.28 318.06,77.609 318.083,77.686 317.184,78.357 316.813,78.175 316.66,78.21  316.092,78.869 316.216,79.175 315.914,79.052 315.479,80.032 315.081,79.616 314.863,79.774 315.228,80.262 315.151,80.438  314.522,80.145 314.088,81.045 314.193,81.098 314.075,81.309 313.98,81.269 313.782,81.657 314.27,81.932 314.411,82.256  314.634,82.38 314.646,82.444 314.334,82.509 314.258,82.639 313.493,82.191 313.059,82.209 312.807,82.481 312.876,82.715  312.812,82.857 312.835,83.151 312.771,83.292 312.781,83.698 312.4,83.757 312.241,83.952 312.15,84.392 311.216,85.122  310.975,85.08 310.882,84.957 310.876,84.346 309.883,84.364 309.892,84.11 309.866,84.064 307.419,84.07 307.387,86.288  305.652,86.306 305.305,86.065 305.428,79.008 305.364,78.949 303.593,78.931 303.458,79.02 303.423,82.765 291.262,78.837  291.156,78.937 291.133,80.349 291.256,80.525 292.215,80.818 292.208,84.117 289.962,85.298 289.662,84.987 289.599,79.542  289.189,79.53 289.263,84.729 288.457,84.747 288.363,84.817 288.322,89.228 288.056,89.316 287.786,89.276 287.764,88.688  287.663,88.546 287.435,85.07 286.27,85.129 286.293,82.587 286.179,82.587 285.546,86.545 284.787,86.61 284.594,86.475  284.558,83 284.24,82.988 284.24,83.046 284.329,83.158 284.295,86.728 284.505,86.722 284.976,88.861 284.723,90.02  284.529,90.007 283.949,92.179 283.949,90.432 283.278,90.457 283.29,90.78 283.648,90.774 283.674,92.286 283.544,92.315  283.533,92.534 282.191,92.435 281.798,92.188 281.827,86.979 281.098,86.849 281.109,86.091 280.768,86.091 280.762,86.874  279.939,86.962 279.887,90.455 279.686,90.732 279.427,90.79 279.222,90.614 279.169,90.328 277.65,90.098 277.818,82.482  270.26,79.195 270.166,82.828 257.71,77.537 257.431,78.125 257.685,78.243 257.354,82.207 257.813,83.082 261.985,84.776  263.367,86.5 261.151,86.735 261.319,88.787 261.182,88.911 259.719,85.216 258.842,84.969 258.86,84.692 258.337,84.68  258.284,88.173 258.107,88.401 254.032,88.849 253.202,88.302 253.079,87.056 252.861,86.691 252.362,86.597 251.615,87.156  247.129,85.815 244.129,86.851 243.338,86.598 243.62,86.468 243.551,86.321 243.706,86.238 243.655,86.139 244.491,85.68  244.386,85.497 244.25,85.474 243.765,85.721 243.722,85.609 244.69,84.909 244.531,84.609 243.444,85.05 243.356,84.957  243.844,84.669 243.903,84.559 243.779,84.376 242.763,84.876 242.639,84.723 241.062,85.521 240.828,85.439 240.791,85.55  240.161,85.105 240.225,84.957 238.513,83.917 238.746,83.494 247.584,78.607 247.526,78.524 236.153,82.515 235.217,82.157  235.182,81.805 236.622,79.443 230.982,76.838 230.091,77.921 228.907,78.404 222.551,74.722 222.273,74.768 222.21,74.898  222.21,75.028 222.268,75.139 220.334,76.732 218.884,76.886 218.852,76.798 218.028,76.496 217.91,76.538 214.977,73.768  216.858,71.833 216.852,71.661 216.747,71.514 216.6,71.465 216.404,71.524 216.114,71.795 213.445,69.914 213.385,69.771  213.462,69.69 212.975,69.401 212.584,69.79 212.862,70.132 211.498,71.532 211.406,71.433 211.371,71.463 210.46,70.562  210.319,70.698 206.935,67.897 206.843,67.621 207.025,67.232 205.479,65.743 204.474,66.083 204.09,66.031 203.722,65.685  204.284,63.691 205.675,62.272 206.729,62.048 206.801,62.23 208.782,62.442 209.532,62.013 209.583,61.812 209.754,61.724  209.931,61.406 211.388,60.419 212.116,60.443 214.323,63.906 215.241,64.377 215.881,64.313 216.946,63.689 216.811,63.156  218.646,60.614 221.276,60.109 221.76,60.238 221.668,61.321 221.728,61.479 221.821,61.497 221.821,61.65 221.692,61.755  221.615,66.71 220.95,67.293 220.716,68.258 221.368,68.804 222.851,68.879 224.079,68.015 225.708,64.816 225.538,64.399  224.392,64.004 223.938,63.487 222.545,63.309 222.263,61.874 222.119,61.764 222.204,61.417 222.357,61.387 222.375,60.969  222.75,60.488 223.167,60.617 223.598,60.564 225.65,58.717 227.473,59.828 231.575,59.499 233.048,54.377 232.535,53.261  232.294,53.054 232.277,52.906 232.154,52.801 232.001,52.771 231.779,52.854 231.757,52.925 231.098,53.243 230.763,53.777  230.639,53.824 229.729,55.206 228.922,55.643 217.981,48.911 217.995,48.818 217.867,48.595 217.613,48.548 217.399,48.678  217.368,48.749 213.759,48.62 209.496,43.582 209.642,43.47 209.708,43.294 209.695,43.141 209.596,42.999 209.442,42.929  209.271,42.934 208.221,41.205 204.026,38.471 197.533,24.25 196.099,23.75 195.388,22.297 187.942,24.125 186.483,23.853  182.291,25.306 181.491,26.152 179.862,26.64 178.057,28.386 177.569,30.638 177.986,31.197 177.739,31.82 174.508,34.887  172.967,34.952 172.884,35.105 172.961,35.493 172.89,35.758 172.779,35.881 172.861,36.088 171.945,41.339 172.191,41.574  171.686,45.324 171.492,45.429 171.656,45.528 171.01,50.269 168.287,51.797 167.617,52.744 167.834,53.068 168.939,53.156  169.334,54.704 167.783,55.228 167.817,55.381 168.551,55.323 168.675,55.87 169.017,56.286 169.011,56.756 168.505,57.027  169.116,57.862 169.493,57.844 169.646,58.28 169.224,59.044 169.381,59.621 172.222,61.46 173.444,61.008 173.914,61.048  174.197,60.812 175.379,60.767 176.332,61.603 177.39,65.117 176.831,65.093 176.872,65.176 177.854,65.457 179.037,66.639  180.484,66.874 181.048,66.581 181.49,66.939 181.946,69.761 181.435,70.132 181.395,70.69 182.693,74.012 186.093,77.329  186.263,77.305 186.504,77.582 186.615,78.141 186.386,78.659 186.985,78.07 187.461,78.175 188.091,78.799 188.121,79.033  188.343,78.928 191.755,81.786 190.933,91.543 191.908,91.82 195.583,99.458 195.777,98.988 196.059,98.858 196.265,98.858  196.641,99.105 196.854,101.98 197.641,102.256 197.97,102.149 198.122,102.267 198.064,104.03 199.162,104.29 199.379,104.142  199.478,104.142 199.778,104.424 199.695,106.164 199.721,106.228 200.802,107.263 200.942,106.911 201.314,106.775  203.233,109.827 203.089,110.737 202.876,110.896 203.17,111.554 203.565,111.52 203.959,111.902 204.776,111.492 205.754,112.445  205.149,113.05 205.544,113.52 205.379,113.72 205.426,114.072 205.599,114.25 205.91,114.203 206.047,114.062 206.256,114.274  205.737,114.804 205.751,114.88 205.81,114.898 206.134,114.563 206.886,115.305 207.521,114.664 208.027,115.176 207.851,115.499  207.886,115.922 208.556,116.669 208.456,116.663 208.309,116.533 208.231,116.539 208.002,116.787 208.014,116.956  208.114,117.045 208.261,117.086 208.409,116.993 209.31,117.838 209.498,117.68 210.021,118.149 209.981,118.203 210.064,118.296  210.575,118.444 210.946,118.326 211.038,118.243 211.475,118.678 211.11,119.079 212.416,120.415 212.28,120.596 212.286,120.937  212.474,121.108 212.785,121.097 213.604,120.274 216.891,123.226 218.942,123.122 219.332,122.756 218.713,122.133  220.23,120.369 222.183,120.323 223.665,121.615 223.611,121.714 223.976,122.032 224.335,121.65 225.159,122.496 225.817,122.536  226.288,122.131 226.464,122.325 226.646,122.118 226.84,122.195 227.429,121.86 227.634,121.535 227.634,121.159 227.893,121.018  228.102,118.343 228.584,117.75 228.661,117.432 230.014,116.839 230.807,116.851 230.931,116.956 231.113,117.003  231.269,116.969 232.398,117.526 233.228,118.627 235.5,118.709 240.861,115.157 240.774,115.045 240.909,114.898 241.98,115.027  242.127,114.981 242.297,114.123 243.116,114.252 243.121,114.188 243.22,114.194 243.214,114.277 243.447,114.606 243.417,114.7  243.529,114.941 243.871,114.655 244.252,114.661 244.329,114.12 244.662,113.826 244.69,113.474 244.608,113.281 244.943,113.038  244.82,112.863 244.902,112.329 244.778,112.122 244.979,110.963 245.719,111.003 245.919,111.292 246.85,110.986 252.466,111.579  252.653,112.813 252.389,112.818 252.317,112.854 252.308,114.331 252.212,114.383 252.177,115.776 251.612,115.763  251.331,115.916 251.437,116.074 251.251,116.25 251.127,116.645 251.273,117.14 251.116,117.251 251.626,117.598 252.335,117.521  252.606,117.314 253.348,117.367 253.324,118.925 253.2,119.083 251.175,119.136 251.175,119.254 248.311,119.342 248.3,119.465  248.109,119.431 248.074,119.314 246.945,119.108 246.711,119.274 246.693,119.462 246.91,119.813 246.887,120.008  246.735,120.138 246.701,120.248 246.743,120.348 246.044,120.335 246.084,118.942 245.879,118.918 245.879,119.053  243.038,119.089 242.556,119.777 241.574,120.297 241.386,120.309 241.297,120.238 241.251,120.038 241.421,119.82  242.168,119.531 242.544,119.133 242.544,118.939 241.668,118.797 241.38,118.945 241.15,118.939 240.074,119.403 240.032,119.516  240.615,119.575 240.786,119.704 240.833,119.892 240.733,120.068 240.627,120.115 240.615,120.003 240.169,120.133  240.228,120.562 237.176,121.432 237.222,121.62 236.988,121.62 236.878,121.778 236.555,121.248 235.597,121.471 235.039,122.059  234.832,121.924 234.567,122.024 234.597,122.212 232.421,124.01 232.309,124.029 232.133,124.158 232.1,124.312 231.194,124.906  230.966,125.422 230.624,125.47 230.317,125.875 230.449,126.146 229.942,126.58 229.937,126.368 229.53,125.816 229.39,125.797  229.373,126.038 229.296,126.033 229.14,129.477 228.94,129.659 226.093,129.5 225.899,129.305 225.429,127.847 225.218,127.67  224.424,127.612 223.388,128.393 222.454,128.587 221.647,128.245 221.571,128.304 221.495,129.01 221.054,129.763  220.318,129.945 219.666,129.651 218.993,128.847 215.553,128.63 215.359,128.788 213.977,128.724 213.789,128.528 213.2,128.522  212.571,129.158 211.583,129.14 211.354,129.297 211.271,129.933 210.288,130.833 209.786,130.833 209.517,130.67 208.846,129.645  209.023,129.552 208.868,129.269 208.534,129.251 208.526,129.351 207.898,129.338 207.185,128.051 207.002,128.076  206.773,128.288 206.599,128.282 206.186,127.877 206.162,127.67 206.509,126.818 211.389,128.178 211.431,128.095  211.431,128.001 211.367,127.919 211.283,127.889 211.317,126.612 211.575,126.337 211.61,125.361 209.894,123.263  210.002,122.927 207.316,119.821 207.492,119.539 207.147,119.285 207.03,119.35 206.425,119.044 206.412,119.044 206.059,118.68  205.896,118.833 205.479,118.316 205.867,117.94 205.619,117.657 205.515,117.732 205.268,117.434 204.509,117.352  204.497,117.124 203.391,117.105 203.398,117.488 202.934,117.464 202.78,117.293 202.132,117.833 202.261,118.104  201.426,120.751 201.932,121.593 201.826,122.087 201.963,122.374 202.104,122.438 202.267,123.291 201.38,124.121  201.092,123.821 200.969,123.191 200.444,122.733 200.039,122.68 199.91,122.591 199.755,122.268 199.092,122.038 198.858,122.115  198.752,122.081 197.771,115.766 198.103,115.555 198.291,114.903 199.678,114.478 197.097,110.137 197.361,109.967  197.485,109.608 196.72,108.15 196.702,107.49 193.672,104.833 190.239,103.928 189.545,104.092 188.345,105.98 187.422,106.051  185.435,104.917 185.259,104.669 185.371,103.722 186.083,103.411 185.947,103.151 185.423,103.105 185.1,103.234 182.683,106.292  178.879,106.64 173.587,115.917 167.697,115.57 167.231,115.088 167.197,114.866 166.45,114.459 166.385,114.305 161.139,114.616  156.287,118.414 142.057,119.814 141.838,119.579 132.378,118.309 131.083,117.021 121.787,117.104 121.417,117.604  114.496,118.387 112.061,116.905 111.585,115.831 111.655,115.212 111.804,115 112.396,115.005 112.437,114.946 112.391,114.8  112.262,114.687 111.694,114.641 111.625,114.693 111.625,114.783 111.518,114.871 111.349,114.76 111.518,114.612 109.36,112.331  109.465,112.007 108.925,111.323 109.048,111.752 108.261,112.092 106.622,111.763 106.387,111.375 104.723,110.727  103.819,109.668 103.8,109.592 104.012,109.204 103.972,109.099 104.012,109.021 104.047,109.045 104.312,108.587 104.282,108.51  104.394,108.309 104.569,108.263 104.653,108.108 104.365,107.961 103.437,109.49 91.757,111.612 90.334,110.884 89.817,109.413  87.589,109.107 86.929,107.86 82.925,107.932 81.86,106.833 78.121,107.391 77.297,106.515 75.885,106.462 75.397,105.886  74.174,105.762 73.657,105.303 54.818,102.239 53.165,103.393 52.696,103.357 52.107,102.758 35.296,102.424 12.979,122.157  8.685,135.085 8.985,135.68 7.59,136.043 7.59,136.785 9.042,136.75 11.484,140.032 11.967,140.12 12.913,141.037 11.29,148.382  13.096,146.653 13.56,147.083 14.783,145.865 16,145.812 22.687,158.496 24.463,159.378 26.858,168.276 53.66,186.059  53.835,186.548 53.971,186.618 53.866,186.718 53.872,186.886 68.268,196.271 68.685,196.193 68.714,196.664 69.502,197.11  70.146,198.354 70.523,198.261 70.687,198.708 80.679,207.595 81.132,207.583 82.261,208.252 82.414,208.577 85.29,210.236  84.697,210.828 83.82,214.392 82.638,214.397 82.938,216.181 83.533,216.77 83.833,219.146 80.874,218.262 79.397,219.75  78.809,221.533 77.334,222.428 73.781,221.545 73.781,222.144 79.115,224.201 72.792,228.524 -13.854,153.534 -13.93,153.746  63.058,226.541 66.11,226.623 71.453,231.353 72.635,231.646 72.935,232.24 78.068,234.476 77.51,235.717 83.303,239.304  84.295,249.716 16.526,271.165 16.292,270.988 16.057,271.036 16.038,271.381 9.616,273.463 9.499,273.898 9.934,274.216  10.323,275.1 10.899,275.476 11.386,275.31 11.334,274.94 10.811,274.822 10.446,274.187 10.499,273.953 47.482,262.093  47.852,262.139 86.899,249.514 87.665,248.525 87.667,248.525 88.053,247.987 97.955,249.054 98.242,250.267 98.766,250.601  99.695,250.43 102.166,248.613 104.152,250.084 101.252,271.613 98.538,275.775 97.109,275.481 94.952,277.267 92.604,283.801  91.128,284.696 90.245,286.177 90.258,290.327 90.846,290.923 90.852,292.705 90.265,293.3 88.229,304.569 87.388,304.958  87.147,305.517 87.323,306.722 86.182,307.753 77.443,306.229 77.237,305.822 76.713,306.076 75.966,305.91 76,306.445  86.804,308.321 87.646,309.022 88.241,309.022 88.829,308.722 90.288,309.402 91.041,310.397 90.318,311.68 90.318,312.274  89.731,312.866 90.073,316.007 92.025,316.985 104.593,389.829 105.274,390.011 106.098,393.133 105.003,395.139 105.115,396.661  105.667,397.168 105.497,401.579 106.274,402.96 106.309,403.661 514.038,403.661 514.038,244.45 514.035,244.45  "/>
      <g>
        <path fill="#908f86" d="M-51.579-49.695l0.487,0.241l0.512,1.609l-0.158,0.254l0.436,4.23l-0.17,0.077l-0.118,0.312l0.5,1.412 l-0.053,0.136l-0.317,0.058l-0.071-0.164l-0.1-0.076l-0.194,0.175l-0.019,0.17l0.094,0.094l-0.077,0.153l-0.564-0.182 l-0.195,0.034l-0.059-0.176l-0.147-0.046l-0.071-0.229l-0.776,0.059l-0.047,0.388l-0.283,0.394l0.041,0.612l-0.594,0.663 l-0.105,0.336l-0.777,0.524l-0.147,0.258l-0.337,0.212l-0.164,0.012l-0.206-1.11l-0.212-0.1l-0.188-0.383l-0.212,0.159h-0.064 l-0.013-0.1l-0.041-0.024l-0.123-0.005l-0.218-0.243l0.169-0.47l-0.247,0.212l-0.071,0.013l-0.386-0.642l0.195-0.906l0.293-0.229 l0.153-0.47l0.529-0.118l0.223-1.175l0.147-0.194l0.182-0.053l0.73-1.728l-0.253-0.488l-0.193,0.089l-0.106-0.2l-0.212-0.142 l-0.107-0.838l0.294-0.728l-0.1-0.247l0.077-0.265l-0.147-0.019l-0.1-0.228l0.078-0.148l-0.158-0.129l0.1-0.734l-0.1-0.118 l0.023-0.242l0.118-0.089l-0.008-0.221l-0.118-0.093l0.358-1.123l0.2,0.024l0.129-0.093l0.147-0.365l0.124-0.023l0.105,0.206 l0.158-0.26l0.064,0.013l0.035,0.082l0.194,0.013l0.111,0.176l0.142-0.407l0.229,0.118l0.524,1.159l0.476,0.395l0.052-0.165 l0.176,0.059L-51.579-49.695L-51.579-49.695z"/>
        <path fill="#908f86" d="M-55.454-35.825l-0.135-0.158l-0.111-0.435l-0.217,0.058l-0.13-0.046l-0.036-0.799l0.135-0.018 l0.654-0.541l0.182-0.006l0.147-0.206l0.33,0.052l-0.024,1.188l-0.094,0.034l-0.052,0.43l-0.248,0.287l-0.153,0.006l-0.089-0.183 L-55.454-35.825L-55.454-35.825z"/>
        <path fill="#908f86" d="M504.453,28.828l-0.117-0.047l-0.235,0.058l-0.182-0.158v-0.064l0.087-0.04l0.021-0.047l-0.016-0.053 l-0.153-0.136l-0.233-0.005l-0.112-0.064l0.433-2.659l0.628-0.766l0.096-0.476l0.246-0.14l0.059,0.005l0.094,0.112l-0.205,0.706 l0.141,0.148l0.729-0.042l0.153,0.133l0.07,0.207l0.065,0.006l0.036,0.053l-0.09,1.054l-0.118,0.105l-0.109,0.253l-0.401,0.315 l0.012,0.199l-0.265,0.371l0.065,0.153l0.093,0.03l0.048,0.053l-0.069,0.289l-0.042,0.047h-0.13l-0.035,0.046l-0.064,0.03 l-0.054,0.071l-0.123,0.024l-0.218,0.23H504.453L504.453,28.828z"/>
        <path fill="#908f86" d="M510.081,12.909l0.7,0.83l-0.312,0.882l0.194,0.817l-1.129,2.093l-0.7,0.065l0.377-3.646L510.081,12.909 L510.081,12.909z"/>
        <path fill="#908f86" d="M498.467,17.354l-0.688-0.154l-0.188-0.218l-0.953-0.087l-0.199-0.518l0.218-0.495l0.169-0.064 l-0.028-1.101l0.332-0.046l1.312,0.789l0.221,0.376l0.036,0.325l1.017,0.892l-0.229,0.547l-0.228,0.158L498.467,17.354 L498.467,17.354z"/>
        <path fill="#908f86" d="M-3.905-40.841l-0.101-0.064l-0.046-0.1l-0.277-0.042l-0.235-0.324l0.377-1.529l-0.209-0.874l0.059-0.278 l0.158-0.034l0.7,0.87l-0.123,2.265l-0.148,0.094L-3.905-40.841L-3.905-40.841z"/>
        <path fill="#908f86" d="M-7.339-39.458l-0.471-0.271l-0.124,0.012L-8.116-39.6l-0.452-0.772l0.465-0.82l0.104-0.025l0.123,0.183 l0.383,0.193l0.077,0.1l0.229-0.012l0.164,0.093l0.146,0.377l-0.083,0.334l0.046,0.07v0.194l-0.229,0.183L-7.339-39.458 L-7.339-39.458z"/>
        <path fill="#908f86" d="M-3.789-44.633l0.019-0.182l0.099-0.164l0.124-0.052l0.165,0.082l0.183,0.312l-0.111,0.463l-0.269,0.089 l-0.089-0.03l-0.112-0.225L-3.789-44.633L-3.789-44.633z"/>
        <path fill="#908f86" d="M-4.699-46.286l0.141-0.376l0.277-0.031l0.092,0.059l0.083,0.241l-0.064,0.259l-0.299,0.105l-0.165-0.035 L-4.699-46.286L-4.699-46.286z"/>
        <path fill="#908f86" d="M514.038-28.144l-7.158,6.898l-0.514,0.064l-0.451,0.441l-1.171,0.429l-0.247-0.206l-2.279,0.205 l-0.622,1.388l-0.33,0.293l-0.37-0.24l-1.417,0.021l-0.324-0.41l-0.493-0.041l-0.519,0.282l-0.575-0.218l-0.807,0.265l-1.468-0.17 l-0.128,0.882l-0.778,0.54l-2.554-0.129l-5.882,5.71l1.229,6.158l0.822,1.11l1.118,0.295l1.105-0.518l1.446,0.917l0.33,0.012 l1.099-1.459l1.705-0.576l4.812,1.439l0.293-0.083l3.704,1.212l0.808,1l0.037,7.802l-4.431,6.086l-5.19,1.218l-0.064-0.052 l-0.035-0.334l-0.165-0.099l-0.473,0.223l-0.083,0.445l-0.723,0.388l-0.665,1.441l0.213,0.277l0.527,0.247l0.261,0.699 l0.258,0.183l0.065,0.407l-0.259,0.552l-0.488,0.135l-0.371,0.542l-1.929,1.094l-1.564-0.141l-0.991,0.869l-1.234-0.417 l-0.342,0.423l1.191,7.164l-0.51,0.911l0.34,2.948l0.17,0.223l-1.025,12.974l-6.046,3.097l-3.17,4.111l0.03,0.47l-1.106,0.635 l0.016,0.429l-1.092,1.493l-0.493,0.013l-8.13-6.01l-3.088,1.018l-1.008-0.16l-0.152-0.963l-0.472,0.388l-2.183-1.087 l-7.478,0.324l-22.327-11.536l-0.588,0.194l-0.156-0.018l-0.087-0.053l-4.587,2.544l-0.206-0.164l-0.195-0.377l-2.23-0.929 l-0.565-1.405l-0.171-0.07l-4.186,1.18l-0.391-0.107l-0.507-0.688l-0.279-0.064l-0.123,0.142l-1.576-0.364l-4.925,3.676 l-1.365,5.669l-0.688,0.571l-0.229-0.035l-0.306-0.346l0.028-0.741l-0.058-0.041l-0.07,0.024l-0.953,1.141l-0.276-0.046 l-0.154-0.158l-0.027-0.154l-0.076-0.046l-0.083,0.053l-0.225,1.594l0.418,1.447l-0.488,0.342l-0.465,1.189l-5.079,0.235 l-0.686-0.306l-0.232-0.318l-0.014-0.276l-0.515-0.57l-0.313-0.066l-0.217-0.181l-0.029-0.201l-0.076-0.041l-0.076,0.041 l0.334,1.286l-0.059,0.2l-0.358,0.293l-0.364,1.112l-0.306,0.312l-0.194-0.124l-0.022-2.063l-0.366-0.112l-0.271,0.165 l-0.534,1.107l0.853,7.757l-0.094,0.129l-0.136-0.024l-0.124-0.527l0.229-0.871l-0.687-2.136l-0.229-0.111l-0.483,0.064 l0.006,2.124l-0.116,0.071l-1.75-0.34l-0.164-0.2l0.007-2.682l-0.172-0.129l-3.404,0.695l-1.071,0.992l1.229,4.858l-0.053,0.141 l-2.854,0.077l-0.845-1.363l0.679,1.751l3.076-0.035v0.235l-3.157,0.077l-0.065-0.158l-0.336,0.064l-0.55-1.475l0.183-0.148 l-0.012-0.129l-0.271,0.147l-0.077-0.277l-0.575,0.053l-0.259-0.817l-0.764-0.024l-0.47,0.84l-0.246,0.077l-0.053,0.676 l-1.193,1.169l0.479,1.089l-0.091,0.47l-0.557,0.206l-0.391-0.324l-0.114-0.653l0.178-0.218l-0.23-0.093l-0.166-1l0.261-0.829 l-0.472-1.364l-0.753,0.093l-0.429-2.921l-0.359-0.423l-0.571,0.164l0.518,6.396l-0.341-0.129l-1.604-6.27l-0.946,0.222 l-0.342-1.388l0.277-0.083l-0.26-0.981l-0.312,0.065l-0.74-3.234l0.117-0.176l-0.636-2.181l-0.718-0.142l-0.376,0.089 l-0.305,0.364l-0.151,1.87l0.376,0.488l-0.075,0.259l-0.429-0.229l-0.301-1.287l0.629-1.806l-0.99,0.005l-1.221,1.188l0.065,1.717 l3.311,4.528l-0.101,1.064l1.082,2.459l-0.111,0.188l-0.4,0.118v0.3l-0.323,0.206l-1.566-0.042l-0.491,0.613l-0.285,1.259 l-0.124,0.006l-0.307-4.75l-0.293,0.035l-0.023,0.389l-0.564,0.042l0.032,0.346l-1.421,0.195l-0.27-0.389l0.042-4.711 l-0.343-0.201l-1.064-0.034l-0.053-0.142l-0.659,0.176l-0.17,4.934l-0.117,0.153l-0.241,0.094l-0.018-0.129l-0.247-0.013 l-0.012,0.218l-0.505-0.076l0.053-0.195l-0.83-0.142l-0.329,0.111l0.135,4.975l-0.199,0.295l0.394,0.082l-0.117,0.271 l-16.377-3.282l0.04-0.341l1.076-0.441l0.359,0.065l-0.083-0.2l0.103-0.4l0.435-0.283l1.889-13.333l-0.246-0.623l-0.664-0.298 l-1.818,12.708l-0.076-0.407l1.334-5.411l-0.204-0.364l-1.172-0.129l-0.151,0.17l-1.971,6.839l-0.194,0.024l-0.364-0.142 l-0.159,0.194l-0.376-0.235l0.106-0.259l-0.388-0.219l-0.106-0.147l0.195-0.376l-0.154-0.064l-0.288,0.44l-0.13-0.105l0.653-1.24 l-2.371-1.211l-0.281,0.429l-7.369-3.487l2.688-2.829l0.334,0.312l1.136-1.287l-2.223-1.025l-4.334,3.218l-1.849-0.872 l-0.443,0.364l-0.419-0.229l-0.031-0.523l-5.895-2.792l0.207-3.005l-0.188-0.117l-0.89,0.089l-0.03-0.142l-6.711,1.519 l-0.312-0.118l-0.571,0.182l-0.494,0.495l-3.71,0.312l-0.391,0.469l-3.556,0.389l-0.117-0.093l-0.194-0.646l-5.839,0.195 l-4.581-3.1l-0.129-0.312l0.223-0.577l-0.794-0.546l-0.03-0.111l-0.192-0.065l-1.582,2.412l-0.195-0.118l-0.467,0.677 l-0.211-0.129l2.081-3.194l-0.641,0.259l-0.411-0.253l-0.113,0.158l-0.407-0.271l0.124-0.183l-0.149-0.094l0.261-0.406l-1.7-0.806 l-0.468,0.712l0.092,0.059l-1.993,2.928l-0.325-0.206l2.399-3.706l-1.285-0.846l0.049-0.459l0.182-0.265l-0.059-0.035 l-0.092,0.089l-0.1,0.03l-0.117-0.03l-0.036-0.059l-0.006-0.052l-0.128-0.072l-0.03-0.088l-0.146-0.071l0.246-0.388l0.043,0.03 l0.096-0.142l-0.024-0.03l0.077-0.13l-0.512-0.282l-0.188,0.201l-0.106,0.012l-1.065-0.767l-0.093,0.03l-0.193-0.1l-0.048,0.077 l-0.653-0.384l-0.081,0.024l-0.248,0.259l-0.559-0.375l-0.063-0.124l0.417-0.854l-0.14-0.077l-0.088,0.153l-0.559-0.346 l0.136-0.218l-0.488-0.33l-0.108,0.165l0.038,0.04l-0.399,0.564l-0.43-0.294l0.395-0.594l-0.152-0.083l-0.907,1.348l-0.158-0.112 l-0.447,0.617l-0.611-0.416l0.182-0.277l-0.129-0.085l-0.047,0.059l0.042,0.047l-0.136,0.198l-0.142-0.099l-0.118,0.193 l0.112,0.083l-0.112,0.153l-0.183-0.111l-0.398,0.583l-0.077-0.053l-0.018,0.03l-0.079-0.077l-0.029-0.158l0.316-0.481 l-0.122-0.083l-0.772,1.023l-0.096-0.077l0.006-0.029l-0.124-0.083l-0.034,0.03l-0.065-0.059l0.589-1.134l-0.118-0.088 l-0.323,0.487l-0.082,0.019l-0.042,0.035l-0.118-0.071l0.007-0.024l-0.064-0.052l0.424-0.642l-0.136-0.07l0.065-0.118l0.14,0.088 l0.027-0.024l-0.059-0.046l0.108-0.16l-0.788-0.587l0.535-0.888l-0.782-0.547l-0.091-0.37l-0.621-0.343l-0.041,0.013l-0.329,0.47 l-0.1,0.029l-0.065-0.046l-0.418,0.647l-0.182-0.129l0.395-0.571l-2.047-1.435l0.034-0.482l-0.274-0.48l-0.412,0.622l-0.229-0.142 l1.135-1.434l-0.505-0.771v-0.313l-0.207-0.283l-0.224-1.099l-0.107-0.088l-0.048,0.077l-0.159-0.118l0.061-0.092l-3.658-2.394 l-0.07,0.058l-0.236-0.13l-1.59,4.42h-0.095l-0.106-0.2l1.809-4.781l-0.246-0.223l-1.835,4.315l-1.275,0.059l0.005-0.136h-0.312 l-0.026,0.13l-3.421,0.2l-0.063,0.195L254.943,24.3v-8.238l-0.43-0.642l0.171,0.707l-0.194,0.523l-0.353,0.324l-0.234,5.704 l0.335,0.272l0.252-0.241l0.131,0.258l-0.577,0.723l-0.559,6.504l-1.205-0.064l0.128-5.027l0.883-0.088l0.094-2.422l-3.28-0.17 l-0.631,0.353l0.049,3.168l-0.248,0.006l0.029-2.999h-0.558l0.022,1.981h-0.646l-0.007-0.546l-0.436,0.006l-0.111,0.753 l-0.788-0.035l-0.034,2.064l-0.165,0.201l-0.054,2.881l-0.529,0.129l-0.547-0.2l-0.139-4.235l-0.141,4.324l-0.13,0.194 l-1.041-0.105l-1.163,0.946l0.338,1.293l-0.782-0.823l0.076-1.312l-0.194-0.364l-0.322-0.194l-0.289,0.323l-3.816-0.348 l-0.358-0.288l-0.065-0.53l0.259-0.147l-0.27-0.182l-0.248-4.886l-1.652,1.475l0.904,9.172l-0.489,0.676l-0.959-0.024 l-2.375-1.352l0.077-0.364l-3.817-2.193l-1.089-2.058l-0.134,0.024l0.041,0.206l-0.077,0.223l-0.235-0.041l-0.153-0.247 l-0.328,0.223l-0.359-0.012l-0.395,0.7l0.16,0.111l0.153-0.218l0.705,0.441l-0.364,0.57l-10.145-6.468l-0.417,0.759l-0.235-0.1 l0.337-0.634l-0.053-0.266l-13.014-8.958l-0.412,0.306l-0.512,0.111l-0.7-0.153l-0.582-0.718l0.241-0.571l-0.941-5.95l0.154-0.259 l0.128-1.345l-0.253-0.283l-0.292-0.093l-0.194,0.093l-0.131,0.459l-0.287,0.265l-0.653,0.153l-0.987-0.219l-2.834,0.841 l-0.493-0.276l-0.013-0.153l0.089-0.099l1.036-0.029l1.918-0.995l1.352-1.7l-0.547-0.618l-0.711-0.188l-2.264,1.206l-3.423-0.241 l-3.824-2.082l-3.652,1.993l-0.201-0.071l-0.105-0.129l0.089-0.164l0.071-0.013l0.188,0.106l0.071-0.129l-0.089-0.455 l-1.958-2.183l-0.793-0.271l-0.605,0.712l-0.176,0.04l-0.158-0.07l-0.059-0.129l0.864-1.013l-3.158-6.598l-0.136-0.046 l-0.158,0.253h-0.047l0.153-0.581l-1.658-1.104l-0.659-0.012l-0.188,0.136l-0.187,1.357l-0.077,0.042l-0.212-0.006l-0.136-0.118 l-0.123-0.428l-1.576-0.899l-6.551,0.417l-0.259,0.407l-3.54-1.265l-1.088,0.229l-2.463-0.552l-0.583-0.454l-6.927-0.488 L141.19-18.878l-3.605-0.535l-1.742-1.247h-0.376l-0.771-0.37l-0.553-0.006l-0.194,0.369l-0.03,0.007l0.053-0.223h-1l-0.047,1.27 l0.158,0.006l-0.012,0.165l-0.059,0.083l-0.083,0.041h-0.111l-0.141-0.153l-0.053-0.401l-8.904-6.067l-9.136-0.335l-5.955-6.574 l-4.797-1.16l-1.347,1.018l-0.794,0.052l-1.715-1.734l-0.229-1.252l-0.858-1.199h-0.376l-0.083,0.082l-0.117,0.013l-0.129-0.048 l-0.094-0.105l-0.035-0.142l0.024-0.099l-1.773-0.871l-2.954,0.817l-0.66-0.464l-0.328-0.018l-0.464,0.2l-0.271-0.071 l-1.207-1.394l-1.117-0.318l-1.733,0.981l-0.005,0.423l-1.506,1.941l-0.546-0.311l-0.454,0.234l-0.611-0.258l-3.683,2.557 l-6.139-0.105l-2.048-2.104l-1.305,0.38l-2.24-0.792l-0.599-0.812l-0.976-0.307l-0.136-0.228l-0.047-0.423l-2.591-1.616 l-0.077-0.3l-0.735-0.33l-0.617,0.012l-0.147,0.177l-0.189,0.046l-0.211-0.071l-0.077-0.207l-0.388,0.03l-0.078,0.177 l-0.146,0.046l-0.078-0.077l-0.024-0.099l-2.541,0.306l-1.063,1.1l0.066,0.189l-2.182,0.717L56.4-37.11l-6.809,3.634l-4.828,0.293 l-0.923-0.711l-0.564,0.753l-6.673-5.623l-3.205-0.207l-0.806,0.382l-1.889,4.316l0.617,1.311l-0.153,0.695l-1.019,0.329 l-0.312,0.665l-3.046-0.599l-0.66,0.459l-0.694-0.459l0.037-1.253l-0.141-0.277l-0.371,0.069l-0.152-0.83l-0.371-0.446 l-0.299-0.136l-0.905,0.326l-0.07,0.277l1.571,8.097l-1.953,2.73l-0.469,0.194l-1,1.247l-0.158,0.906l-0.671,0.13l-0.61,0.558 l-0.571-0.271l-0.188-1.312l-0.241-0.235l-0.723,0.481L17.853-21l-1.706,0.524l-1.24-0.753l-0.077-0.265l-0.777-0.317 l-0.176,0.141l-0.228,4.994l-1.252,0.983l-0.746-0.093l-0.812,0.446l-0.578-0.141l-0.07,0.382l-0.429,0.599l-1.394,0.382 l-0.312-0.164l-0.229-0.323l-0.03-0.481l-0.335-0.166l-0.288-0.511l0.1-0.707l-0.4-0.181l-1.07,0.429l-0.342-0.306l0.025-0.529 l-1.94-3.821l-0.018-0.846L3.262-22.1l-0.317-0.065l-0.183-0.158l1.188-3.481l-0.683-0.671l-0.052-0.353l0.471-0.946l-0.201-0.284 l-0.487-0.019l-0.677-0.817l-0.135-1.11l-0.746-0.336l-0.383-1.265l1.453-5.787l-0.342-0.487L1.38-37.674l-0.357-0.123l3.576-9.04 L4.01-47.361l-0.059-0.182l0.147-0.142l0.283,0.177l0.194-0.165l-0.041-0.463l-0.123-0.089l-0.035,0.117l-0.353-0.035 l-0.281-0.481l0.253-0.553l-0.722-0.415l-0.023-0.54l-0.33-0.194l-0.222-0.629l-0.441-0.325l-0.358-1.086l-0.29-0.254 l-0.186-1.218l-0.235-0.236L1.012-54.13l-0.268,0.263l0.104,0.247l-0.824,0.594h-0.594l-0.595-0.293l-0.359-1.546l-0.259-0.182 l-0.253,0.019l-0.324,0.228l-0.606-0.807l0.812-1.036l0.106-0.04l0.089,0.218l0.17,0.124l0.265,0.053l0.164-0.459L-1.053-57h1.588 v0.064l0.547,0.023L1.117-57h512.921"/>
      </g>
      <path fill="#b0afa3" stroke="#5f5e58" stroke-miterlimit="10" d="M160.904,153.448l17.384,0.549l0.059,14.719l8.387,18.069 l-0.03,3.366l-0.738,1.579l-1.384,1.072l-8.027-0.376l-1.548,1.418l-0.805,12.679l-22.639-0.406l0.101-30.607l-2.869-4.746 l0.978,0.188l2.753,2.144l-13.022-18.97l0.244-1.444L160.904,153.448L160.904,153.448z"/>
      <path fill="#b0afa3" stroke="#5f5e58" stroke-miterlimit="10" d="M174.2,206.519l0.834-12.743l1.877-1.501l7.845,0.441l1.324-1.146 l0.582-5.178l-8.416-17.986l0.042-14.415l21.429,0.467l1.373-1.291l4.979-0.61l3.606,1.809l6.937,0.173l-1.281,53.405 L174.2,206.519L174.2,206.519L174.2,206.519z"/>
      <path fill="#b0afa3" stroke="#5f5e58" stroke-miterlimit="10" d="M249.23,209.778l-15.931-0.888l0.011-11.6l-3.272-4.654 l0.279-6.122l3.744-4.086l0.908-27.647l21.8,0.771l0.105-0.053l16.218,0.394l-1.046,54.512L249.23,209.778L249.23,209.778z"/>
      <path fill="#b0afa3" stroke="#5f5e58" stroke-miterlimit="10" d="M233.3,208.891l-17.966-0.947l1.289-53.709l18.359,0.553 l-0.911,27.649l-3.743,4.085l-0.277,6.124l3.506,5.396L233.3,208.891L233.3,208.891z"/>
      <path fill="#b0afa3" stroke="#5f5e58" stroke-miterlimit="10" d="M323.391,144.68l-0.42,42.231l-2.526,4.08l-0.376,14.774h-0.091 l-0.029,4.71l-47.901-0.074l1.046-54.51l18.225,0.427l0.024-1.012l0.275,0.02l0.174-13.219l31.596,0.534v2.039H323.391 L323.391,144.68z"/>
      <path fill="#b0afa3" stroke="#5f5e58" stroke-miterlimit="10" d="M373.211,211.748l-11.538,0.617l-6.951-4.885l-1.661,2.209 l-0.823,0.453l-32.278,0.35l0.029-4.709h0.088l0.329-14.57l2.867-4.96l0.134-43.613l38.246,0.294l11.55-8.188l0.018,77.002H373.211 L373.211,211.748z"/>
      <path fill="#b0afa3" stroke="#5f5e58" stroke-miterlimit="10" d="M249.23,209.778l-0.806,33.019l-51.348-1.052l0.846-34.677 L249.23,209.778L249.23,209.778z"/>
      <path fill="#b0afa3" stroke="#5f5e58" stroke-miterlimit="10" d="M373.476,283.479l-0.815-0.155l-0.011-0.013l-0.212-0.096 l-0.035-0.065v-0.042l-0.012-0.016l-0.06-0.023l-0.087,0.033l-0.102-0.021l-0.017-0.019v-0.071l-0.006-0.012l-0.776-0.164 l-0.076-0.118l-0.562-0.19L370.7,282.5l-0.853-0.186l-0.06-0.07l-0.789-0.092l-0.075-0.078l-0.511-0.064l-0.083-0.119l-0.212-0.049 l-0.006-0.007l-0.423-0.054l-0.02,0.008l-0.514-0.182l-0.011-0.014l-0.471-0.095l-0.082-0.072l-0.042-0.012l-0.044,0.028h-0.075 l-0.025,0.019l-0.964-0.252l-0.038,0.175l-0.071-0.023l0.039-0.176l-0.493-0.135l-0.077-0.194l-1.561-0.312l0.006-0.005 l-1.75-0.532l-0.072,0.044l-0.53-0.097l-0.027,0.165l-1.426-0.225l-0.273,0.507l-1.188-0.571l-0.025,0.058l-0.192-0.089 l-0.012,0.025l-0.241-0.111l-0.06,0.091l-0.223-0.109l-0.098,0.193l-0.661-0.336l0.312-0.641l-0.904-0.482l0.066-0.13l-0.506-0.252 l-0.063,0.111l-0.552-0.277l-0.018,0.011l-0.064,0.118l-1.095-0.529l0.007-0.019l-0.019-0.005l0.006-0.017l-0.034-0.021 l-0.019,0.034l-0.029-0.022h-0.005l-0.121-0.118h-0.013l-0.065-0.167v0.058l-0.319-0.096l0.01-0.065l-3.535-1.295l-0.503-0.689 l-3.223-0.903l-0.659-0.702l-0.058,0.006v-0.012l-0.188,0.282l-0.038,1.057l-2.61-0.568l-0.019-0.026h-0.006l-0.086-0.32 l-0.14-0.137h-0.2l-1.799,1.028l-2.843-0.555l-0.021,0.025v0.03l-0.064,0.095l-0.122,0.065l-0.252-0.048l-0.068-0.084l-0.022-0.108 l-0.013-0.013l-0.029,0.083l-3.172,0.083l-0.012,0.025l-0.036,0.031l-0.414,0.083l-0.023,0.019l-1.009,0.114l-0.328-0.188 l-1.842-0.139l-0.139,0.101l-0.872-0.149l-0.045,0.076l-1.811-0.018v-0.064l-1.288,0.082l-0.018,0.021l-0.07,0.01l-0.035,0.024 l-2.4-0.254l10.201-55.523l1.929,0.035l0.064-7.979l1.573-0.089l-0.078,0.012l0.149-0.02l-0.071,0.008l15.654-0.509l2.264-2.576 l6.016,4.572l12.474-0.307L373.476,283.479L373.476,283.479z"/>
      <path fill="#b0afa3" stroke="#5f5e58" stroke-miterlimit="10" d="M292.347,264.845l0.162-54.032l18.382-0.329l-0.085,0.023 l24.414,0.135l-0.068,7.979l-1.926-0.036l-2.099,31.72l-5.481,7.235l-2.62,16.569l-0.011-0.006l-1.794-0.071l-0.018-0.012 l-1.414-0.108l-0.006-0.006l-5.353-0.561l-0.027,0.177l-0.02,0.012l-3.948-1.224l-0.028-0.025l-1.162-0.113l-0.07-0.041 l0.021-1.176l-0.124-0.111l-0.468-0.03l-0.111,0.1l-0.276,0.629l-0.083,0.013l-0.642-0.276l-0.14-0.188l-0.056,0.012l-3.781-1.963 l-0.482-0.759l-0.597-0.321l-0.018-0.03l-1.045-0.506l-0.488,0.007v0.227l-0.492-0.162l0.005,0.006l-0.05-0.013l-0.006,0.041 l-0.049-0.025l-0.005-0.052l-0.305-0.09l0.006-0.06l-0.055-0.01l0.008-0.035l-0.53-0.189l-0.005,0.02l-1.194-0.434l-0.023,0.018 l-0.047-0.024l0.007-0.022l-0.007-0.007l-0.576-0.174l-0.023,0.055l-1.994-0.307l-0.029,0.065l-0.453-0.04l0.019-0.234 l-0.083-0.072l-0.536-0.145l-2.036,0.706L292.347,264.845L292.347,264.845z"/>
      <path fill="#b0afa3" stroke="#5f5e58" stroke-miterlimit="10" d="M247.419,271.282l1.82-61.504l43.278,1.037l-0.082,55.818 l-1.392,0.47l-0.017-0.006l-1.582,0.595l-0.318,0.383l-0.064,0.021l-0.173-0.034l-0.124,0.074l0.048,0.265l-0.03,0.029 l-0.794,0.165l-0.047-0.252l-0.017-0.013v-0.036h-0.107l-0.005,0.006l-2.758,0.373l-0.042-0.055l-1.306-0.336l-0.227,0.236 l-0.144,0.654l-0.057,0.036l-0.704,0.025l-0.042,0.051l-0.083,0.02l-0.005-0.005l-0.207-0.068l-0.66,0.168l-0.141,0.13l-0.68,0.024 l-0.024-0.012l-0.828,0.155l-0.032-0.021l-0.036,0.012l-0.046,0.077l-0.228,0.024l-0.128,0.115l-0.172,0.039l-0.017-0.005 l-0.031,0.005l-0.034,0.048l-0.817,0.191l-0.047-0.055l-1.785,0.488l-0.029-0.009l-1.234,0.188l-0.042,0.042l-0.028,0.385 l0.05-0.012v0.13l-0.06,0.017l-0.022,0.095l-0.818,0.178l-0.006,0.093l-0.501,0.162l-0.201,0.322l-0.059,0.019l0.091,0.312 l-0.03,0.059l0.005,0.019l-0.481,0.162l-0.129-0.394l-0.135,0.076h-0.142l-1.164,0.527h-0.621l-0.11,0.053l-0.133,0.191 l-0.807,0.333l-0.149-0.05l-0.374,0.15l-0.022,0.032l-0.054,0.017l-0.006,0.018l-1.408,0.316l-0.006-0.07h-0.059v-0.024 l-0.336,0.061l-0.066,0.122l-0.309,0.051l-0.019,0.207l-0.209,0.048l-0.063-0.048l-0.049-0.127l0.039-0.073l-0.023-0.162 l-0.947-0.028l-0.005,0.017l-0.012,0.012h-0.035l-0.006,0.006l-0.392-0.006l-0.006,0.006l-0.048-0.006l-0.022,0.014h-0.013 l-0.007-0.014l-0.489-0.012l-0.1,0.48l-0.032,0.022l-0.504-0.091l-0.082-0.303l-0.032-0.019l-0.059,0.107l-2.564,0.228l-0.076-0.05 l0.013-0.434l-0.944,0.231l-0.047,0.105l0.005,0.153l-0.035,0.055l-5.292,0.378l-0.039,0.041l-0.046,0.289l0.023,0.031 l-0.006,0.101l-0.307-0.009l-0.006,0.032l-0.408-0.082l-0.111-0.239l-0.271-0.209l-0.533,0.036l-0.066-0.043l-2.996,0.133v0.083 l-0.065-0.006v-0.337l-0.611-0.006v0.287l-0.022,0.025l-1.696-0.136l-0.045-0.188l-0.262-0.15l-0.313-0.03L247.419,271.282 L247.419,271.282z"/>
      <path fill="#b0afa3" stroke="#5f5e58" stroke-miterlimit="10" d="M184.838,241.51l63.59,1.287l-1.114,31.703l-0.083-0.023 l-0.045-0.056l-0.063-0.031l-0.041,0.006l-0.018,0.025l-0.029,0.011l-0.022,0.025l-1.839-0.223l-0.006,0.101l-0.44-0.007 l-0.048-0.154l-0.193-0.012l0.019,0.222l-1.312-0.151l-0.019,0.435l-1.01-0.129l0.131,0.154l0.035,0.011l0.005,0.094l-1.848-0.194 l-0.055-0.48l-4.144,0.551l-0.011-0.012l-1.476,0.424l0.006,0.235h0.065v0.17l-0.112,0.006v-0.083h-0.064v-0.211h-0.064v-0.124 l-0.228,0.236l-0.012,0.034l-0.383-0.006l-0.035-0.264l-2.412,1.13l-0.197,0.645l-0.06,0.066l-2.455,0.752l0.013,0.135l-0.027,0.02 h-0.188l0.008,0.22l-2.229,1.057l-0.064-0.005l-0.108,0.111l-0.019,0.076l0.013,0.054l0.194,0.019l-0.012,0.382l-0.171-0.007 l-0.006-0.047l-0.152-0.006l-0.006,0.032h-0.066l-0.01-0.035l-0.183-0.013l-0.006-0.026h-0.027v-0.021l-0.716,0.144l-0.246,0.177 l-0.018-0.021h-0.012l-0.012,0.014l-0.035-0.008l-0.017,0.015l-0.02,0.006l-0.005,0.017h-0.1l-0.007-0.022l-0.022,0.006v-0.013 h-0.142v0.076l-0.327,0.128l-0.37-0.092l-0.011,0.019h-0.093l-0.053-0.042v-0.013l-0.052-0.02L223.38,280l-0.174,0.2l-0.167,0.577 l-1.032,0.484l-0.021-0.006l-0.04,0.053l-0.523,0.116l-0.022-0.006l-0.054-0.048l-0.036-0.007l-1.899,1.08l-0.152,0.294l-0.5,0.108 l-1.076,0.814l-0.768,0.162l-0.162,0.204l-1.272,0.305l-0.353,0.372v0.16l-3.62,0.987l-0.094,0.097l-0.012,0.683l-1.415,0.13 l-0.048,0.044l-0.005,0.147l-0.576-0.013l-0.007,0.165h-0.024v0.093l-0.965-0.03l-0.024-0.018l-1.376-0.077v0.053l-0.953-0.054 v-0.061l-0.022-0.005l-0.007-0.084l-0.726-0.04l-0.06-0.062l-0.091-0.304l-0.024-0.008l-0.07,0.407l-0.006,0.006h-0.013 l-0.013-0.011l-0.011-0.032l-0.047,0.006l0.293-1.477l-0.036-0.018h-0.288l-0.27,1.417l-0.152-0.023l0.146-0.635l-0.073,0.075 l-0.146,0.051l-0.53-0.047l-0.007-0.007l-1.195-0.326l-0.048,0.224l-0.247-0.04l0.018-0.123l-0.006-0.006l-0.09-0.014l-0.051,0.277 l-0.787-0.158l0.006-0.017l-0.006-0.007l0.04-0.214l-0.574-0.435v-0.006l-0.131-0.078l-0.047,0.053l-2.352-0.718l0.053-0.23 l-2.623-0.503l-0.054,0.077l-0.575,0.228l-0.031-0.013l-0.065-0.086l-1.792-0.759l-0.031-0.054l-0.156-0.086l-0.018-0.025 l-2.312-1.304l-0.078-0.197l-6.053-4.117l-0.261-0.752l0.053-0.153l0.112-0.111l0.523,0.111l0.019,0.031l-0.006,0.033l-0.024,0.019 l-0.377-0.07l-0.164,0.047l-0.069,0.16l0.158,0.476l1.253,1.022l0.117,0.006l0.684-0.78l0.164-0.012l0.115,0.084L187,277.81 l1.889,1.212h0.017l6.475,4.335l0.87-0.982l0.073-0.377l-3.966-3.427l-0.093,0.136l-0.083-0.071l0.172-0.223l-0.18-0.314 l-1.324-0.923l0.017,0.029l-1.021-0.556l-0.018-0.023v-0.006l-2.805-1.711l-0.031-0.079l-0.442-0.365l-0.277-0.012l-0.242-0.155 l-0.006-0.019l-0.201-0.114l-0.002,0.029l-0.335-0.221l-0.012-0.024l-0.248-0.166l-0.055-0.268l-1.487-0.94l-0.395-0.739 l-0.109-0.055l-0.064,0.013l-0.306,0.616l1.076-6.122l0.954-0.634l-0.595-0.906L184.838,241.51L184.838,241.51z"/>
      <path fill="#b0afa3" stroke="#5f5e58" stroke-miterlimit="10" d="M180.41,271.46l-1.561-2.922l0.611-0.882l-0.508-1.114 l-0.671-0.407h-0.36l-0.061-0.272l-0.042-0.023l-0.012-0.024l-0.196-0.133v-0.019l-0.012-0.016l-0.006-0.049l-0.024-0.025 l-0.064-0.012l-0.089,0.055l-0.127-0.012l-0.166,0.335l-0.053,0.007l-0.079-0.048l-0.005-0.078l0.012-0.018l0.006-0.133 l-0.018-0.021l-0.03-0.014l-0.101,0.044l-0.088-0.038l-0.03-0.18l-1.338-1.34l0.064-0.189l-1.484-1.658v-0.026l-0.041-0.047 l-0.07-0.012l-2.896-2.781h-0.013l-0.706-0.944l-0.33-0.114l-0.006-0.012l-0.094-0.069l-0.029-0.28l-0.364-0.233h-0.034 l-0.078,0.036l-0.012,0.018l-0.042,0.017l-0.005-0.011l-0.243-0.181l-0.011-0.032l-0.024-0.022l-0.035-0.012l-0.216-0.209 l-0.011-0.052l-0.236-0.153l-0.036-0.105l-0.503-0.324l-0.042-0.065l-0.034-0.012l-0.083-0.101l-0.146-0.031l-0.034-0.029 l-0.012-0.059l-0.019-0.024l-0.006-0.029l-0.207-0.153l-0.102,0.014l-0.237-0.24l-0.148-0.022l-0.018-0.03l0.006-0.012 l-0.012-0.021v-0.011l-0.054-0.065l-0.185-0.043l-0.06,0.024l-0.006,0.013h-0.081l-0.019-0.013l-0.048-0.114l-0.243-0.072 l-0.061-0.053h-0.012l-0.09-0.058l-0.011-0.021l-0.431-0.161l-0.013-0.026l-1.008-0.428l-0.013-0.018l-0.451-0.154l-0.03-0.049 l-0.107-0.065l-0.036-0.061l-0.137-0.041l-0.036,0.022l-0.03-0.006l-0.084-0.085l-0.192-0.047l-0.024-0.031l-0.048,0.007 l-0.012-0.007h-0.006l-0.024-0.012h-0.035l-0.011-0.006h-0.019l-0.035-0.032l-0.005-0.015l-0.145-0.071l-0.011-0.018l-0.08-0.037 h-0.125l-0.06-0.03h-0.046l-0.025-0.018h-0.006l-0.012-0.013v-0.013l-0.013-0.022l-0.034-0.012l-0.03,0.023h-0.012l-0.042-0.03 v-0.013l-0.103-0.084l-0.053-0.005l-0.095-0.096l-0.292-0.096v-0.042l-0.121-0.065h-0.024l-0.813-0.396l-0.018,0.018l0.006,0.017 l-0.012,0.006l-0.054-0.027l-0.006-0.019l0.006-0.011l-0.012-0.019h-0.011l-0.013-0.008h0.081l-0.053-0.024l-0.064-0.088 l-0.23-0.054l-0.047,0.082l-1.201-0.605l-0.005-0.012l-0.343-0.203l-0.018-0.026l-4.225-1.984l-0.054-0.089l0.006-0.012 l-0.067-0.265h-0.011l-0.005-0.051h-0.054l-0.005,0.051l-0.006,0.007l-0.018,0.098l-0.367,0.167l-0.431-0.14l0.025,0.055 l-1.265-0.392l-0.011-0.018l-2.123-0.427l-0.006-0.005l-1.755-0.08l-0.006-0.006l-0.769,0.042l-0.025,0.014h-0.076l-0.025,0.013 l-0.869-0.013l-0.072,0.096l-0.973-0.031l-0.011-0.007h-0.065l-0.013-0.006h-0.03l-0.005,0.006l-0.024,0.089l-0.354-0.034 l-0.006-0.035h-0.129l-0.024,0.034l-0.441-0.038l0.006-0.54l-0.599-0.022l-0.031-0.23h-0.099l0.012-0.424l-0.194-0.018 l-0.005,0.006l-0.006,0.417l-0.024-0.006l-0.049,0.012l-0.018,0.023l-0.46-0.029v-0.012l-0.071-0.006v0.018l-0.04-0.006v-0.006 l-0.112,0.006v0.006l-0.046,0.006v-0.012l-0.226,0.035l-0.018,0.067l-0.047,0.023h-0.077l-0.12,0.226l-0.018,0.005l-0.019,0.026 v0.134l-1.486-0.28l0.024-0.131l-0.096-0.012l-0.174-0.155l-0.111-0.006l-0.042-0.023l-0.011-0.023l-1.232-0.425l0.013-0.031 l-0.007-0.037l-0.984-0.698v-0.031l-0.281-0.209l0.594-40.901l59.165,0.986l-0.847,34.679l-12.241-0.236l-0.592,23.247l0.594,0.906 l-0.952,0.636l-1.402,6.861l-0.036,0.034l-0.006,0.024l0.012,0.053l0.102,0.072h0.019l0.012,0.013l0.945,0.127v0.012l-0.632-0.038 l-0.004,0.008l-0.396-0.121l-0.09-0.099h-0.006L180.41,271.46L180.41,271.46z"/>
      <path fill="#b0afa3" stroke="#5f5e58" stroke-miterlimit="10" d="M76.471,194.988l17.124,10.104l3.981-5.152l13.786,5.985 l-0.061-3.814l-2.545-0.107l0.005-4.233l2.57-0.304l0.108-17.973l-3.188-0.123l-9.168-7.002l12.614-1.828l0.077-14.869 l-9.644-0.325l-0.376-3.554l37.988,0.895l-0.245,1.444l13.019,18.97l-2.836-2.175l-0.894-0.159l2.868,4.745l-0.101,30.609 l-12.796-0.03l-0.595,40.902l-1.817-1.487l-0.007-0.08l0.053-0.059l0.211-0.056l0.023,0.012l0.024,0.041l0.789-0.223l-0.012-0.025 l0.006-0.04l-0.012-0.019l-0.486,0.025l-0.006-0.013v-0.018l-0.017-0.02l-0.042-0.013l-0.024,0.013l-0.03,0.043l-0.416,0.098 l-0.059-0.021l-0.012-0.012l-0.153,0.012v-0.01l-0.107-0.012l-0.012-0.013l-0.497-0.079l-0.03-0.027l-0.095-0.02l-0.081,0.02 l-0.101-0.051l-0.024,0.008l-0.095-0.032l-0.03-0.035l-0.024-0.006l-0.024,0.006l-0.036-0.048v-0.006l-1.52-0.755l-0.038,0.006 l-0.03-0.04v-0.014l-1.237-0.41l-0.049,0.02l-0.04-0.014l-0.006-0.011v-0.005l-1.066-0.224l-0.006,0.013l-0.037,0.029l-0.048-0.006 l-0.018-0.012l-0.094,0.299l0.036,0.024l0.007,0.103l-0.029,0.053v0.054l0.036,0.053h0.03l0.024,0.042l1.34,0.694l0.012,0.019 l0.194,0.101l0.012,0.02l3.627,2.087l0.011,0.026l2.151,1.373l0.007-0.006l0.483,0.208l0.061,0.102l-0.077,0.251l-4.096-0.562 l0.006-0.006l-2.119-1.05l-0.005-0.018l-5.258-3.631l-0.03-0.153l0.053-0.112l0.93-0.27l0.077-0.104l-0.797-0.229l-0.065-0.065 l-0.006-0.148l-0.053-0.007l-0.155,0.085h-0.053l-0.017-0.018l-0.03-0.006l-0.012-0.036l-5.057-3.76l-0.077-0.013l-0.126-0.119 l-0.005-0.014l-0.031-0.028l-0.019-0.006l-0.017-0.018v-0.029l0.116-0.049l0.007-0.02l-0.007-0.059l0.198-0.581l-0.012-0.023 l-0.035-0.019l-0.166,0.206l-0.03,0.012l-0.005,0.059l-0.178,0.3l-0.075,0.047l-1.744-0.576l-0.012-0.023l-0.096-0.066 l-0.083,0.018l-0.018,0.02l-0.072,0.019h0.035l-1.272-0.013l-0.241-0.116l-0.08-0.096l-0.881-0.33l-0.012-0.014l-5.896-0.72 l-0.024-0.02l-1.387-0.265l-0.054,0.02l-0.68-0.218l-0.011,0.152l-0.12-0.047l-0.072-0.109l0.006-0.006l-0.037-0.042l-0.036-0.259 l-0.059-0.043l0.156-1.808l0.019-0.031l-0.006-0.112l1.041-1.855l0.006-0.255l-0.024-0.034l-0.288-0.043l-0.202,0.28l0.006,0.048 l-0.301,0.5l0.024,0.105l-0.553,0.662l0.013,0.099l-0.865,1.283l0.059,0.087l-0.354,0.957l-0.188-0.078l0.018-0.054l-0.035-0.023 h-0.024l-0.153-0.089l-0.035,0.011l-2.408-0.725l-0.005-0.019l-0.259-0.138l-0.035,0.024l-0.135-0.042l-0.03-0.061v-0.04 l0.089-0.163v-0.04l-0.071-0.083l-0.018-0.15l1.356-1.941l-0.088-0.124l-0.055-0.296l-0.395-0.157l-0.371-0.997l-0.13-0.111h-0.071 l-0.099,0.065l-0.154-0.053l-0.318-0.372l-0.33-0.077l-0.034-0.04l0.036-0.395l-0.03-0.059l-0.123-0.064l-0.035-0.076l0.023-0.105 l0.03-0.04h0.042l-0.013-0.144l-0.266-0.422v-0.228l0.052-0.106l-0.142-0.464l-0.561-0.398l-0.247-1.169l-0.176-0.014l-0.448-0.608 l-0.299-0.118l-0.089-0.264l-0.312-0.12l-0.459-0.686l-0.141,0.011l-0.03,0.054l0.126,0.535l-0.041,0.041l-0.176-0.006 l-0.025,0.029l0.036,0.23l-0.029,0.054l-0.083,0.029l-0.077-0.017l-0.046-0.06l0.006-0.237l0.088-0.142l0.006-0.199l-0.421-0.424 v-0.089l-0.065-0.093l0.006-0.093l0.105-0.09l-0.024-0.124l-0.081-0.099l-0.07-0.023l-0.142-0.213h-0.089l-0.065,0.089l-0.083,0.03 l-0.246-0.136l0.03-0.076l0.076-0.032l-0.076-0.155l0.03-0.035l-0.013-0.175l-0.093-0.095l-0.088,0.028l-0.141-0.11l0.03-0.281 l-0.041-0.031l-0.146,0.014l-0.101-0.123l0.042-0.384l-0.075-0.235l-0.124-0.094l0.018-0.041l-0.101-0.177l0.019-0.24l-0.094-0.136 l-0.1-0.039l-0.16-0.5l-0.312-0.177l-0.093-0.13v-0.369l-13.913-12.502l-0.036-0.159l-0.264-0.258l-1.743-0.369l-0.188-0.288 l-0.266-0.093l-0.182-0.2l-0.147-0.58l-5.081-4.187l-0.551-1.268l-0.674-0.293L76.471,194.988L76.471,194.988z"/>
      <path fill="#b0afa3" stroke="#5f5e58" stroke-miterlimit="10" d="M101.751,151.785l-18.459-0.428l0.503-20.834l-6.814,0.401 l-0.062-4.07l-3.304,0.546l0.121-3.618l-4.217-5.511l1.177-11.707l2.422,0.517l0.077,0.093l8.054,1.827l0.271-0.164l3.087,0.767 l0.064,0.083v0.083l4.52,1.96l0.076,0.141l1.429,0.576l0.06,0.158l0.059,0.053l9.126-0.875l0.125-0.34l0.384-0.156l1.267,0.543 l0.271-0.031l0.052-0.046l-0.012-0.076l-0.095-0.12l0.042-0.064l0.072-0.035l0.323,0.064l0.035-0.017l0.005-0.035l0.388-0.262 l0.036-0.059l-0.095-0.295l-0.047-0.03l-0.093,0.006l-0.07-0.046l-0.024-0.077l-0.046-0.035l-0.03-0.077l0.036-0.105l0.616-0.18 l0.095-0.207l-0.007-0.048l0.03-0.066h0.031l0.046-0.058l0.101-0.007l0.046,0.024l0.178,0.475l0.417,0.253l0.158,0.013l0.019,0.017 l0.011,0.069l0.694,0.354l0.136,0.006l0.095,0.153l1.213,0.483l0.118,0.175l1.188,0.542l0.855-0.095l0.439-0.306l0.037-0.322 l0.018-0.013l0.048,0.023l0.114,0.251l-0.064,0.217l2.2,2.359l-0.359,0.282l0.212,1.653l3.801,2.708l0.105,0.007l0.651,0.517 l0.081-0.036l0.318,0.123l0.046,0.276l1.016,0.206l0.071-0.14l0.257-0.064l0.124,0.104l1.088,0.104l0.909-0.595l0.271-0.61 l5.454-2.392l0.012-0.087l0.064-0.03l0.143,0.019l0.083,0.128l0.046,0.03l0.059,0.006l0.065-0.059l1.67,0.159l0.099-0.048 l0.87,0.006l-0.853,35.496L101.751,151.785L101.751,151.785z"/>
      <path fill="#b0afa3" stroke="#5f5e58" stroke-miterlimit="10" d="M196.987,114.218l-7.874,3.852l-0.885,36.107l-60.604-1.798 l0.853-35.497l1.108,0.217l0.052-0.012l0.018-0.024l0.048-0.024l1.114,0.097l1.219,1.196l0.601,0.139v0.012l0.434,0.12l0.006-0.03 l1.403,0.173l0.218-0.073l0.125,0.048l0.017-0.013l0.241,0.059l-0.017,0.1l1.441,0.333l0.17-0.078l0.129,0.03l0.024-0.083 l0.141,0.03l-0.012,0.053l0.411,0.22l0.178,0.242l2.083,0.186l0.03-0.011l0.018-0.019l0.68-0.018l0.007-0.013l1.635,0.145 l0.09,0.148l0.099,0.052l0.018,0.024l1.082,0.149l0.018-0.006l0.035,0.006l0.058-0.036l0.336,0.096l0.104-0.059l0.27,0.125h0.03 l0.112,0.055l0.217,0.005l0.129,0.071l0.013-0.013l0.083,0.013l0.012-0.013l0.065,0.013l0.006-0.018l0.071,0.012l0.006-0.025 l0.123,0.019l0.007-0.019l0.193,0.031l0.041,0.034l0.024-0.012l0.194,0.037l0.04,0.03l1.412,0.046l0.031,0.018l0.576,0.036 l0.006-0.041l0.498,0.031l0.012,0.012l0.195,0.042l0.018-0.053l1.204,0.011l0.013-0.052h0.07v0.045l0.124-0.005l0.018-0.024 l0.124,0.005l0.025-0.052l1.541-0.008l0.059-0.047l0.206-0.024l0.018-0.105l1.709-0.768l0.075,0.035l1.24-0.442l0.012-0.064 l0.4-0.111l0.005-0.03l4.428-2.412v-0.024l0.288-0.415l0.105-0.03l0.042-0.064l0.006-0.078l1.411-0.917l3.42-0.259l0.012-0.054 l0.268-0.066l0.006-0.019l1.122-0.146l0.088-0.218l0.207,0.076l-0.059,0.176l0.183,0.077l0.017,0.03l-0.017,0.041l0.017,0.035 l0.318,0.096l0.846,0.899l6.533,0.215l4.738-7.323l-0.142-0.47l0.487-1.248l2.754-0.528l0.602,0.178l0.79-0.113l1.729-3.151 l0.839-0.096l0.053,0.061l0.007,0.023l-0.007,0.035l-0.029,0.041l-0.536,0.185l-0.182,0.211l-0.072,0.412l0.04,0.006l-0.011,0.088 l-0.031,0.007l0.024,0.359l0.363,0.399l1.071,0.375l0.535,0.786l0.809,0.036l0.57-0.262l0.873-1.753l0.956-0.287l2.652,0.75 l1.384,1.204l0.036,0.1l0.034,0.034l0.007,0.041l1.615,1.419l0.316,0.024v0.023l-0.165,0.048l-0.178,0.483l0.581,1.113l0.284,0.03 l0.114,0.112l0.124,0.361l-0.059,0.024l-0.024,0.064h-0.006l-0.047,0.031l-0.012,0.083l-0.202,0.121l0.019,0.242l0.025-0.011 l0.011-0.013h0.007l0.005-0.005l0.007,0.012l-0.007,0.148l0.805,1.526h0.007l0.209,0.473l0.019,0.012l0.005,0.019l0.03,0.035 l0.011,0.042l-0.018,0.065l0.013,0.024l0.233-0.111l0.131,0.276l-0.212,0.1l0.03,0.024h0.137l0.107,0.06h0.206l0.073-0.036 l-0.025-0.047l0.26-0.142l0.099,0.188l-0.017,0.292L196.987,114.218L196.987,114.218z"/>
      <path fill="#b0afa3" stroke="#5f5e58" stroke-miterlimit="10" d="M235.224,131.396l-0.254,23.385l-18.358-0.555l-0.01,0.307 l-15.66-1.27l-1.225,1.193l-11.486-0.284l0.888-36.103l10.022-4.898l-0.013,0.283l0.131,0.208v0.064l0.048,0.054v0.024l0.246,0.531 l-0.018,0.163l-0.39,0.112l-0.018,0.03l-0.689,0.103l-0.042,0.049h-0.054l-0.005,0.006l-0.09,0.029l-0.019,0.018L198.205,115 l0.023,0.03l-0.067,0.313l-0.253,0.259l-0.103,0.03l-0.016-0.011l0.062,4.782l0.676-0.058l0.083,0.206l-0.623,0.211l0.251,0.753 l0.035-0.006l0.019,0.006l0.037,0.076l-0.019,0.042l-0.025,0.012l0.466,0.706l0.662-0.042l0.192,0.142l0.198,0.398l0.592,0.066 l0.498,0.417l0.048,0.674l0.465,0.428l0.911-0.916l-0.316-1.258l-0.118-0.007l-0.04-0.024l-0.065-0.112l-0.007-0.093l0.125-0.322 l-0.052-0.176l-0.048,0.024l-0.029-0.081l0.029-0.018l-0.357-0.664l-0.024,0.012l-0.059-0.089l0.045-0.017l-0.04-0.212 l-0.029-0.006l-0.014-0.212l0.042-0.005l0.396-0.919l-0.064-0.174l-0.143-0.013l0.089-0.517l0.382,0.035l0.145-0.588l-0.096-0.024 l-0.178-0.252l0.766-0.618l0.142,0.164h0.569l-0.017-0.169l0.039-0.006l-0.004-0.059l0.987-0.018l0.019,0.376l0.547-0.011 l0.311,0.388l0.241-0.223l0.26,0.311l-0.436,0.367l0.559,0.659l0.23-0.182l0.033,0.035l0.04-0.035l0.972,1.2l0.037,0.251 l0.365,0.306l0.03-0.047l-0.007-0.017l0.117-0.059l1.201,1.453l-0.106,0.083l0.023,0.03l0.065-0.03l0.435,0.511l0.236-0.188 l0.41,0.535l-0.015-0.003l-0.012,0.117l-0.177,0.136l0.005,0.061l1.872,2.258l-0.024,0.905l-0.276,0.332l-0.024,1.29l0.088,0.047 l0.026,0.07l-0.007,0.081l-0.042,0.07l-0.306,0.006l-0.877-0.437l-0.006,0.012l-0.041-0.012v-0.012l-1.198-0.067v0.018h-0.099 v-0.013l-2.269-0.895l-0.03,0.088l0.034,0.013l-0.013,0.034l-0.075-0.018l0.029-0.123l-0.11-0.007l-0.03,0.018l-0.164,0.597 l0.014,0.042l-0.006,0.024l-0.03,0.024l-0.029,0.065h-0.007l-0.067,0.131l0.077,0.289l0.555,0.396l0.357-0.246l0.095-0.006 l0.041,0.024l0.658,1.202l0.052-0.036l0.624,0.012l0.006-0.093l0.328,0.012l0.16,0.282v0.012l-0.034,0.025v0.034l-0.193,0.107 l0.57,1.005l0.688,0.308l0.416-0.112l0.881-0.863l0.036-0.635l0.126-0.136h1.116l0.615-0.595l0.513,0.013l0.146,0.164l1.476,0.041 l0.03-0.035v-0.064l0.034-0.031l0.036,0.013l0.053-0.035l3.42,0.211l0.843,0.938l0.779,0.168l0.667-0.295l0.482-0.934l-0.006-0.247 l0.021-0.03l0.018-0.006l0.518,0.3l0.729,0.037l1.412-1.003l0.633-0.004l0.402,0.354l0.335,1.129l0.341,0.336l2.6,0.153 l0.452-0.283l0.168-1.81l-0.06-0.047l-0.023-0.234l0.023-0.006l-0.017-0.117h-0.027l-0.017-0.154l0.105-0.03l0.006-0.069h0.023 l-0.012-0.03h0.023v-0.019l-0.039-0.04l-0.006-0.034l-0.07-0.035l0.019-0.035l0.011-0.441l0.053-0.006l0.014-0.265h0.076 l0.011-0.276l0.018-0.006l0.476,0.547l-0.021,0.324l0.621-0.476l0.036-0.119l-0.117-0.262v-0.024l0.065-0.053l0.064-0.134 l0.161-0.134l0.38-0.072l0.396-0.78l0.646-0.351l-0.011-0.055l0.028-0.059l0.148-0.112l0.063-0.005l0.03,0.017l2.013-1.61 l0.115-0.012l0.082-0.067l0.018-0.112l-0.052-0.024l0.034-0.118l0.024,0.019l0.028-0.084l0.023-0.025l0.021-0.005l0.011-0.012 l0.117-0.006l0.052,0.037l0.037,0.064v0.024l0.383-0.342L235.224,131.396L235.224,131.396z"/>
      <path fill="#b0afa3" stroke="#5f5e58" stroke-miterlimit="10" d="M257.733,118.017l-1.014,8.363l7.044,5.369l28.109,3.862 l-0.259,19.717l-0.275-0.017l-0.026,1.01l-34.439-0.821l-0.104,0.053l-21.8-0.771l0.383-32.923l0.364-0.307v-0.018l0.371-0.103 l0.005-0.006l0.38-0.018l0.056,0.153l0.515,0.186l0.044-0.03l0.053,0.019v0.011l0.128,0.136h0.017l0.007-0.012l-0.029-0.2 l-0.014-0.018l0.014-0.048l-0.027-0.048h-0.013l-0.022-0.113l0.006-0.018l0.18-0.067l0.017-0.018h0.036l0.013-0.012l2.823-0.795 l-0.104-0.429l0.458-0.118l0.044,0.249l0.048,0.036l0.146,0.006l0.109-0.095l0.208-0.651l0.574-0.294l-0.006-0.194l0.229-0.046 l0.017,0.376l0.142,0.048l1.057-0.495l0.613,0.049l0.019,0.012l2.237,0.042l0.068,0.107h0.143l-0.027,1.37l0.311,0.042v-0.07 l0.012-0.013l0.012-0.193h0.1l-0.006-0.024h0.011v-0.1l-0.017-0.011l0.029-0.271h-0.018l0.018-0.077h0.017l-0.011-0.14l0.118-0.006 l-0.088-0.042l-0.008-0.049l0.02-0.072l0.064-0.07l0.006-0.018l0.017-0.017l0.006-0.024l0.145-0.126l0.503-0.074l0.018,0.019 l3.683,0.078l-0.02-0.147h1.377v-0.175h0.164v0.169l0.382-0.012l0.194-0.137l0.076-0.157l0.021-1.293L257.733,118.017 L257.733,118.017z"/>
      <path fill="#b0afa3" stroke="#5f5e58" stroke-miterlimit="10" d="M217.676,99.335l8.181-8.298l-23.558-23.38l1.669-1.624 l0.146,0.119l0.486,0.012l0.92-0.424l1.435,1.336l0.018,0.182l-0.054,0.117l-0.019,0.012l-0.053,0.102l-0.047,0.035l-0.026,0.174 l0.139,0.257l0.551,0.379l0.004,0.012l1.627,1.691l0.229-0.237l0.019-0.006l0.999,0.998l0.137-0.136l0.004-0.018l0.014-0.012 l0.006,0.006h0.012l0.812,0.823l0.083-0.093l0.012,0.011l0.007-0.011l0.128,0.124l0.007,0.024l1.417-1.454l-0.087-0.1l-0.013,0.005 l-0.223-0.228l0.312-0.318l0.482,0.269l-0.084,0.077l-0.143-0.142l-0.071,0.072l0.066,0.07l0.005-0.006l0.031,0.024l0.021-0.018 l0.005,0.006l0.011-0.006l2.823,2.05l-0.006,0.03l0.183-0.182l0.224,0.15l0.129,0.214l-0.006,0.024l-1.676,1.711l1.743,1.6 l0.07,0.196l1.16,1.028l0.087-0.042l0.896,0.336l0.018,0.076l2.097-0.516l1.272-1.247l-0.059-0.105V74.94l0.07-0.106l0.106-0.064 l0.142,0.005l5.213,3.5l2.303,0.181l0.018-0.013l0.512-0.006l0.214,0.284l-0.012,0.018l0.066,0.059l0.767-0.216l0.003-0.095 l0.164-0.03l0.029,0.012l0.341,0.793l0.1,0.071l1.359-0.481l0.575,0.583l0.515,0.108l1.092-0.301l0.064,0.03l0.053,0.071 l-0.028,0.235l-2.275,1.4h-0.118l-0.086,0.048l0.006,0.024l-0.062,0.064l-0.081,0.018L233,81.464l0.39,0.182l0.017-0.029 l2.44,0.977l11.708-4.081l0.006-0.006l0.032-0.006l0.065,0.054l0.009,0.047l-0.059,0.095l-0.026-0.03l-8.215,4.47l-0.039,0.117 l-0.171,0.089l-0.012,0.031l-0.117,0.064l-0.013,0.035l-0.423,0.234l-0.094,0.194l0.006,0.041l1.747,1.018v0.047l-0.071,0.135 l0.547,0.279l0.029-0.006l0.277,0.076l1.128-0.59l0.018-0.034l-0.208-0.627l0.029-0.029l0.026-0.006l0.392,0.587l0.27-0.184 l0.036,0.07l-0.02,0.047l0.03,0.071l0.019-0.005l0.011,0.005l0.143-0.083l-0.06-0.111l0.188-0.1l0.088,0.165l0.645-0.347 l0.109,0.177l-0.012,0.064l-0.03,0.018v0.035l-0.505,0.271l0.07,0.129l1.125-0.471l0.033,0.006l0.047,0.1l-0.029,0.034l0.065,0.107 l0.04-0.006l0.047,0.076l-0.011,0.077l-1.038,0.6l0.076,0.13l0.494-0.271l0.136,0.047l0.091,0.193l-0.027,0.012l-0.006,0.053 l-0.603,0.323l0.03,0.019l0.094,0.183l-0.183,0.105l-0.076-0.136l-0.158,0.094l0.063,0.123l-0.022,0.012l0.005,0.024l-0.306,0.169 l0.856,0.24l2.292-0.818l2.548,0.523l0.066,0.1l2.812,0.578l0.348-0.527l0.179-0.072l0.254,0.036l0.04,0.047l0.036,0.012 l0.268-0.365l0.154,0.099l-0.275,0.395l0.066,1.478l0.124,0.247l1.086,0.45l4.127-0.59l0.123-0.593l-0.182-0.019l0.112-3.182 l0.011-0.018l0.019-0.011l0.329,0.023l-0.952,33.369l-4.387-0.476l-0.007-0.2h-0.734l-0.611,0.301l-0.442-0.054l-0.466-0.354 l0.155-0.116l-0.109-0.211l-0.011-0.425l0.281-0.418l-0.112-0.158l0.495-0.182l0.354,0.042l0.045-1.417l0.039-0.046l0.053-0.006 l-0.018-1.147h-0.041v-0.031l-0.029,0.007v-0.077h0.083l0.029-0.27l0.463,0.007l-0.017-0.294l-0.034-0.054l-0.03-0.646l-0.01-0.006 l-0.044-0.177l-0.209-0.145l-3.945-0.097l-0.018,0.013l-0.588-0.042l-0.263-0.245l-0.113-0.033l-0.023-0.036l-1.446,0.084 l-0.008-0.006l-0.063-0.119l-0.093-0.072l-0.205,0.017l-0.017,0.013l-0.3,0.005l-0.019-0.034l-0.208-0.049L245,110.894 l-0.048,0.052l-0.052,0.275l-0.021,0.005l-0.088,0.518l-0.013,0.013l0.024,0.423l0.106,0.135l-0.085,0.542l0.167,0.212l-0.06,0.041 l-0.036-0.035l-0.274,0.213l0.093,0.264l-0.04,0.253l-0.339,0.307l-0.077,0.541l-0.399-0.059l-0.233,0.212l-0.131-0.176 l0.006-0.077l-0.259-0.348l-0.1-0.018l-0.013,0.07l-0.898-0.136l0.007,0.013l-0.163,0.773l-0.035,0.025l-0.477-0.067l-0.006-0.02 l-0.535-0.053l-1.446,0.948l-0.104,0.435l-2.566,1.323v0.012l-0.034,0.006v-0.006l-1.116,0.829l-2.566-0.013l-1.976-1.485v0.018 l-0.426-0.071l-0.036-0.024v-0.018l-1.111,0.082v0.019l-0.292,0.088l-0.008-0.018l-0.656,0.355l0.007,0.011l-0.029,0.019 l-0.017-0.007l-0.195,0.583l-0.45,0.355l-0.023,0.089h0.018l-0.006,0.035h-0.012l-0.005,1.98l-0.184,0.188l-0.012,0.153 l-0.114,0.127l0.089,0.093l-0.148,0.16l-0.025,0.394l-0.253,0.421l-0.724,0.233l-0.165,0.158l-0.161-0.158v0.005l-0.021-0.005 l-0.14,0.135l0.005,0.006l-0.024,0.024l-0.006-0.006l-0.223,0.199l-0.612,0.024v-0.006l-0.972-0.847l-0.358,0.358l-0.359-0.353 l0.029-0.034l-1.453-1.436l-0.126-0.012l-0.126,0.127l-1.049,0.006l-0.17-0.188l-0.006,0.035l-0.07,0.069l-0.112,0.009 l-0.082-0.048l-0.016-0.034l-1.792,1.772l0.032,0.152l0.554,0.582l0.011,0.087l-0.176,0.234l-2.259-0.012l-0.208-0.143 l-0.013-0.031l-0.047-0.03l-0.011-0.03l-1.147-1.024v-0.013l-0.097-0.054l-0.05,0.007l-0.011-0.035l-0.083-0.048l-0.024,0.024 l-0.027,0.005l-1.382-1.344l-0.238,0.252l-0.006,0.084l-0.078,0.006l-0.271,0.271v0.105l-0.099-0.006l-0.235,0.146l-0.281-0.047 l-0.159-0.199l-0.02-0.183l0.174-0.264l-0.5-0.493l-0.682,0.675h-0.03l-0.034-0.024l-0.007-0.042l0.66-0.713l-0.736-0.734 l0.431-0.447l-0.435-0.423l-0.181,0.136l-0.409,0.088l-0.523-0.23l0.076-0.07l-0.506-0.506l-0.223,0.223l-0.728-0.735h-0.02 l-0.175-0.176l-0.05-0.018l-0.118,0.118h-0.045l-0.189-0.14l-0.019-0.199l0.035-0.076l0.176-0.131h0.054l0.141,0.142l0.142,0.006 l0.012-0.012l-0.612-0.614l-0.084-0.586l0.175-0.28l-0.507-0.488l-0.636,0.635l-0.733-0.734l-0.293,0.306l-0.073,0.023 l-0.042-0.042l-0.008-0.048l0.521-0.53l-0.208-0.195l-0.146,0.13l-0.14,0.043l-0.236-0.055l-0.167-0.227l0.034-0.279l0.044-0.053 v-0.018l0.112-0.107l-0.412-0.459l0.599-0.612l-0.957-0.947l-0.823,0.413l-0.452-0.472l-0.012,0.013l-0.229,0.018l-0.136-0.258 L217.676,99.335L217.676,99.335z"/>
      <path fill="#b0afa3" stroke="#5f5e58" stroke-miterlimit="10" d="M202.979,110.914l0.334-0.876l-1.979-3.464l-0.361-0.042 l-0.374,0.179l-0.025,0.14l0.134,0.18l0.005,0.03l0.037,0.046v0.012l-0.012,0.012l-0.025,0.006l-0.033-0.018l-0.264-0.527 l0.006-0.031l-0.519-0.281v-0.018l-0.026-0.024l-0.004,0.012l-0.09-0.06l-0.031,0.006l-0.011-0.019l0.006-0.012l0.036-0.018h0.013 l0.034-0.019h0.017l0.019,0.019h0.011l0.042-0.034l0.011-1.828l-0.292-0.392l-0.311-0.055l-0.05,0.031l0.05,0.036l-0.008,0.037 l-0.326,0.139l-0.845-0.169l-0.007-0.037l0.012-0.023l0.08-0.042l0.054-1.358l-0.182-0.412l-0.265-0.136l-0.012,0.006l-0.036,0.095 l-0.167,0.111l-0.767-0.223l-0.006-0.018l0.006-0.024h0.299l0.06-0.03l0.06-2.077l-0.976-1.089l-0.125-0.048l-0.566,0.139v0.059 l0.018,0.041l-0.066,0.228l0.024,0.13l-0.03,0.054l-0.024,0.013h-0.018l-0.012-0.006l-0.048-0.528l0.036-0.072l-0.005-0.048 l0.204-0.505l-0.381-0.335L195.3,97.78h-0.025l-0.179,0.097l-0.006-0.011l0.048-0.043h0.012l0.024-0.018l0.013-0.03l0.024-0.012 h0.012v-0.018l0.018-0.024v-0.011l-0.21-0.263h-0.007l-0.065,0.078l-0.052,0.024l-0.039,0.066l-0.065,0.036l-0.013-0.012 l0.129-0.137v-0.005l0.055-0.085l-0.259-0.863l0.03-0.011l-2.444-4.678l-1.113-0.511l-0.036-0.117l0.036-0.168l0.024-0.031 l0.902-0.323l0.184-8.881l-2.412-2.482l-0.093-0.03l-0.316,0.174l-0.187-0.012l-0.676-0.629l-0.006-0.037l-0.125-0.072 l-0.042-0.072v-0.013l-0.024-0.03h-0.006l-0.006-0.042l-0.024-0.03l-0.047-0.005l-0.036-0.024l-0.006-0.018l0.006-0.047 l-0.035-0.012l-0.006-0.03l-0.338-0.284h-0.035l-0.012,0.011h-0.097l-0.035-0.019l7.16-6.956l5.221-1.305l2.175-2.212 l23.559,23.381l-22.724,20.165L202.979,110.914L202.979,110.914z"/>
      <path fill="#b0afa3" stroke="#5f5e58" stroke-miterlimit="10" d="M257.882,113.042l0.805-28.391l-0.329-0.024l0.479,0.031 l-0.037,0.499l0.799,0.209l0.823,2.383l-0.017,0.053l0.411,0.68l0.1,0.046l0.147,0.248l0.172,0.089l0.063-0.153l-0.182-2.046 l0.816-0.083l0.006-0.005l0.8-0.077l-0.006-0.065l0.235-0.024l0.329,0.676l0.031,0.013l0.066,0.101l-0.082-0.852l-0.048-0.047 h-0.013l-0.122-0.12v-0.005l-0.148-0.188l-0.005,0.005l-0.023-0.034l-0.006-0.042l-0.921-1.188l-0.74-0.306l-0.03-0.037 l-1.231-0.528l-0.006-0.012l-2.271-1.062l-0.002-4.592l-0.013-0.024l-0.281-0.107l0.118-0.287l0.034-0.012l12.461,5.222 l0.108-3.723l0.091-0.046l7.663,3.286l-0.204,7.563l0.204,0.047l0.033-0.034l1.346,0.211l-0.015,0.241l-0.017,0.019v0.058 l0.028,0.038l0.55,0.078l0.188-3.897l0.306,0.012l0.006-0.012l0.788-0.174l0.417,0.168l0.05,0.095l0.318,0.017l-0.091,2.922h-0.064 l-0.019,0.013l0.104,2.622l0.672,0.09l0.016-0.065l1.515-0.154l0.083-0.153l-0.006-0.024l0.099-0.083l0.085-0.957l0.019-0.024 v-0.013h-0.013v-0.219h0.095l0.012-0.186l0.039-0.023l0.125-0.642l0.095-0.107l0.283-0.018l0.061-0.442h0.023v-0.046l0.089,0.006 l0.006-0.019l-0.012-0.024l0.012-0.03l-0.076-0.006l0.006-0.264l0.053,0.005l0.012-0.017l-0.089-0.554h-0.006l-0.061-0.144h-0.024 l0.007-0.035l-0.007-0.024l-0.052-0.058l-0.151-0.732l-0.007-0.005l-0.006-0.071l-0.01-0.012v-0.012l-0.021-0.018l0.079-0.518 l0.235-0.224l0.377-0.007l0.037-0.018l0.019,0.012l0.17-0.042l0.095-0.353l0.057-0.055l0.022-0.006l0.374-1.025l0.322-0.073 l0.006-0.012l0.295-0.15l0.438,0.048l0.129,0.112l0.506,4.241l0.306,0.042l0.047-0.048l0.031-0.113l0.066-0.03l0.041-0.052 l0.023-0.205l-0.013-0.012l-0.022-0.052l0.047-1.285l-0.012-0.024l0.012-0.626l0.006-0.012l-0.03-1.65l-0.022-0.008l0.035-0.516 l0.138-0.113l0.286,0.005l0.017,0.012l0.382,0.023l0.062,0.061l0.012,0.035l0.011,0.005h0.007l0.006-0.005l-0.006-0.147 l0.083-0.059v-0.284l-0.042-0.012l-0.005-0.147h0.041v-0.019h-0.024v-0.064l-0.105-0.006l0.006-4.516l0.424-0.006v1.553h0.04v0.052 h0.02v-0.018h0.011v0.052h-0.011v-0.018l-0.02,0.006v0.361h0.02v-0.011h0.011v0.046h-0.011v-0.011h-0.02v0.357h0.004v-0.012h0.018 v0.046h-0.013v-0.009h-0.017v0.358h0.017v-0.012h0.013v0.048h-0.013v-0.013h-0.017v0.358h0.017v-0.006h0.013v0.041h-0.013v-0.013 h-0.017v0.358h0.017v-0.011h0.013l-0.007,0.046h-0.011l0.005-0.013h-0.017v0.358h0.012v-0.005h0.018v0.04h-0.013V83.43h-0.017 l-0.006,0.564L289.748,84v0.099l-0.042,0.006l0.013,0.915l0.047,0.065l0.418,0.103l2.043-1.174l-0.038-0.558l0.047-0.035 l0.027-2.594l-0.521-0.158l-0.013,0.012l-0.464-0.117l0.007-0.024l-0.035-0.017l0.005-0.013l-0.047-0.018l0.011-0.04l-0.045-0.071 l0.028-1.481l0.07-0.07l1.259,0.358l-0.653,56.422l-28.99-4.145l-6.163-5.087L257.882,113.042L257.882,113.042z"/>
      <path fill="#b0afa3" stroke="#5f5e58" stroke-miterlimit="10" d="M323.562,73.75l-0.175,68.896l-31.596-0.535l0.738-62.921 l10.927,3.517l0.04-3.758l0.036-0.043l1.844,0.031l0.023,0.012l0.041,0.066l-0.019,1.412l0.012,0.006v0.059l-0.012,0.006 l-0.005,0.323l0.017,0.006l-0.006,0.065h-0.011l-0.012,0.435h0.012v0.064h-0.012l-0.019,0.9h0.019v0.065h-0.019l-0.011,0.929h0.011 v0.065h-0.011l-0.006,0.429h0.017l-0.006,0.059h-0.011l-0.036,2.046l0.121,0.018V85.89h0.058v0.041h0.488l0.006,0.035h0.422v-0.018 h0.021V85.88h0.023v-0.059l0.088-0.019l0.007-0.17l0.415,0.006v0.241h0.066v0.012l0.041,0.006v0.089l0.04-0.006l0.012-0.031 l0.019-0.005l0.012-0.019l0.012-1.499l-0.012-0.006h-0.077l0.006-0.11l0.066-0.007l0.123-1.111l-0.018-0.011l0.046-0.354 l-0.041-0.052l0.006-0.312l0.041-0.059l-0.023-0.742l0.035-0.047l0.006-0.376l-0.035-0.047l0.016-0.342l0.033-0.03l-0.006-0.411 l-0.036-0.035l0.021-0.335l0.335,0.012l0.029,0.037l0.006,0.271l-0.042,0.052l-0.006,0.411l0.036,0.024v0.324l-0.042,0.046v0.401 l0.03,0.034v0.306l-0.032,0.046l-0.006,0.411l0.029,0.03l0.006,0.294l-0.041,0.064l-0.006,0.441l0.018,0.018l-0.03,0.764 l0.047,0.023l0.66-0.023l0.015-0.007l0.316,0.013l0.013-0.006l0.076,0.011l0.024-0.011l0.448,0.023l0.041-0.031l0.106,0.006 l0.019,0.013l0.006,0.012l0.364,0.012l0.022-0.012l0.06,0.018l0.026,0.024l0.018,0.048h0.229v0.164l0.779,0.007l0.012,0.969 l0.115-0.024l0.016-0.013l0.575,0.024l0.007-0.84l0.51,0.019l0.007,0.176l-0.041,0.006v0.046l0.135-0.011l0.109-0.095l-0.021-0.023 l0.132-0.707l0.07-0.042l0.225,0.024l0.088,0.117l0.101,0.054l0.021-0.012l0.021-0.029l0.006-0.14l-0.064,0.011l-0.012-0.019 l0.116-0.24l-0.04-0.024l-0.032,0.071l-0.065-0.025l0.013-0.046l-0.089-0.053l0.118-0.229l-0.022-0.019l0.063-0.135l-0.194-0.088 l-0.006,0.052h-0.017l0.017-0.37l-0.028-0.018l0.481-0.9l1.029,0.559l0.258-0.013l-0.011-0.005l-0.011-0.024l-0.027-0.012h-0.018 l-0.152-0.22l-0.041-0.019l-0.013-0.052l-0.323-0.157l0.642-1.728l0.547,0.27l0.082-0.167l-0.307-0.435l0.225-0.17l0.275,0.388 l0.117,0.054l0.466-1.006l0.212,0.105l0.005-0.03l-0.005-0.012l0.493-0.806l0.132-0.054l0.562,0.107l0.159-0.113l0.107-0.26 l1.216-0.914l0.01,0.006l0.118-0.072l-0.07-0.099l0.447-0.336l-0.894-1.182l1.299-0.935l0.142,0.2l-0.157,0.1l0.543,0.74 l1.199-0.911l0.152,0.195l0.239-0.311l-0.019-0.006l1.117-0.908l0.365,0.102l0.108,0.096L323.562,73.75L323.562,73.75z"/>
      <path fill="#b0afa3" stroke="#5f5e58" stroke-miterlimit="10" d="M323.391,142.639l0.173-68.892l0.037-0.024l0.016-0.03l0.03-0.018 l0.115,0.06l0.022-0.006l0.054-0.078l0.05,0.006l0.017-0.019l0.024-0.005l0.023,0.005l0.023-0.005L324,73.409l0.021-0.018v-0.006 l0.424-0.355l0.011-0.051l0.071-0.024l0.005-0.018l2.201-1.105l0.006-0.019l0.604-0.209l0.048-0.059l0.417-0.196l0.029-0.036 l1.307-0.658l0.006-0.011l0.097-0.049h0.031l2.721-1.266l0.016-0.024l0.152-0.03l0.018-0.018l0.955-0.331l0.012-0.012l0.459-0.036 l0.252,0.15l0.054,1.321l0.158,0.192l0.06,0.006l0.135,0.107l0.103,0.011l0.077-0.03l0.099,0.055l0.089-0.059l0.282,0.036 l-0.006-0.006l-0.018,0.071l0.531,0.119l0.061-0.053l0.083-0.28l-0.007-0.024l0.068-0.224l0.787-0.109l0.332-0.456l1.823-0.178 l0.18,0.12l0.132,0.276l0.012,0.597l0.577,1.06l-0.045,0.061l-0.012,0.064l0.089,0.241l0.504,0.222l0.036-0.006l0.329-0.64 l1.364,0.629l-0.3,0.633l1.003,0.795l0.235-0.006l0.851-0.945l0.552-0.112l0.172,0.083l0.563-0.03l0.005-0.006l3.562,0.856 l0.438,0.463l0.237,1.307l0.71,0.547l2.726,0.391l0.022,0.024l0.018,0.006l0.262,0.51v0.041l-0.012,0.024l0.177,0.314l0.759,0.211 l0.141-0.024l0.178-0.148l0.106-0.362l0.042-0.024l0.05,0.006l0.229,0.621l0.4,0.03l0.697-0.281l0.07-0.205l0.022-0.017h0.033 l0.149,0.227l-0.006,0.024l0.118,0.111l0.006,0.035l0.75,0.354l0.05,0.123l0.141,0.018l0.083,0.102l0.19,0.083l0.219-0.012 l0.564-0.5l0.004-0.119l-0.631-1.359l0.019-0.031l1.778-0.307l1.141,0.389l0.402,0.436l0.339,0.103l0.029,0.042v0.046l0.018,0.019 l0.466-0.396l-0.17-0.218l0.512-0.466l0.157,0.158l0.094-0.072l0.073-0.26l0.227-0.108l0.035-0.073l0.107-0.059l0.096-0.167v-0.035 l0.011-0.006l0.013-0.019l0.168-0.083l0.017-0.03v-0.047h-0.017l-0.035-0.024l0.021-0.023l-0.109-0.071l0.072-0.111l0.071,0.046 l0.038-0.052l0.053,0.041l0.021-0.034l0.12,0.083l-0.011-0.087l0.123-0.043l0.041,0.149l0.024,0.011l1.027-0.938l0.042-0.157 l0.07-0.036h0.098L365.144,73l-0.102-0.301l-0.176,0.058l0.13,0.411l-1.106,0.354l-0.012-0.024l-0.376,0.117l-0.048-0.129 l-0.011,0.006l-0.041-0.148l0.025-0.006l-0.034-0.093l-0.019,0.006l-0.006-0.025l-0.159,0.047l-0.081-0.283l0.141-0.042 l0.013-0.012l0.006-0.019l0.064-0.011l0.008,0.005l0.155-0.041l-0.006-0.018v0.02l0.006-0.006l0.04,0.006v0.012l0.087-0.023v-0.012 l-0.011-0.012l0.006-0.006l0.017-0.006l0.02,0.006l0.006,0.006l0.004,0.012l0.06-0.019v-0.018l0.059-0.018l0.018,0.012l0.183-0.053 v-0.04l0.029-0.012l0.026,0.03l0.089-0.024v-0.006h-0.007l0.007-0.037l0.011-0.006h0.031l0.005,0.024h0.005l-0.005-0.012 l0.011-0.012l0.056-0.012l0.02,0.012l0.21-0.064l-0.012-0.043l0.006-0.005h0.025l0.011,0.005v0.006l0.012,0.018l0.012-0.006v-0.012 l0.057-0.019v-0.012l0.017-0.011h0.023l0.011,0.005l0.007-0.005h0.024l0.02-0.013h0.018l0.012,0.013l0.112-0.05l-0.006-0.013 v-0.012l0.011-0.012h0.031l0.011,0.024l0.086-0.024l-0.012-0.03l0.028-0.019h0.018l0.03,0.024l0.034-0.005l0.007-0.024l0.06-0.019 l0.094,0.3l-0.019,0.005l0.05,0.148l1.226-0.692l0.016,0.006l0.908-0.424l0.495,0.168l0.387,0.416l0.018,0.094l0.189-0.036 l1.114-0.922l0.064-0.007l0.018-0.011l0.161-0.286l0.053-0.019l0.024,0.006l0.023-0.006l0.247-0.476l0.038-0.006l0.012-0.011 l0.006-0.019l-0.012-0.035v0.004l0.006-0.084l0.058-0.06l0.327,0.019l0.006-0.007l0.308,0.436l1.383-0.306l0.012-0.03l1.315-0.264 l-0.456,64.465l-12.191,8.359L323.391,142.639L323.391,142.639z"/>
    </g>
  </svg>
