<?xml version="1.0" encoding="UTF-8" standalone="no"?>
<svg width="506px" height="79px" viewBox="0 0 506 79" version="1.1" xmlns="http://www.w3.org/2000/svg" xmlns:xlink="http://www.w3.org/1999/xlink">
    <!-- Generator: Sketch 39.1 (31720) - http://www.bohemiancoding.com/sketch -->
    <title>Megaphone logo_alternate_white</title>
    <desc>Created with Sketch.</desc>
    <defs>
        <polygon id="path-1" points="0.06 0.323 0.06 61.851 144.38 61.851 144.38 0.323 0.06 0.323"></polygon>
    </defs>
    <g id="Page-1" stroke="none" stroke-width="1" fill="none" fill-rule="evenodd">
        <g id="Megaphone-logo_alternate_white">
            <polyline id="Fill-1" fill="#FFFFFF" points="326.098 1.323 339.3 1.323 339.3 22.159 352.898 22.159 352.898 1.323 366.098 1.323 366.098 56.751 352.898 56.751 352.898 32.815 339.3 32.815 339.3 56.751 326.098 56.751 326.098 1.323"></polyline>
            <polyline id="Fill-2" fill="#FFFFFF" points="471.867 1.323 504.233 1.323 503.359 11.98 485.069 11.98 485.069 22.715 499.939 22.715 499.939 33.053 485.069 33.053 485.069 46.016 505.267 46.016 505.267 56.751 471.867 56.751 471.867 1.323"></polyline>
            <path d="M96.233,76.77 C95.708,77.309 94.613,78.179 92.498,78.179 C89.453,78.179 87.068,76.169 87.068,72.84 C87.068,69.495 89.483,67.5 92.498,67.5 C94.628,67.5 95.783,68.386 96.053,68.67 L95.303,70.681 C95.108,70.426 93.998,69.601 92.633,69.601 C90.878,69.601 89.528,70.771 89.528,72.795 C89.528,74.82 90.938,75.974 92.633,75.974 C93.923,75.974 94.853,75.464 95.423,74.879 L96.233,76.77" id="Fill-3" fill="#FFFFFF"></path>
            <polyline id="Fill-4" fill="#FFFFFF" points="122.708 78 120.278 78 120.278 73.665 116.124 73.665 116.124 78 113.693 78 113.693 67.65 116.124 67.65 116.124 71.655 120.278 71.655 120.278 67.65 122.708 67.65 122.708 78"></polyline>
            <path d="M146.333,74.025 L145.043,70.306 L143.753,74.025 L146.333,74.025 L146.333,74.025 Z M150.263,78 L147.623,78 L146.888,75.915 L143.198,75.915 L142.463,78 L139.943,78 L143.843,67.636 L146.363,67.636 L150.263,78 L150.263,78 Z" id="Fill-5" fill="#FFFFFF"></path>
            <path d="M176.858,78 L174.368,78 L169.823,70.981 C169.823,70.981 169.868,72.226 169.868,73.32 L169.868,78 L167.498,78 L167.498,67.65 L170.093,67.65 L174.533,74.61 C174.533,74.61 174.488,73.44 174.488,72.346 L174.488,67.65 L176.858,67.65 L176.858,78" id="Fill-6" fill="#FFFFFF"></path>
            <path d="M204.563,76.395 C204.038,76.86 202.808,78.165 199.958,78.165 C197.093,78.165 194.573,76.275 194.573,72.825 C194.573,69.375 197.093,67.5 199.988,67.5 C202.733,67.5 203.918,68.94 204.248,69.301 L202.643,70.695 C202.208,70.215 201.398,69.511 199.988,69.511 C198.323,69.511 197.033,70.726 197.033,72.825 C197.033,74.924 198.353,76.139 200.033,76.139 C201.713,76.139 202.193,75.48 202.193,75.48 L202.193,73.95 L200.018,73.95 L200.018,72.106 L204.563,72.106 L204.563,76.395" id="Fill-7" fill="#FFFFFF"></path>
            <polyline id="Fill-8" fill="#FFFFFF" points="229.448 78 222.608 78 222.608 67.65 229.313 67.65 229.313 69.585 225.023 69.585 225.023 71.7 229.073 71.7 229.073 73.634 225.023 73.634 225.023 76.035 229.448 76.035 229.448 78"></polyline>
            <polyline id="Fill-9" fill="#FFFFFF" points="273.487 69.57 270.817 69.57 270.817 78 268.388 78 268.388 69.57 265.718 69.57 265.718 67.65 273.487 67.65 273.487 69.57"></polyline>
            <polyline id="Fill-10" fill="#FFFFFF" points="299.857 78 297.427 78 297.427 73.665 293.273 73.665 293.273 78 290.842 78 290.842 67.65 293.273 67.65 293.273 71.655 297.427 71.655 297.427 67.65 299.857 67.65 299.857 78"></polyline>
            <path d="M323.482,74.025 L322.192,70.306 L320.903,74.025 L323.482,74.025 L323.482,74.025 Z M327.413,78 L324.772,78 L324.038,75.915 L320.347,75.915 L319.613,78 L317.092,78 L320.993,67.636 L323.512,67.636 L327.413,78 L327.413,78 Z" id="Fill-11" fill="#FFFFFF"></path>
            <polyline id="Fill-12" fill="#FFFFFF" points="351.532 69.57 348.862 69.57 348.862 78 346.432 78 346.432 69.57 343.762 69.57 343.762 67.65 351.532 67.65 351.532 69.57"></polyline>
            <polyline id="Fill-13" fill="#FFFFFF" points="402.021 67.65 399.022 78 396.577 78 394.612 70.905 392.647 78 390.203 78 387.203 67.65 389.737 67.65 391.538 74.625 393.397 67.65 395.827 67.65 397.702 74.625 399.487 67.65 402.021 67.65"></polyline>
            <path d="M424.237,69.556 C422.511,69.556 421.207,70.801 421.207,72.78 C421.207,74.759 422.511,76.02 424.237,76.02 C425.961,76.02 427.266,74.759 427.266,72.78 C427.266,70.815 425.961,69.556 424.237,69.556 L424.237,69.556 Z M424.237,78.179 C421.162,78.179 418.747,76.185 418.747,72.84 C418.747,69.495 421.162,67.485 424.237,67.485 C427.311,67.485 429.726,69.495 429.726,72.84 C429.726,76.185 427.311,78.179 424.237,78.179 L424.237,78.179 Z" id="Fill-14" fill="#FFFFFF"></path>
            <path d="M452.061,69.795 C451.761,69.57 451.372,69.525 450.816,69.525 L449.857,69.525 L449.857,72.181 L450.816,72.181 C451.372,72.181 451.761,72.12 452.061,71.896 C452.376,71.67 452.586,71.386 452.586,70.846 C452.586,70.32 452.376,70.021 452.061,69.795 L452.061,69.795 Z M455.631,78 L452.811,78 L450.636,74.04 L449.872,74.04 L449.872,78 L447.442,78 L447.442,67.65 L451.162,67.65 C452.316,67.65 453.216,67.891 453.891,68.386 C454.582,68.896 455.031,69.721 455.031,70.755 C455.031,72.721 453.771,73.485 453.006,73.725 L455.631,78 L455.631,78 Z" id="Fill-15" fill="#FFFFFF"></path>
            <polyline id="Fill-16" fill="#FFFFFF" points="481.537 78 478.626 78 476.032 73.679 475.207 74.594 475.207 78 472.792 78 472.792 67.65 475.207 67.65 475.207 71.431 478.402 67.65 481.282 67.65 477.637 71.775 481.537 78"></polyline>
            <path d="M504.351,77.325 C503.616,77.91 502.656,78.179 501.546,78.179 C500.046,78.179 498.711,77.4 497.872,76.62 L499.072,74.85 C499.821,75.629 500.976,76.155 501.771,76.155 C502.551,76.155 503.151,75.78 503.151,75.089 C503.151,74.384 502.386,74.115 501.936,73.95 C501.486,73.785 500.707,73.515 500.361,73.365 C500.106,73.245 499.582,73.05 499.131,72.615 C498.681,72.195 498.322,71.596 498.322,70.62 C498.322,69.63 498.801,68.851 499.401,68.356 C499.986,67.86 500.931,67.53 502.131,67.53 C503.332,67.53 504.711,68.101 505.417,68.806 L504.381,70.5 C503.781,69.9 502.851,69.45 502.071,69.45 C501.292,69.45 500.721,69.75 500.721,70.38 C500.721,71.011 501.306,71.25 501.771,71.431 C502.221,71.61 502.986,71.88 503.316,72.016 C503.601,72.12 504.292,72.391 504.756,72.856 C505.191,73.29 505.566,73.919 505.566,74.85 C505.566,75.839 505.101,76.74 504.351,77.325" id="Fill-17" fill="#FFFFFF"></path>
            <text id="--" font-family="LucidaGrande, Lucida Grande" font-size="12" font-weight="normal" letter-spacing="1.4239"></text>
            <path d="M423.755,1.323 L436.399,1.323 L447.772,25.022 C448.964,27.566 451.589,33.53 453.178,37.746 C452.702,32.735 452.542,27.01 452.542,22.477 L452.542,1.323 L464.71,1.323 L464.71,56.751 L452.145,56.751 L440.614,32.815 C438.467,28.361 436.877,24.306 435.127,20.091 C435.684,25.101 435.843,30.827 435.843,35.439 L435.843,56.751 L423.755,56.751 L423.755,1.323" id="Fill-18" fill="#FFFFFF"></path>
            <path d="M371.587,29.713 C371.587,12.298 379.38,0.368 395.046,0.368 C410.395,0.368 418.347,11.581 418.347,28.361 C418.347,47.685 410.713,57.705 395.046,57.705 C379.937,57.705 371.587,46.97 371.587,29.713 M404.113,28.997 C404.113,15.319 401.726,10.627 395.046,10.627 C388.208,10.627 385.822,15.955 385.822,28.918 C385.822,42.993 388.446,47.447 395.046,47.447 C401.806,47.447 404.113,43.311 404.113,28.997" id="Fill-19" fill="#FFFFFF"></path>
            <polyline id="Fill-20" fill="#FFFFFF" points="149.869 1.323 182.236 1.323 181.361 11.98 163.07 11.98 163.07 22.715 177.941 22.715 177.941 33.053 163.07 33.053 163.07 46.016 183.269 46.016 183.269 56.751 149.869 56.751 149.869 1.323"></polyline>
            <g id="Group-24" transform="translate(0.000000, 1.000000)">
                <mask id="mask-2" fill="white">
                    <use xlink:href="#path-1"></use>
                </mask>
                <g id="Clip-22"></g>
                <path d="M91.894,0.323 L107.242,0.323 L112.411,20.841 C113.604,25.453 115.035,32.292 115.592,36.746 C116.308,32.212 117.978,25.453 119.171,20.92 L124.658,0.323 L139.688,0.323 L144.38,55.751 L131.497,55.751 L129.986,32.53 C129.668,27.839 129.191,20.602 129.032,16.308 C128.395,20.681 126.964,27.282 125.93,31.894 L120.603,55.751 L109.946,55.751 L104.698,31.974 C103.664,27.282 102.153,20.681 101.517,16.308 C101.357,20.681 101.119,27.918 100.881,32.53 L99.449,55.751 L87.202,55.751 L91.894,0.323" id="Fill-21" fill="#FFFFFF" mask="url(#mask-2)"></path>
                <path d="M38.569,61.851 L38.541,9.67 L0,30.608 L0.003,32.536 C0.003,32.541 0.001,32.544 0.001,32.549 L0.001,38.397 C0.001,38.399 0.002,38.402 0.002,38.405 L0.022,40.908 L38.569,61.851" id="Fill-23" fill="#FFFFFF" mask="url(#mask-2)"></path>
            </g>
            <path d="M65.652,12.465 C64.821,9.083 63.198,4.269 62.622,2.596 L62.626,2.593 L62.576,2.461 C62.475,2.17 62.413,1.991 62.413,1.991 C62.389,1.924 62.355,1.867 62.326,1.806 L61.698,0.163 L51.43,5.774 L52.474,9.015 L52.477,9.012 C53.091,11.019 54.282,15.046 54.917,18.076 C54.92,18.095 54.924,18.112 54.927,18.131 L54.867,18.156 C56.204,24.244 56.872,30.332 56.872,36.418 C56.872,41.055 56.457,45.824 55.638,50.721 C55.414,52.013 55.167,53.304 54.884,54.596 L54.911,54.608 C54.907,54.631 54.904,54.652 54.899,54.676 C54.269,57.684 53.093,61.668 52.475,63.691 L52.474,63.691 L51.43,66.93 L61.698,72.544 L62.3,70.965 C62.334,70.899 62.371,70.835 62.397,70.762 C62.397,70.762 62.465,70.566 62.577,70.241 L62.626,70.114 L62.622,70.111 C63.21,68.397 64.812,63.641 65.636,60.288 C65.729,59.904 65.81,59.52 65.898,59.134 L65.918,59.143 C67.649,51.724 68.516,44.122 68.516,36.337 C68.516,28.182 67.559,20.226 65.652,12.465" id="Fill-25" fill="#FFFFFF"></path>
            <path d="M186.292,29.315 C186.292,10.547 195.039,0.448 210.865,0.448 C218.26,0.448 223.907,2.993 227.883,6.333 L222.077,15.876 C219.214,13.252 215.954,11.263 211.024,11.263 C203.31,11.263 200.208,16.115 200.208,28.759 C200.208,42.198 203.23,47.526 210.547,47.526 C212.932,47.526 214.682,47.128 216.113,46.413 L216.113,35.836 L208.797,35.836 L208.002,25.498 L228.599,25.498 L228.599,52.854 C223.27,56.195 217.147,57.705 210.785,57.705 C194.721,57.705 186.292,48.242 186.292,29.315" id="Fill-26" fill="#FFFFFF"></path>
            <path d="M247.527,44.107 L244.346,56.751 L231.701,56.751 L248.64,1.323 L262.398,1.323 L278.541,56.751 L264.386,56.751 L261.364,44.107 L247.527,44.107 L247.527,44.107 Z M259.297,35.2 L258.024,30.031 C256.911,25.498 255.4,19.296 254.764,14.842 C253.968,19.296 252.378,25.578 251.185,30.031 L249.754,35.2 L259.297,35.2 L259.297,35.2 Z" id="Fill-27" fill="#FFFFFF"></path>
            <path d="M282.2,1.323 L300.013,1.323 C314.805,1.323 321.246,6.731 321.246,18.898 C321.246,30.429 314.089,36.711 300.332,36.711 L295.4,36.711 L295.4,56.751 L282.2,56.751 L282.2,1.323 L282.2,1.323 Z M299.457,27.566 C305.739,27.566 308.444,24.862 308.444,18.978 C308.444,13.411 305.579,10.787 299.457,10.787 L295.162,10.787 L295.162,27.566 L299.457,27.566 L299.457,27.566 Z" id="Fill-28" fill="#FFFFFF"></path>
        </g>
    </g>
</svg>